<svg xmlns="http://www.w3.org/2000/svg" viewBox="0 0 41.13 44.17"><defs><style>.cls-1{fill:#ff6700;}</style></defs><g id="Capa_2" data-name="Capa 2"><g id="Capa_1-2" data-name="Capa 1"><path d="M3.2,18V38.52h-3V18Z"/><path d="M10.75,0V38.52h-3V0Z"/><path d="M18.29,23.46V38.52h-3V23.46Z"/><path d="M25.84,18V38.52h-3V18Z"/><path d="M33.4,0V38.52h-3V0Z"/><path d="M40.94,23.46V38.52h-3V23.46Z"/><path class="cls-1" d="M0,41H33.4v3H0Z"/><path d="M38.23,43.68a1.69,1.69,0,0,1,0-2.42,1.67,1.67,0,0,1,1.2-.49,1.7,1.7,0,0,1,1.2.49,1.71,1.71,0,0,1,0,2.42,1.66,1.66,0,0,1-1.2.49A1.63,1.63,0,0,1,38.23,43.68Z"/></g></g></svg>