<svg xmlns="http://www.w3.org/2000/svg" xmlns:xlink="http://www.w3.org/1999/xlink" viewBox="0 0 121.92 173.51"><defs><style>.cls-1{fill:url(#Degradado_sin_nombre_75);}.cls-2{fill:url(#Degradado_sin_nombre_75-2);}</style><linearGradient id="Degradado_sin_nombre_75" x1="-4.67" y1="54.62" x2="121.92" y2="54.62" gradientUnits="userSpaceOnUse"><stop offset="0" stop-color="#e62329"/><stop offset="0.99" stop-color="#005b97"/></linearGradient><linearGradient id="Degradado_sin_nombre_75-2" x1="-4.67" y1="141.37" x2="121.92" y2="141.37" xlink:href="#Degradado_sin_nombre_75"/></defs><g id="Capa_2" data-name="Capa 2"><g id="Capa_1-2" data-name="Capa 1"><path class="cls-1" d="M72.88,71.15l22,38.09h13.26a13.76,13.76,0,0,0,11.92-20.65L72.88,6.88A13.77,13.77,0,0,0,49,6.88L1.86,88.59a13.77,13.77,0,0,0,11.93,20.65H27.05L49,71.15A13.77,13.77,0,0,1,72.88,71.15Z"/><path class="cls-2" d="M94.87,109.24H27.05L1.86,152.86a13.77,13.77,0,0,0,11.93,20.65H27.05l22-38.08a13.76,13.76,0,0,1,23.84,0l22,38.08h13.26a13.76,13.76,0,0,0,11.92-20.65Z"/></g></g></svg>