<svg xmlns="http://www.w3.org/2000/svg" xmlns:xlink="http://www.w3.org/1999/xlink" viewBox="0 0 327.22 400.15"><defs><style>.cls-1{fill:url(#Degradado_sin_nombre_85);}.cls-2{fill:url(#Degradado_sin_nombre_85-2);}.cls-3{fill:url(#Degradado_sin_nombre_85-3);}.cls-4{fill:url(#Degradado_sin_nombre_85-4);}.cls-5{fill:url(#Degradado_sin_nombre_85-5);}.cls-6{fill:url(#Degradado_sin_nombre_85-6);}.cls-7{fill:url(#Degradado_sin_nombre_85-7);}.cls-8{fill:url(#Degradado_sin_nombre_85-8);}.cls-9{fill:url(#Degradado_sin_nombre_85-9);}.cls-10{fill:url(#Degradado_sin_nombre_85-10);}.cls-11{fill:url(#Degradado_sin_nombre_85-11);}.cls-12{fill:url(#Degradado_sin_nombre_85-12);}.cls-13{fill:url(#Degradado_sin_nombre_85-13);}.cls-14{fill:url(#Degradado_sin_nombre_85-14);}.cls-15{fill:url(#Degradado_sin_nombre_85-15);}.cls-16{fill:url(#Degradado_sin_nombre_85-16);}.cls-17{fill:url(#Degradado_sin_nombre_85-17);}.cls-18{fill:url(#Degradado_sin_nombre_85-18);}.cls-19{fill:url(#Degradado_sin_nombre_85-19);}.cls-20{fill:url(#Degradado_sin_nombre_85-20);}.cls-21{fill:url(#Degradado_sin_nombre_85-21);}.cls-22{fill:url(#Degradado_sin_nombre_85-22);}.cls-23{fill:url(#Degradado_sin_nombre_85-23);}.cls-24{fill:url(#Degradado_sin_nombre_85-24);}.cls-25{fill:url(#Degradado_sin_nombre_85-25);}.cls-26{fill:url(#Degradado_sin_nombre_85-26);}.cls-27{fill:url(#Degradado_sin_nombre_85-27);}.cls-28{fill:url(#Degradado_sin_nombre_85-28);}.cls-29{fill:url(#Degradado_sin_nombre_85-29);}.cls-30{fill:url(#Degradado_sin_nombre_85-30);}.cls-31{fill:url(#Degradado_sin_nombre_85-31);}.cls-32{fill:url(#Degradado_sin_nombre_85-32);}.cls-33{fill:url(#Degradado_sin_nombre_85-33);}.cls-34{fill:url(#Degradado_sin_nombre_85-34);}.cls-35{fill:url(#Degradado_sin_nombre_85-35);}.cls-36{fill:url(#Degradado_sin_nombre_85-36);}.cls-37{fill:url(#Degradado_sin_nombre_85-37);}.cls-38{fill:url(#Degradado_sin_nombre_85-38);}.cls-39{fill:url(#Degradado_sin_nombre_85-39);}.cls-40{fill:url(#Degradado_sin_nombre_85-40);}.cls-41{fill:url(#Degradado_sin_nombre_85-41);}.cls-42{fill:url(#Degradado_sin_nombre_85-42);}.cls-43{fill:url(#Degradado_sin_nombre_85-43);}.cls-44{fill:url(#Degradado_sin_nombre_85-44);}.cls-45{fill:url(#Degradado_sin_nombre_85-45);}.cls-46{fill:url(#Degradado_sin_nombre_85-46);}.cls-47{fill:url(#Degradado_sin_nombre_85-47);}.cls-48{fill:url(#Degradado_sin_nombre_85-48);}.cls-49{fill:url(#Degradado_sin_nombre_85-49);}.cls-50{fill:url(#Degradado_sin_nombre_85-50);}.cls-51{fill:url(#Degradado_sin_nombre_85-51);}.cls-52{fill:url(#Degradado_sin_nombre_85-52);}.cls-53{fill:url(#Degradado_sin_nombre_85-53);}.cls-54{fill:url(#Degradado_sin_nombre_85-54);}.cls-55{fill:url(#Degradado_sin_nombre_85-55);}.cls-56{fill:url(#Degradado_sin_nombre_85-56);}.cls-57{fill:url(#Degradado_sin_nombre_85-57);}.cls-58{fill:url(#Degradado_sin_nombre_85-58);}.cls-59{fill:url(#Degradado_sin_nombre_85-59);}.cls-60{fill:url(#Degradado_sin_nombre_85-60);}.cls-61{fill:url(#Degradado_sin_nombre_85-61);}.cls-62{fill:url(#Degradado_sin_nombre_85-62);}.cls-63{fill:url(#Degradado_sin_nombre_85-63);}.cls-64{fill:url(#Degradado_sin_nombre_85-64);}.cls-65{fill:url(#Degradado_sin_nombre_85-65);}.cls-66{fill:url(#Degradado_sin_nombre_85-66);}.cls-67{fill:url(#Degradado_sin_nombre_85-67);}.cls-68{fill:url(#Degradado_sin_nombre_85-68);}.cls-69{fill:url(#Degradado_sin_nombre_85-69);}.cls-70{fill:url(#Degradado_sin_nombre_85-70);}.cls-71{fill:url(#Degradado_sin_nombre_85-71);}.cls-72{fill:url(#Degradado_sin_nombre_85-72);}.cls-73{fill:url(#Degradado_sin_nombre_85-73);}.cls-74{fill:url(#Degradado_sin_nombre_85-74);}.cls-75{fill:url(#Degradado_sin_nombre_85-75);}.cls-76{fill:url(#Degradado_sin_nombre_85-76);}.cls-77{fill:url(#Degradado_sin_nombre_85-77);}.cls-78{fill:url(#Degradado_sin_nombre_85-78);}.cls-79{fill:url(#Degradado_sin_nombre_85-79);}.cls-80{fill:url(#Degradado_sin_nombre_85-80);}.cls-81{fill:url(#Degradado_sin_nombre_85-81);}.cls-82{fill:url(#Degradado_sin_nombre_85-82);}.cls-83{fill:url(#Degradado_sin_nombre_85-83);}.cls-84{fill:url(#Degradado_sin_nombre_85-84);}.cls-85{fill:url(#Degradado_sin_nombre_85-85);}.cls-86{fill:url(#Degradado_sin_nombre_85-86);}.cls-87{fill:url(#Degradado_sin_nombre_85-87);}.cls-88{fill:url(#Degradado_sin_nombre_85-88);}.cls-89{fill:url(#Degradado_sin_nombre_85-89);}.cls-90{fill:url(#Degradado_sin_nombre_85-90);}.cls-91{fill:url(#Degradado_sin_nombre_85-91);}.cls-92{fill:url(#Degradado_sin_nombre_85-92);}.cls-93{fill:url(#Degradado_sin_nombre_85-93);}.cls-94{fill:url(#Degradado_sin_nombre_85-94);}.cls-95{fill:url(#Degradado_sin_nombre_85-95);}.cls-96{fill:url(#Degradado_sin_nombre_85-96);}.cls-97{fill:url(#Degradado_sin_nombre_85-97);}.cls-98{fill:url(#Degradado_sin_nombre_85-98);}.cls-99{fill:url(#Degradado_sin_nombre_85-99);}.cls-100{fill:url(#Degradado_sin_nombre_85-100);}.cls-101{fill:url(#Degradado_sin_nombre_85-101);}.cls-102{fill:url(#Degradado_sin_nombre_85-102);}.cls-103{fill:url(#Degradado_sin_nombre_85-103);}.cls-104{fill:url(#Degradado_sin_nombre_85-104);}.cls-105{fill:url(#Degradado_sin_nombre_85-105);}.cls-106{fill:url(#Degradado_sin_nombre_85-106);}.cls-107{fill:url(#Degradado_sin_nombre_85-107);}.cls-108{fill:url(#Degradado_sin_nombre_85-108);}.cls-109{fill:url(#Degradado_sin_nombre_85-109);}.cls-110{fill:url(#Degradado_sin_nombre_85-110);}.cls-111{fill:url(#Degradado_sin_nombre_85-111);}.cls-112{fill:url(#Degradado_sin_nombre_85-112);}</style><linearGradient id="Degradado_sin_nombre_85" y1="12.5" x2="23.29" y2="12.5" gradientUnits="userSpaceOnUse"><stop offset="0" stop-color="#e62329"/><stop offset="1" stop-color="#005b97"/></linearGradient><linearGradient id="Degradado_sin_nombre_85-2" x1="46.47" y1="12.5" x2="69.76" y2="12.5" xlink:href="#Degradado_sin_nombre_85"/><linearGradient id="Degradado_sin_nombre_85-3" x1="23.77" y1="37.51" x2="47.06" y2="37.51" xlink:href="#Degradado_sin_nombre_85"/><linearGradient id="Degradado_sin_nombre_85-4" x1="70.37" y1="37.51" x2="93.66" y2="37.51" xlink:href="#Degradado_sin_nombre_85"/><linearGradient id="Degradado_sin_nombre_85-5" y1="62.52" x2="23.29" y2="62.52" xlink:href="#Degradado_sin_nombre_85"/><linearGradient id="Degradado_sin_nombre_85-6" x1="46.47" y1="62.52" x2="69.76" y2="62.52" xlink:href="#Degradado_sin_nombre_85"/><linearGradient id="Degradado_sin_nombre_85-7" x1="23.77" y1="87.53" x2="47.06" y2="87.53" xlink:href="#Degradado_sin_nombre_85"/><linearGradient id="Degradado_sin_nombre_85-8" x1="70.37" y1="87.53" x2="93.66" y2="87.53" xlink:href="#Degradado_sin_nombre_85"/><linearGradient id="Degradado_sin_nombre_85-9" y1="112.54" x2="23.29" y2="112.54" xlink:href="#Degradado_sin_nombre_85"/><linearGradient id="Degradado_sin_nombre_85-10" x1="46.47" y1="112.54" x2="69.76" y2="112.54" xlink:href="#Degradado_sin_nombre_85"/><linearGradient id="Degradado_sin_nombre_85-11" x1="23.77" y1="137.55" x2="47.06" y2="137.55" xlink:href="#Degradado_sin_nombre_85"/><linearGradient id="Degradado_sin_nombre_85-12" x1="70.37" y1="137.55" x2="93.66" y2="137.55" xlink:href="#Degradado_sin_nombre_85"/><linearGradient id="Degradado_sin_nombre_85-13" y1="162.56" x2="23.29" y2="162.56" xlink:href="#Degradado_sin_nombre_85"/><linearGradient id="Degradado_sin_nombre_85-14" x1="46.47" y1="162.56" x2="69.76" y2="162.56" xlink:href="#Degradado_sin_nombre_85"/><linearGradient id="Degradado_sin_nombre_85-15" x1="23.77" y1="187.57" x2="47.06" y2="187.57" xlink:href="#Degradado_sin_nombre_85"/><linearGradient id="Degradado_sin_nombre_85-16" x1="70.37" y1="187.57" x2="93.66" y2="187.57" xlink:href="#Degradado_sin_nombre_85"/><linearGradient id="Degradado_sin_nombre_85-17" x1="94.26" y1="12.5" x2="117.55" y2="12.5" xlink:href="#Degradado_sin_nombre_85"/><linearGradient id="Degradado_sin_nombre_85-18" x1="140.62" y1="12.5" x2="163.91" y2="12.5" xlink:href="#Degradado_sin_nombre_85"/><linearGradient id="Degradado_sin_nombre_85-19" x1="187.09" y1="12.5" x2="210.38" y2="12.5" xlink:href="#Degradado_sin_nombre_85"/><linearGradient id="Degradado_sin_nombre_85-20" x1="233.56" y1="12.5" x2="256.85" y2="12.5" xlink:href="#Degradado_sin_nombre_85"/><linearGradient id="Degradado_sin_nombre_85-21" x1="280.03" y1="12.5" x2="303.32" y2="12.5" xlink:href="#Degradado_sin_nombre_85"/><linearGradient id="Degradado_sin_nombre_85-22" x1="117.55" y1="37.51" x2="140.84" y2="37.51" xlink:href="#Degradado_sin_nombre_85"/><linearGradient id="Degradado_sin_nombre_85-23" x1="164.15" y1="37.51" x2="187.44" y2="37.51" xlink:href="#Degradado_sin_nombre_85"/><linearGradient id="Degradado_sin_nombre_85-24" x1="210.74" y1="37.51" x2="234.03" y2="37.51" xlink:href="#Degradado_sin_nombre_85"/><linearGradient id="Degradado_sin_nombre_85-25" x1="257.33" y1="37.51" x2="280.62" y2="37.51" xlink:href="#Degradado_sin_nombre_85"/><linearGradient id="Degradado_sin_nombre_85-26" x1="303.93" y1="37.51" x2="327.22" y2="37.51" xlink:href="#Degradado_sin_nombre_85"/><linearGradient id="Degradado_sin_nombre_85-27" x1="94.26" y1="62.52" x2="117.55" y2="62.52" xlink:href="#Degradado_sin_nombre_85"/><linearGradient id="Degradado_sin_nombre_85-28" x1="140.62" y1="62.52" x2="163.91" y2="62.52" xlink:href="#Degradado_sin_nombre_85"/><linearGradient id="Degradado_sin_nombre_85-29" x1="187.09" y1="62.52" x2="210.38" y2="62.52" xlink:href="#Degradado_sin_nombre_85"/><linearGradient id="Degradado_sin_nombre_85-30" x1="233.56" y1="62.52" x2="256.85" y2="62.52" xlink:href="#Degradado_sin_nombre_85"/><linearGradient id="Degradado_sin_nombre_85-31" x1="280.03" y1="62.52" x2="303.32" y2="62.52" xlink:href="#Degradado_sin_nombre_85"/><linearGradient id="Degradado_sin_nombre_85-32" x1="117.55" y1="87.53" x2="140.84" y2="87.53" xlink:href="#Degradado_sin_nombre_85"/><linearGradient id="Degradado_sin_nombre_85-33" x1="164.15" y1="87.53" x2="187.44" y2="87.53" xlink:href="#Degradado_sin_nombre_85"/><linearGradient id="Degradado_sin_nombre_85-34" x1="210.74" y1="87.53" x2="234.03" y2="87.53" xlink:href="#Degradado_sin_nombre_85"/><linearGradient id="Degradado_sin_nombre_85-35" x1="257.33" y1="87.53" x2="280.62" y2="87.53" xlink:href="#Degradado_sin_nombre_85"/><linearGradient id="Degradado_sin_nombre_85-36" x1="303.93" y1="87.53" x2="327.22" y2="87.53" xlink:href="#Degradado_sin_nombre_85"/><linearGradient id="Degradado_sin_nombre_85-37" x1="94.26" y1="112.54" x2="117.55" y2="112.54" xlink:href="#Degradado_sin_nombre_85"/><linearGradient id="Degradado_sin_nombre_85-38" x1="140.62" y1="112.54" x2="163.91" y2="112.54" xlink:href="#Degradado_sin_nombre_85"/><linearGradient id="Degradado_sin_nombre_85-39" x1="187.09" y1="112.54" x2="210.38" y2="112.54" xlink:href="#Degradado_sin_nombre_85"/><linearGradient id="Degradado_sin_nombre_85-40" x1="233.56" y1="112.54" x2="256.85" y2="112.54" xlink:href="#Degradado_sin_nombre_85"/><linearGradient id="Degradado_sin_nombre_85-41" x1="280.03" y1="112.54" x2="303.32" y2="112.54" xlink:href="#Degradado_sin_nombre_85"/><linearGradient id="Degradado_sin_nombre_85-42" x1="117.55" y1="137.55" x2="140.84" y2="137.55" xlink:href="#Degradado_sin_nombre_85"/><linearGradient id="Degradado_sin_nombre_85-43" x1="164.15" y1="137.55" x2="187.44" y2="137.55" xlink:href="#Degradado_sin_nombre_85"/><linearGradient id="Degradado_sin_nombre_85-44" x1="210.74" y1="137.55" x2="234.03" y2="137.55" xlink:href="#Degradado_sin_nombre_85"/><linearGradient id="Degradado_sin_nombre_85-45" x1="257.33" y1="137.55" x2="280.62" y2="137.55" xlink:href="#Degradado_sin_nombre_85"/><linearGradient id="Degradado_sin_nombre_85-46" x1="303.93" y1="137.55" x2="327.22" y2="137.55" xlink:href="#Degradado_sin_nombre_85"/><linearGradient id="Degradado_sin_nombre_85-47" x1="94.26" y1="162.56" x2="117.55" y2="162.56" xlink:href="#Degradado_sin_nombre_85"/><linearGradient id="Degradado_sin_nombre_85-48" x1="140.62" y1="162.56" x2="163.91" y2="162.56" xlink:href="#Degradado_sin_nombre_85"/><linearGradient id="Degradado_sin_nombre_85-49" x1="187.09" y1="162.56" x2="210.38" y2="162.56" xlink:href="#Degradado_sin_nombre_85"/><linearGradient id="Degradado_sin_nombre_85-50" x1="233.56" y1="162.56" x2="256.85" y2="162.56" xlink:href="#Degradado_sin_nombre_85"/><linearGradient id="Degradado_sin_nombre_85-51" x1="280.03" y1="162.56" x2="303.32" y2="162.56" xlink:href="#Degradado_sin_nombre_85"/><linearGradient id="Degradado_sin_nombre_85-52" x1="117.55" y1="187.57" x2="140.84" y2="187.57" xlink:href="#Degradado_sin_nombre_85"/><linearGradient id="Degradado_sin_nombre_85-53" x1="164.15" y1="187.57" x2="187.44" y2="187.57" xlink:href="#Degradado_sin_nombre_85"/><linearGradient id="Degradado_sin_nombre_85-54" x1="210.74" y1="187.57" x2="234.03" y2="187.57" xlink:href="#Degradado_sin_nombre_85"/><linearGradient id="Degradado_sin_nombre_85-55" x1="257.33" y1="187.57" x2="280.62" y2="187.57" xlink:href="#Degradado_sin_nombre_85"/><linearGradient id="Degradado_sin_nombre_85-56" x1="303.93" y1="187.57" x2="327.22" y2="187.57" xlink:href="#Degradado_sin_nombre_85"/><linearGradient id="Degradado_sin_nombre_85-57" y1="212.58" x2="23.29" y2="212.58" xlink:href="#Degradado_sin_nombre_85"/><linearGradient id="Degradado_sin_nombre_85-58" x1="46.47" y1="212.58" x2="69.76" y2="212.58" xlink:href="#Degradado_sin_nombre_85"/><linearGradient id="Degradado_sin_nombre_85-59" x1="23.77" y1="237.59" x2="47.06" y2="237.59" xlink:href="#Degradado_sin_nombre_85"/><linearGradient id="Degradado_sin_nombre_85-60" x1="70.37" y1="237.59" x2="93.66" y2="237.59" xlink:href="#Degradado_sin_nombre_85"/><linearGradient id="Degradado_sin_nombre_85-61" y1="262.6" x2="23.29" y2="262.6" xlink:href="#Degradado_sin_nombre_85"/><linearGradient id="Degradado_sin_nombre_85-62" x1="46.47" y1="262.6" x2="69.76" y2="262.6" xlink:href="#Degradado_sin_nombre_85"/><linearGradient id="Degradado_sin_nombre_85-63" x1="23.77" y1="287.61" x2="47.06" y2="287.61" xlink:href="#Degradado_sin_nombre_85"/><linearGradient id="Degradado_sin_nombre_85-64" x1="70.37" y1="287.61" x2="93.66" y2="287.61" xlink:href="#Degradado_sin_nombre_85"/><linearGradient id="Degradado_sin_nombre_85-65" y1="312.62" x2="23.29" y2="312.62" xlink:href="#Degradado_sin_nombre_85"/><linearGradient id="Degradado_sin_nombre_85-66" x1="46.47" y1="312.62" x2="69.76" y2="312.62" xlink:href="#Degradado_sin_nombre_85"/><linearGradient id="Degradado_sin_nombre_85-67" x1="23.77" y1="337.63" x2="47.06" y2="337.63" xlink:href="#Degradado_sin_nombre_85"/><linearGradient id="Degradado_sin_nombre_85-68" x1="70.37" y1="337.63" x2="93.66" y2="337.63" xlink:href="#Degradado_sin_nombre_85"/><linearGradient id="Degradado_sin_nombre_85-69" y1="362.64" x2="23.29" y2="362.64" xlink:href="#Degradado_sin_nombre_85"/><linearGradient id="Degradado_sin_nombre_85-70" x1="46.47" y1="362.64" x2="69.76" y2="362.64" xlink:href="#Degradado_sin_nombre_85"/><linearGradient id="Degradado_sin_nombre_85-71" x1="23.77" y1="387.65" x2="47.06" y2="387.65" xlink:href="#Degradado_sin_nombre_85"/><linearGradient id="Degradado_sin_nombre_85-72" x1="70.37" y1="387.65" x2="93.66" y2="387.65" xlink:href="#Degradado_sin_nombre_85"/><linearGradient id="Degradado_sin_nombre_85-73" x1="94.26" y1="212.58" x2="117.55" y2="212.58" xlink:href="#Degradado_sin_nombre_85"/><linearGradient id="Degradado_sin_nombre_85-74" x1="140.62" y1="212.58" x2="163.91" y2="212.58" xlink:href="#Degradado_sin_nombre_85"/><linearGradient id="Degradado_sin_nombre_85-75" x1="187.09" y1="212.58" x2="210.38" y2="212.58" xlink:href="#Degradado_sin_nombre_85"/><linearGradient id="Degradado_sin_nombre_85-76" x1="233.56" y1="212.58" x2="256.85" y2="212.58" xlink:href="#Degradado_sin_nombre_85"/><linearGradient id="Degradado_sin_nombre_85-77" x1="280.03" y1="212.58" x2="303.32" y2="212.58" xlink:href="#Degradado_sin_nombre_85"/><linearGradient id="Degradado_sin_nombre_85-78" x1="117.55" y1="237.59" x2="140.84" y2="237.59" xlink:href="#Degradado_sin_nombre_85"/><linearGradient id="Degradado_sin_nombre_85-79" x1="164.15" y1="237.59" x2="187.44" y2="237.59" xlink:href="#Degradado_sin_nombre_85"/><linearGradient id="Degradado_sin_nombre_85-80" x1="210.74" y1="237.59" x2="234.03" y2="237.59" xlink:href="#Degradado_sin_nombre_85"/><linearGradient id="Degradado_sin_nombre_85-81" x1="257.33" y1="237.59" x2="280.62" y2="237.59" xlink:href="#Degradado_sin_nombre_85"/><linearGradient id="Degradado_sin_nombre_85-82" x1="303.93" y1="237.59" x2="327.22" y2="237.59" xlink:href="#Degradado_sin_nombre_85"/><linearGradient id="Degradado_sin_nombre_85-83" x1="94.26" y1="262.6" x2="117.55" y2="262.6" xlink:href="#Degradado_sin_nombre_85"/><linearGradient id="Degradado_sin_nombre_85-84" x1="140.62" y1="262.6" x2="163.91" y2="262.6" xlink:href="#Degradado_sin_nombre_85"/><linearGradient id="Degradado_sin_nombre_85-85" x1="187.09" y1="262.6" x2="210.38" y2="262.6" xlink:href="#Degradado_sin_nombre_85"/><linearGradient id="Degradado_sin_nombre_85-86" x1="233.56" y1="262.6" x2="256.85" y2="262.6" xlink:href="#Degradado_sin_nombre_85"/><linearGradient id="Degradado_sin_nombre_85-87" x1="280.03" y1="262.6" x2="303.32" y2="262.6" xlink:href="#Degradado_sin_nombre_85"/><linearGradient id="Degradado_sin_nombre_85-88" x1="117.55" y1="287.61" x2="140.84" y2="287.61" xlink:href="#Degradado_sin_nombre_85"/><linearGradient id="Degradado_sin_nombre_85-89" x1="164.15" y1="287.61" x2="187.44" y2="287.61" xlink:href="#Degradado_sin_nombre_85"/><linearGradient id="Degradado_sin_nombre_85-90" x1="210.74" y1="287.61" x2="234.03" y2="287.61" xlink:href="#Degradado_sin_nombre_85"/><linearGradient id="Degradado_sin_nombre_85-91" x1="257.33" y1="287.61" x2="280.62" y2="287.61" xlink:href="#Degradado_sin_nombre_85"/><linearGradient id="Degradado_sin_nombre_85-92" x1="303.93" y1="287.61" x2="327.22" y2="287.61" xlink:href="#Degradado_sin_nombre_85"/><linearGradient id="Degradado_sin_nombre_85-93" x1="94.26" y1="312.62" x2="117.55" y2="312.62" xlink:href="#Degradado_sin_nombre_85"/><linearGradient id="Degradado_sin_nombre_85-94" x1="140.62" y1="312.62" x2="163.91" y2="312.62" xlink:href="#Degradado_sin_nombre_85"/><linearGradient id="Degradado_sin_nombre_85-95" x1="187.09" y1="312.62" x2="210.38" y2="312.62" xlink:href="#Degradado_sin_nombre_85"/><linearGradient id="Degradado_sin_nombre_85-96" x1="233.56" y1="312.62" x2="256.85" y2="312.62" xlink:href="#Degradado_sin_nombre_85"/><linearGradient id="Degradado_sin_nombre_85-97" x1="280.03" y1="312.62" x2="303.32" y2="312.62" xlink:href="#Degradado_sin_nombre_85"/><linearGradient id="Degradado_sin_nombre_85-98" x1="117.55" y1="337.63" x2="140.84" y2="337.63" xlink:href="#Degradado_sin_nombre_85"/><linearGradient id="Degradado_sin_nombre_85-99" x1="164.15" y1="337.63" x2="187.44" y2="337.63" xlink:href="#Degradado_sin_nombre_85"/><linearGradient id="Degradado_sin_nombre_85-100" x1="210.74" y1="337.63" x2="234.03" y2="337.63" xlink:href="#Degradado_sin_nombre_85"/><linearGradient id="Degradado_sin_nombre_85-101" x1="257.33" y1="337.63" x2="280.62" y2="337.63" xlink:href="#Degradado_sin_nombre_85"/><linearGradient id="Degradado_sin_nombre_85-102" x1="303.93" y1="337.63" x2="327.22" y2="337.63" xlink:href="#Degradado_sin_nombre_85"/><linearGradient id="Degradado_sin_nombre_85-103" x1="94.26" y1="362.64" x2="117.55" y2="362.64" xlink:href="#Degradado_sin_nombre_85"/><linearGradient id="Degradado_sin_nombre_85-104" x1="140.62" y1="362.64" x2="163.91" y2="362.64" xlink:href="#Degradado_sin_nombre_85"/><linearGradient id="Degradado_sin_nombre_85-105" x1="187.09" y1="362.64" x2="210.38" y2="362.64" xlink:href="#Degradado_sin_nombre_85"/><linearGradient id="Degradado_sin_nombre_85-106" x1="233.56" y1="362.64" x2="256.85" y2="362.64" xlink:href="#Degradado_sin_nombre_85"/><linearGradient id="Degradado_sin_nombre_85-107" x1="280.03" y1="362.64" x2="303.32" y2="362.64" xlink:href="#Degradado_sin_nombre_85"/><linearGradient id="Degradado_sin_nombre_85-108" x1="117.55" y1="387.65" x2="140.84" y2="387.65" xlink:href="#Degradado_sin_nombre_85"/><linearGradient id="Degradado_sin_nombre_85-109" x1="164.15" y1="387.65" x2="187.44" y2="387.65" xlink:href="#Degradado_sin_nombre_85"/><linearGradient id="Degradado_sin_nombre_85-110" x1="210.74" y1="387.65" x2="234.03" y2="387.65" xlink:href="#Degradado_sin_nombre_85"/><linearGradient id="Degradado_sin_nombre_85-111" x1="257.33" y1="387.65" x2="280.62" y2="387.65" xlink:href="#Degradado_sin_nombre_85"/><linearGradient id="Degradado_sin_nombre_85-112" x1="303.93" y1="387.65" x2="327.22" y2="387.65" xlink:href="#Degradado_sin_nombre_85"/></defs><g id="Capa_2" data-name="Capa 2"><g id="Capa_1-2" data-name="Capa 1"><path d="M1.81,10.16V21.81H.1V10.16Z"/><path d="M10.36,13.28v8.53H8.65V13.28Z"/><path d="M18.91,0V21.81H17.19V0Z"/><path class="cls-1" d="M6.09,0V21.81H4.37V0Zm8.54,10.16V21.81H12.92V10.16Zm8.55,3.12v8.53H21.47V13.28ZM0,23.23H18.91V25H0Zm21.64,1.5a.91.91,0,0,1-.28-.68.94.94,0,0,1,.28-.69,1,1,0,0,1,.69-.27,1,1,0,0,1,1,1,.92.92,0,0,1-.29.68.91.91,0,0,1-.67.28A.94.94,0,0,1,21.64,24.73Z"/><path d="M48.28,10.16V21.81H46.57V10.16Z"/><path d="M56.83,13.28v8.53H55.11V13.28Z"/><path d="M65.38,0V21.81H63.66V0Z"/><path class="cls-2" d="M52.56,0V21.81H50.84V0ZM61.1,10.16V21.81H59.39V10.16Zm8.55,3.12v8.53H67.94V13.28Zm-23.18,10H65.38V25H46.47Zm21.64,1.5a.91.91,0,0,1-.28-.68.94.94,0,0,1,.28-.69,1,1,0,0,1,.69-.27,1,1,0,0,1,1,1,.92.92,0,0,1-.29.68.91.91,0,0,1-.67.28A.94.94,0,0,1,68.11,24.73Z"/><path d="M25.58,35.17V46.82H23.87V35.17Z"/><path d="M34.13,38.29v8.53H32.42V38.29Z"/><path d="M42.68,25V46.82H41V25Z"/><path class="cls-3" d="M29.86,25V46.82H28.14V25ZM38.4,35.17V46.82H36.69V35.17ZM47,38.29v8.53H45.24V38.29Zm-23.18,10H42.68V50H23.77Zm21.65,1.5a.92.92,0,0,1-.29-.68,1,1,0,0,1,1-1,1,1,0,0,1,.68.28.94.94,0,0,1,.28.69.91.91,0,0,1-.28.68.93.93,0,0,1-.68.28A.91.91,0,0,1,45.42,49.74Z"/><path d="M72.18,35.17V46.82H70.46V35.17Z"/><path d="M80.72,38.29v8.53H79V38.29Z"/><path d="M89.28,25V46.82H87.56V25Z"/><path class="cls-4" d="M76.46,25V46.82H74.73V25ZM85,35.17V46.82H83.29V35.17Zm8.55,3.12v8.53H91.83V38.29Zm-23.18,10H89.28V50H70.37ZM92,49.74a.92.92,0,0,1-.29-.68.94.94,0,0,1,.29-.69,1,1,0,0,1,1.36,0,.94.94,0,0,1,.29.69,1,1,0,0,1-1.65.68Z"/><path d="M1.81,60.18V71.83H.1V60.18Z"/><path d="M10.36,63.3v8.53H8.65V63.3Z"/><path d="M18.91,50V71.83H17.19V50Z"/><path class="cls-5" d="M6.09,50V71.83H4.37V50Zm8.54,10.16V71.83H12.92V60.18Zm8.55,3.12v8.53H21.47V63.3ZM0,73.24H18.91V75H0Zm21.64,1.51a.91.91,0,0,1-.28-.68.94.94,0,0,1,.28-.69,1,1,0,0,1,.69-.28,1,1,0,0,1,1,1,.92.92,0,0,1-.29.68.91.91,0,0,1-.67.28A.94.94,0,0,1,21.64,74.75Z"/><path d="M48.28,60.18V71.83H46.57V60.18Z"/><path d="M56.83,63.3v8.53H55.11V63.3Z"/><path d="M65.38,50V71.83H63.66V50Z"/><path class="cls-6" d="M52.56,50V71.83H50.84V50ZM61.1,60.18V71.83H59.39V60.18Zm8.55,3.12v8.53H67.94V63.3ZM46.47,73.24H65.38V75H46.47Zm21.64,1.51a.91.91,0,0,1-.28-.68.94.94,0,0,1,.28-.69,1,1,0,0,1,.69-.28,1,1,0,0,1,1,1,.92.92,0,0,1-.29.68.91.91,0,0,1-.67.28A.94.94,0,0,1,68.11,74.75Z"/><path d="M25.58,85.19V96.84H23.87V85.19Z"/><path d="M34.13,88.31v8.53H32.42V88.31Z"/><path d="M42.68,75V96.84H41V75Z"/><path class="cls-7" d="M29.86,75V96.84H28.14V75ZM38.4,85.19V96.84H36.69V85.19ZM47,88.31v8.53H45.24V88.31ZM23.77,98.25H42.68V100H23.77Zm21.65,1.51a.92.92,0,0,1-.29-.68,1,1,0,0,1,1-1,1,1,0,0,1,.68.28.94.94,0,0,1,.28.69.91.91,0,0,1-.28.68,1,1,0,0,1-.68.28A1,1,0,0,1,45.42,99.76Z"/><path d="M72.18,85.19V96.84H70.46V85.19Z"/><path d="M80.72,88.31v8.53H79V88.31Z"/><path d="M89.28,75V96.84H87.56V75Z"/><path class="cls-8" d="M76.46,75V96.84H74.73V75ZM85,85.19V96.84H83.29V85.19Zm8.55,3.12v8.53H91.83V88.31ZM70.37,98.25H89.28V100H70.37ZM92,99.76a.92.92,0,0,1-.29-.68.94.94,0,0,1,.29-.69,1,1,0,0,1,1.36,0,.94.94,0,0,1,.29.69.92.92,0,0,1-.29.68,1,1,0,0,1-1.36,0Z"/><path d="M1.81,110.2v11.65H.1V110.2Z"/><path d="M10.36,113.32v8.53H8.65v-8.53Z"/><path d="M18.91,100v21.81H17.19V100Z"/><path class="cls-9" d="M6.09,100v21.81H4.37V100Zm8.54,10.16v11.65H12.92V110.2Zm8.55,3.12v8.53H21.47v-8.53ZM0,123.26H18.91V125H0Zm21.64,1.51a1,1,0,0,1,0-1.37,1,1,0,0,1,.69-.28,1,1,0,0,1,0,1.93A1,1,0,0,1,21.64,124.77Z"/><path d="M48.28,110.2v11.65H46.57V110.2Z"/><path d="M56.83,113.32v8.53H55.11v-8.53Z"/><path d="M65.38,100v21.81H63.66V100Z"/><path class="cls-10" d="M52.56,100v21.81H50.84V100ZM61.1,110.2v11.65H59.39V110.2Zm8.55,3.12v8.53H67.94v-8.53Zm-23.18,9.94H65.38V125H46.47Zm21.64,1.51a1,1,0,0,1,0-1.37,1,1,0,0,1,.69-.28,1,1,0,0,1,0,1.93A1,1,0,0,1,68.11,124.77Z"/><path d="M25.58,135.21v11.65H23.87V135.21Z"/><path d="M34.13,138.33v8.53H32.42v-8.53Z"/><path d="M42.68,125.05v21.81H41V125.05Z"/><path class="cls-11" d="M29.86,125.05v21.81H28.14V125.05Zm8.54,10.16v11.65H36.69V135.21ZM47,138.33v8.53H45.24v-8.53Zm-23.18,9.94H42.68V150H23.77Zm21.65,1.51a.94.94,0,0,1-.29-.69.92.92,0,0,1,.29-.68,1,1,0,0,1,.68-.28,1,1,0,0,1,.68.28.91.91,0,0,1,.28.68.94.94,0,0,1-.28.69,1,1,0,0,1-.68.28A1,1,0,0,1,45.42,149.78Z"/><path d="M72.18,135.21v11.65H70.46V135.21Z"/><path d="M80.72,138.33v8.53H79v-8.53Z"/><path d="M89.28,125.05v21.81H87.56V125.05Z"/><path class="cls-12" d="M76.46,125.05v21.81H74.73V125.05ZM85,135.21v11.65H83.29V135.21Zm8.55,3.12v8.53H91.83v-8.53Zm-23.18,9.94H89.28V150H70.37ZM92,149.78a.94.94,0,0,1-.29-.69.92.92,0,0,1,.29-.68,1,1,0,0,1,1.36,0,.92.92,0,0,1,.29.68.94.94,0,0,1-.29.69,1,1,0,0,1-1.36,0Z"/><path d="M1.81,160.22v11.65H.1V160.22Z"/><path d="M10.36,163.34v8.53H8.65v-8.53Z"/><path d="M18.91,150.06v21.81H17.19V150.06Z"/><path class="cls-13" d="M6.09,150.06v21.81H4.37V150.06Zm8.54,10.16v11.65H12.92V160.22Zm8.55,3.12v8.53H21.47v-8.53ZM0,173.28H18.91V175H0Zm21.64,1.51a.94.94,0,0,1-.28-.69.91.91,0,0,1,.28-.68.94.94,0,0,1,.69-.28.91.91,0,0,1,.67.28.92.92,0,0,1,.29.68,1,1,0,0,1-1,1A1,1,0,0,1,21.64,174.79Z"/><path d="M48.28,160.22v11.65H46.57V160.22Z"/><path d="M56.83,163.34v8.53H55.11v-8.53Z"/><path d="M65.38,150.06v21.81H63.66V150.06Z"/><path class="cls-14" d="M52.56,150.06v21.81H50.84V150.06Zm8.54,10.16v11.65H59.39V160.22Zm8.55,3.12v8.53H67.94v-8.53Zm-23.18,9.94H65.38V175H46.47Zm21.64,1.51a.94.94,0,0,1-.28-.69.91.91,0,0,1,.28-.68.94.94,0,0,1,.69-.28.91.91,0,0,1,.67.28.92.92,0,0,1,.29.68,1,1,0,0,1-1,1A1,1,0,0,1,68.11,174.79Z"/><path d="M25.58,185.23v11.65H23.87V185.23Z"/><path d="M34.13,188.35v8.53H32.42v-8.53Z"/><path d="M42.68,175.07v21.81H41V175.07Z"/><path class="cls-15" d="M29.86,175.07v21.81H28.14V175.07Zm8.54,10.16v11.65H36.69V185.23ZM47,188.35v8.53H45.24v-8.53Zm-23.18,9.94H42.68V200H23.77Zm21.65,1.51a.94.94,0,0,1-.29-.69.92.92,0,0,1,.29-.68.91.91,0,0,1,.68-.28.93.93,0,0,1,.68.28.91.91,0,0,1,.28.68.94.94,0,0,1-.28.69,1,1,0,0,1-.68.28A1,1,0,0,1,45.42,199.8Z"/><path d="M72.18,185.23v11.65H70.46V185.23Z"/><path d="M80.72,188.35v8.53H79v-8.53Z"/><path d="M89.28,175.07v21.81H87.56V175.07Z"/><path class="cls-16" d="M76.46,175.07v21.81H74.73V175.07ZM85,185.23v11.65H83.29V185.23Zm8.55,3.12v8.53H91.83v-8.53Zm-23.18,9.94H89.28V200H70.37ZM92,199.8a.94.94,0,0,1-.29-.69,1,1,0,0,1,1.94,0,.94.94,0,0,1-.29.69,1,1,0,0,1-1.36,0Z"/><path d="M96.07,10.16V21.81H94.36V10.16Z"/><path d="M104.62,13.28v8.53h-1.71V13.28Z"/><path d="M113.17,0V21.81h-1.72V0Z"/><path class="cls-17" d="M100.35,0V21.81H98.63V0Zm8.55,10.16V21.81h-1.72V10.16Zm8.54,3.12v8.53h-1.71V13.28Zm-23.18,10h18.91V25H94.26Zm21.65,1.5a.92.92,0,0,1-.29-.68,1,1,0,0,1,1-1,1,1,0,0,1,.68.27.94.94,0,0,1,.28.69.91.91,0,0,1-.28.68.93.93,0,0,1-.68.28A.91.91,0,0,1,115.91,24.73Z"/><path d="M142.43,10.16V21.81h-1.71V10.16Z"/><path d="M151,13.28v8.53h-1.71V13.28Z"/><path d="M159.53,0V21.81h-1.72V0Z"/><path class="cls-18" d="M146.71,0V21.81H145V0Zm8.55,10.16V21.81h-1.72V10.16Zm8.54,3.12v8.53h-1.71V13.28Zm-23.18,10h18.91V25H140.62Zm21.65,1.5a.92.92,0,0,1-.29-.68.94.94,0,0,1,.29-.69,1,1,0,0,1,1.36,0,.94.94,0,0,1,.28.69.91.91,0,0,1-.28.68,1,1,0,0,1-1.36,0Z"/><path d="M188.9,10.16V21.81h-1.71V10.16Z"/><path d="M197.45,13.28v8.53h-1.71V13.28Z"/><path d="M206,0V21.81h-1.72V0Z"/><path class="cls-19" d="M193.18,0V21.81h-1.72V0Zm8.55,10.16V21.81H200V10.16Zm8.54,3.12v8.53h-1.71V13.28Zm-23.18,10H206V25H187.09Zm21.65,1.5a.92.92,0,0,1-.29-.68,1,1,0,0,1,1-1,1,1,0,0,1,.68.27.94.94,0,0,1,.28.69.91.91,0,0,1-.28.68.93.93,0,0,1-.68.28A.91.91,0,0,1,208.74,24.73Z"/><path d="M235.37,10.16V21.81h-1.71V10.16Z"/><path d="M243.92,13.28v8.53h-1.71V13.28Z"/><path d="M252.47,0V21.81h-1.72V0Z"/><path class="cls-20" d="M239.65,0V21.81h-1.72V0Zm8.55,10.16V21.81h-1.72V10.16Zm8.54,3.12v8.53H255V13.28Zm-23.18,10h18.91V25H233.56Zm21.65,1.5a.92.92,0,0,1-.29-.68,1,1,0,0,1,1-1,1,1,0,0,1,.68.27.94.94,0,0,1,.28.69.91.91,0,0,1-.28.68.93.93,0,0,1-.68.28A.91.91,0,0,1,255.21,24.73Z"/><path d="M281.84,10.16V21.81h-1.71V10.16Z"/><path d="M290.39,13.28v8.53h-1.71V13.28Z"/><path d="M298.94,0V21.81h-1.72V0Z"/><path class="cls-21" d="M286.12,0V21.81H284.4V0Zm8.55,10.16V21.81H293V10.16Zm8.54,3.12v8.53H301.5V13.28ZM280,23.23h18.91V25H280Zm21.65,1.5a.92.92,0,0,1-.29-.68,1,1,0,0,1,1-1,1,1,0,0,1,.68.27.94.94,0,0,1,.28.69.91.91,0,0,1-.28.68.93.93,0,0,1-.68.28A.91.91,0,0,1,301.68,24.73Z"/><path d="M119.36,35.17V46.82h-1.71V35.17Z"/><path d="M127.91,38.29v8.53H126.2V38.29Z"/><path d="M136.46,25V46.82h-1.72V25Z"/><path class="cls-22" d="M123.64,25V46.82h-1.72V25Zm8.54,10.16V46.82h-1.71V35.17Zm8.55,3.12v8.53H139V38.29Zm-23.18,10h18.91V50H117.55Zm21.65,1.5a.92.92,0,0,1-.29-.68,1,1,0,0,1,1-1,1,1,0,0,1,.68.28.94.94,0,0,1,.28.69.91.91,0,0,1-.28.68.93.93,0,0,1-.68.28A.91.91,0,0,1,139.2,49.74Z"/><path d="M166,35.17V46.82h-1.72V35.17Z"/><path d="M174.51,38.29v8.53h-1.72V38.29Z"/><path d="M183.06,25V46.82h-1.72V25Z"/><path class="cls-23" d="M170.24,25V46.82h-1.73V25Zm8.54,10.16V46.82h-1.71V35.17Zm8.55,3.12v8.53h-1.72V38.29Zm-23.18,10h18.91V50H164.15Zm21.64,1.5a.92.92,0,0,1-.29-.68.94.94,0,0,1,.29-.69,1,1,0,0,1,1.36,0,.94.94,0,0,1,.29.69,1,1,0,0,1-1.65.68Z"/><path d="M212.55,35.17V46.82h-1.71V35.17Z"/><path d="M221.1,38.29v8.53h-1.71V38.29Z"/><path d="M229.65,25V46.82h-1.72V25Z"/><path class="cls-24" d="M216.83,25V46.82h-1.72V25Zm8.54,10.16V46.82h-1.71V35.17Zm8.55,3.12v8.53h-1.71V38.29Zm-23.18,10h18.91V50H210.74Zm21.64,1.5a.91.91,0,0,1-.28-.68.94.94,0,0,1,.28-.69,1,1,0,0,1,.69-.28,1,1,0,0,1,1,1,.92.92,0,0,1-.29.68.91.91,0,0,1-.67.28A.94.94,0,0,1,232.38,49.74Z"/><path d="M259.15,35.17V46.82h-1.72V35.17Z"/><path d="M267.69,38.29v8.53H266V38.29Z"/><path d="M276.25,25V46.82h-1.73V25Z"/><path class="cls-25" d="M263.42,25V46.82H261.7V25ZM272,35.17V46.82h-1.72V35.17Zm8.55,3.12v8.53H278.8V38.29Zm-23.19,10h18.92V50H257.33ZM279,49.74a.92.92,0,0,1-.29-.68.94.94,0,0,1,.29-.69,1,1,0,0,1,1.36,0,.94.94,0,0,1,.28.69.91.91,0,0,1-.28.68,1,1,0,0,1-1.36,0Z"/><path d="M305.74,35.17V46.82H304V35.17Z"/><path d="M314.29,38.29v8.53h-1.72V38.29Z"/><path d="M322.84,25V46.82h-1.72V25Z"/><path class="cls-26" d="M310,25V46.82H308.3V25Zm8.54,10.16V46.82h-1.71V35.17Zm8.55,3.12v8.53H325.4V38.29Zm-23.18,10h18.91V50H303.93Zm21.64,1.5a.91.91,0,0,1-.28-.68.94.94,0,0,1,.28-.69,1,1,0,0,1,.69-.28,1,1,0,0,1,1,1,.92.92,0,0,1-.29.68.91.91,0,0,1-.67.28A.94.94,0,0,1,325.57,49.74Z"/><path d="M96.07,60.18V71.83H94.36V60.18Z"/><path d="M104.62,63.3v8.53h-1.71V63.3Z"/><path d="M113.17,50V71.83h-1.72V50Z"/><path class="cls-27" d="M100.35,50V71.83H98.63V50Zm8.55,10.16V71.83h-1.72V60.18Zm8.54,3.12v8.53h-1.71V63.3ZM94.26,73.24h18.91V75H94.26Zm21.65,1.51a.92.92,0,0,1-.29-.68,1,1,0,0,1,1-1,1,1,0,0,1,.68.28.94.94,0,0,1,.28.69.91.91,0,0,1-.28.68.93.93,0,0,1-.68.28A.91.91,0,0,1,115.91,74.75Z"/><path d="M142.43,60.18V71.83h-1.71V60.18Z"/><path d="M151,63.3v8.53h-1.71V63.3Z"/><path d="M159.53,50V71.83h-1.72V50Z"/><path class="cls-28" d="M146.71,50V71.83H145V50Zm8.55,10.16V71.83h-1.72V60.18Zm8.54,3.12v8.53h-1.71V63.3Zm-23.18,9.94h18.91V75H140.62Zm21.65,1.51a.92.92,0,0,1-.29-.68.94.94,0,0,1,.29-.69,1,1,0,0,1,1.36,0,.94.94,0,0,1,.28.69.91.91,0,0,1-.28.68,1,1,0,0,1-1.36,0Z"/><path d="M188.9,60.18V71.83h-1.71V60.18Z"/><path d="M197.45,63.3v8.53h-1.71V63.3Z"/><path d="M206,50V71.83h-1.72V50Z"/><path class="cls-29" d="M193.18,50V71.83h-1.72V50Zm8.55,10.16V71.83H200V60.18Zm8.54,3.12v8.53h-1.71V63.3Zm-23.18,9.94H206V75H187.09Zm21.65,1.51a.92.92,0,0,1-.29-.68,1,1,0,0,1,1-1,1,1,0,0,1,.68.28.94.94,0,0,1,.28.69.91.91,0,0,1-.28.68.93.93,0,0,1-.68.28A.91.91,0,0,1,208.74,74.75Z"/><path d="M235.37,60.18V71.83h-1.71V60.18Z"/><path d="M243.92,63.3v8.53h-1.71V63.3Z"/><path d="M252.47,50V71.83h-1.72V50Z"/><path class="cls-30" d="M239.65,50V71.83h-1.72V50Zm8.55,10.16V71.83h-1.72V60.18Zm8.54,3.12v8.53H255V63.3Zm-23.18,9.94h18.91V75H233.56Zm21.65,1.51a.92.92,0,0,1-.29-.68,1,1,0,0,1,1-1,1,1,0,0,1,.68.28.94.94,0,0,1,.28.69.91.91,0,0,1-.28.68.93.93,0,0,1-.68.28A.91.91,0,0,1,255.21,74.75Z"/><path d="M281.84,60.18V71.83h-1.71V60.18Z"/><path d="M290.39,63.3v8.53h-1.71V63.3Z"/><path d="M298.94,50V71.83h-1.72V50Z"/><path class="cls-31" d="M286.12,50V71.83H284.4V50Zm8.55,10.16V71.83H293V60.18Zm8.54,3.12v8.53H301.5V63.3ZM280,73.24h18.91V75H280Zm21.65,1.51a.92.92,0,0,1-.29-.68,1,1,0,0,1,1-1,1,1,0,0,1,.68.28.94.94,0,0,1,.28.69.91.91,0,0,1-.28.68.93.93,0,0,1-.68.28A.91.91,0,0,1,301.68,74.75Z"/><path d="M119.36,85.19V96.84h-1.71V85.19Z"/><path d="M127.91,88.31v8.53H126.2V88.31Z"/><path d="M136.46,75V96.84h-1.72V75Z"/><path class="cls-32" d="M123.64,75V96.84h-1.72V75Zm8.54,10.16V96.84h-1.71V85.19Zm8.55,3.12v8.53H139V88.31Zm-23.18,9.94h18.91V100H117.55Zm21.65,1.51a.92.92,0,0,1-.29-.68,1,1,0,0,1,1-1,1,1,0,0,1,.68.28.94.94,0,0,1,.28.69.91.91,0,0,1-.28.68,1,1,0,0,1-.68.28A1,1,0,0,1,139.2,99.76Z"/><path d="M166,85.19V96.84h-1.72V85.19Z"/><path d="M174.51,88.31v8.53h-1.72V88.31Z"/><path d="M183.06,75V96.84h-1.72V75Z"/><path class="cls-33" d="M170.24,75V96.84h-1.73V75Zm8.54,10.16V96.84h-1.71V85.19Zm8.55,3.12v8.53h-1.72V88.31Zm-23.18,9.94h18.91V100H164.15Zm21.64,1.51a.92.92,0,0,1-.29-.68.94.94,0,0,1,.29-.69,1,1,0,0,1,1.36,0,.94.94,0,0,1,.29.69.92.92,0,0,1-.29.68,1,1,0,0,1-1.36,0Z"/><path d="M212.55,85.19V96.84h-1.71V85.19Z"/><path d="M221.1,88.31v8.53h-1.71V88.31Z"/><path d="M229.65,75V96.84h-1.72V75Z"/><path class="cls-34" d="M216.83,75V96.84h-1.72V75Zm8.54,10.16V96.84h-1.71V85.19Zm8.55,3.12v8.53h-1.71V88.31Zm-23.18,9.94h18.91V100H210.74Zm21.64,1.51a.91.91,0,0,1-.28-.68.94.94,0,0,1,.28-.69,1,1,0,0,1,.69-.28,1,1,0,0,1,1,1,.92.92,0,0,1-.29.68,1,1,0,0,1-.67.28A1,1,0,0,1,232.38,99.76Z"/><path d="M259.15,85.19V96.84h-1.72V85.19Z"/><path d="M267.69,88.31v8.53H266V88.31Z"/><path d="M276.25,75V96.84h-1.73V75Z"/><path class="cls-35" d="M263.42,75V96.84H261.7V75ZM272,85.19V96.84h-1.72V85.19Zm8.55,3.12v8.53H278.8V88.31Zm-23.19,9.94h18.92V100H257.33ZM279,99.76a.92.92,0,0,1-.29-.68.94.94,0,0,1,.29-.69,1,1,0,0,1,1.36,0,.94.94,0,0,1,.28.69.91.91,0,0,1-.28.68,1,1,0,0,1-1.36,0Z"/><path d="M305.74,85.19V96.84H304V85.19Z"/><path d="M314.29,88.31v8.53h-1.72V88.31Z"/><path d="M322.84,75V96.84h-1.72V75Z"/><path class="cls-36" d="M310,75V96.84H308.3V75Zm8.54,10.16V96.84h-1.71V85.19Zm8.55,3.12v8.53H325.4V88.31Zm-23.18,9.94h18.91V100H303.93Zm21.64,1.51a.91.91,0,0,1-.28-.68.94.94,0,0,1,.28-.69,1,1,0,0,1,.69-.28,1,1,0,0,1,1,1,.92.92,0,0,1-.29.68,1,1,0,0,1-.67.28A1,1,0,0,1,325.57,99.76Z"/><path d="M96.07,110.2v11.65H94.36V110.2Z"/><path d="M104.62,113.32v8.53h-1.71v-8.53Z"/><path d="M113.17,100v21.81h-1.72V100Z"/><path class="cls-37" d="M100.35,100v21.81H98.63V100Zm8.55,10.16v11.65h-1.72V110.2Zm8.54,3.12v8.53h-1.71v-8.53Zm-23.18,9.94h18.91V125H94.26Zm21.65,1.51a1,1,0,0,1,0-1.37,1,1,0,0,1,.68-.28,1,1,0,0,1,.68.28,1,1,0,0,1,0,1.37,1,1,0,0,1-.68.28A1,1,0,0,1,115.91,124.77Z"/><path d="M142.43,110.2v11.65h-1.71V110.2Z"/><path d="M151,113.32v8.53h-1.71v-8.53Z"/><path d="M159.53,100v21.81h-1.72V100Z"/><path class="cls-38" d="M146.71,100v21.81H145V100Zm8.55,10.16v11.65h-1.72V110.2Zm8.54,3.12v8.53h-1.71v-8.53Zm-23.18,9.94h18.91V125H140.62Zm21.65,1.51a1,1,0,0,1,0-1.37,1,1,0,0,1,1.36,0,1,1,0,0,1,0,1.37,1,1,0,0,1-1.36,0Z"/><path d="M188.9,110.2v11.65h-1.71V110.2Z"/><path d="M197.45,113.32v8.53h-1.71v-8.53Z"/><path d="M206,100v21.81h-1.72V100Z"/><path class="cls-39" d="M193.18,100v21.81h-1.72V100Zm8.55,10.16v11.65H200V110.2Zm8.54,3.12v8.53h-1.71v-8.53Zm-23.18,9.94H206V125H187.09Zm21.65,1.51a1,1,0,0,1,0-1.37,1,1,0,0,1,.68-.28,1,1,0,0,1,.68.28,1,1,0,0,1,0,1.37,1,1,0,0,1-.68.28A1,1,0,0,1,208.74,124.77Z"/><path d="M235.37,110.2v11.65h-1.71V110.2Z"/><path d="M243.92,113.32v8.53h-1.71v-8.53Z"/><path d="M252.47,100v21.81h-1.72V100Z"/><path class="cls-40" d="M239.65,100v21.81h-1.72V100Zm8.55,10.16v11.65h-1.72V110.2Zm8.54,3.12v8.53H255v-8.53Zm-23.18,9.94h18.91V125H233.56Zm21.65,1.51a1,1,0,0,1,0-1.37,1,1,0,0,1,.68-.28,1,1,0,0,1,.68.28,1,1,0,0,1,0,1.37,1,1,0,0,1-.68.28A1,1,0,0,1,255.21,124.77Z"/><path d="M281.84,110.2v11.65h-1.71V110.2Z"/><path d="M290.39,113.32v8.53h-1.71v-8.53Z"/><path d="M298.94,100v21.81h-1.72V100Z"/><path class="cls-41" d="M286.12,100v21.81H284.4V100Zm8.55,10.16v11.65H293V110.2Zm8.54,3.12v8.53H301.5v-8.53ZM280,123.26h18.91V125H280Zm21.65,1.51a1,1,0,0,1,0-1.37,1,1,0,0,1,.68-.28,1,1,0,0,1,.68.28,1,1,0,0,1,0,1.37,1,1,0,0,1-.68.28A1,1,0,0,1,301.68,124.77Z"/><path d="M119.36,135.21v11.65h-1.71V135.21Z"/><path d="M127.91,138.33v8.53H126.2v-8.53Z"/><path d="M136.46,125.05v21.81h-1.72V125.05Z"/><path class="cls-42" d="M123.64,125.05v21.81h-1.72V125.05Zm8.54,10.16v11.65h-1.71V135.21Zm8.55,3.12v8.53H139v-8.53Zm-23.18,9.94h18.91V150H117.55Zm21.65,1.51a.94.94,0,0,1-.29-.69.92.92,0,0,1,.29-.68,1,1,0,0,1,.68-.28,1,1,0,0,1,.68.28.91.91,0,0,1,.28.68.94.94,0,0,1-.28.69,1,1,0,0,1-.68.28A1,1,0,0,1,139.2,149.78Z"/><path d="M166,135.21v11.65h-1.72V135.21Z"/><path d="M174.51,138.33v8.53h-1.72v-8.53Z"/><path d="M183.06,125.05v21.81h-1.72V125.05Z"/><path class="cls-43" d="M170.24,125.05v21.81h-1.73V125.05Zm8.54,10.16v11.65h-1.71V135.21Zm8.55,3.12v8.53h-1.72v-8.53Zm-23.18,9.94h18.91V150H164.15Zm21.64,1.51a.94.94,0,0,1-.29-.69.92.92,0,0,1,.29-.68,1,1,0,0,1,1.36,0,.92.92,0,0,1,.29.68.94.94,0,0,1-.29.69,1,1,0,0,1-1.36,0Z"/><path d="M212.55,135.21v11.65h-1.71V135.21Z"/><path d="M221.1,138.33v8.53h-1.71v-8.53Z"/><path d="M229.65,125.05v21.81h-1.72V125.05Z"/><path class="cls-44" d="M216.83,125.05v21.81h-1.72V125.05Zm8.54,10.16v11.65h-1.71V135.21Zm8.55,3.12v8.53h-1.71v-8.53Zm-23.18,9.94h18.91V150H210.74Zm21.64,1.51a.94.94,0,0,1-.28-.69.91.91,0,0,1,.28-.68,1,1,0,0,1,.69-.28,1,1,0,0,1,.67.28.92.92,0,0,1,.29.68,1,1,0,0,1-1,1A1,1,0,0,1,232.38,149.78Z"/><path d="M259.15,135.21v11.65h-1.72V135.21Z"/><path d="M267.69,138.33v8.53H266v-8.53Z"/><path d="M276.25,125.05v21.81h-1.73V125.05Z"/><path class="cls-45" d="M263.42,125.05v21.81H261.7V125.05ZM272,135.21v11.65h-1.72V135.21Zm8.55,3.12v8.53H278.8v-8.53Zm-23.19,9.94h18.92V150H257.33ZM279,149.78a.94.94,0,0,1-.29-.69.92.92,0,0,1,.29-.68,1,1,0,0,1,1.36,0,.91.91,0,0,1,.28.68.94.94,0,0,1-.28.69,1,1,0,0,1-1.36,0Z"/><path d="M305.74,135.21v11.65H304V135.21Z"/><path d="M314.29,138.33v8.53h-1.72v-8.53Z"/><path d="M322.84,125.05v21.81h-1.72V125.05Z"/><path class="cls-46" d="M310,125.05v21.81H308.3V125.05Zm8.54,10.16v11.65h-1.71V135.21Zm8.55,3.12v8.53H325.4v-8.53Zm-23.18,9.94h18.91V150H303.93Zm21.64,1.51a.94.94,0,0,1-.28-.69.91.91,0,0,1,.28-.68,1,1,0,0,1,.69-.28,1,1,0,0,1,.67.28.92.92,0,0,1,.29.68,1,1,0,0,1-1,1A1,1,0,0,1,325.57,149.78Z"/><path d="M96.07,160.22v11.65H94.36V160.22Z"/><path d="M104.62,163.34v8.53h-1.71v-8.53Z"/><path d="M113.17,150.06v21.81h-1.72V150.06Z"/><path class="cls-47" d="M100.35,150.06v21.81H98.63V150.06Zm8.55,10.16v11.65h-1.72V160.22Zm8.54,3.12v8.53h-1.71v-8.53Zm-23.18,9.94h18.91V175H94.26Zm21.65,1.51a.94.94,0,0,1-.29-.69.92.92,0,0,1,.29-.68.91.91,0,0,1,.68-.28.93.93,0,0,1,.68.28.91.91,0,0,1,.28.68.94.94,0,0,1-.28.69,1,1,0,0,1-.68.28A1,1,0,0,1,115.91,174.79Z"/><path d="M142.43,160.22v11.65h-1.71V160.22Z"/><path d="M151,163.34v8.53h-1.71v-8.53Z"/><path d="M159.53,150.06v21.81h-1.72V150.06Z"/><path class="cls-48" d="M146.71,150.06v21.81H145V150.06Zm8.55,10.16v11.65h-1.72V160.22Zm8.54,3.12v8.53h-1.71v-8.53Zm-23.18,9.94h18.91V175H140.62Zm21.65,1.51a.94.94,0,0,1-.29-.69,1,1,0,0,1,1.65-.68.91.91,0,0,1,.28.68.94.94,0,0,1-.28.69,1,1,0,0,1-1.36,0Z"/><path d="M188.9,160.22v11.65h-1.71V160.22Z"/><path d="M197.45,163.34v8.53h-1.71v-8.53Z"/><path d="M206,150.06v21.81h-1.72V150.06Z"/><path class="cls-49" d="M193.18,150.06v21.81h-1.72V150.06Zm8.55,10.16v11.65H200V160.22Zm8.54,3.12v8.53h-1.71v-8.53Zm-23.18,9.94H206V175H187.09Zm21.65,1.51a.94.94,0,0,1-.29-.69.92.92,0,0,1,.29-.68.91.91,0,0,1,.68-.28.93.93,0,0,1,.68.28.91.91,0,0,1,.28.68.94.94,0,0,1-.28.69,1,1,0,0,1-.68.28A1,1,0,0,1,208.74,174.79Z"/><path d="M235.37,160.22v11.65h-1.71V160.22Z"/><path d="M243.92,163.34v8.53h-1.71v-8.53Z"/><path d="M252.47,150.06v21.81h-1.72V150.06Z"/><path class="cls-50" d="M239.65,150.06v21.81h-1.72V150.06Zm8.55,10.16v11.65h-1.72V160.22Zm8.54,3.12v8.53H255v-8.53Zm-23.18,9.94h18.91V175H233.56Zm21.65,1.51a.94.94,0,0,1-.29-.69.92.92,0,0,1,.29-.68.91.91,0,0,1,.68-.28.93.93,0,0,1,.68.28.91.91,0,0,1,.28.68.94.94,0,0,1-.28.69,1,1,0,0,1-.68.28A1,1,0,0,1,255.21,174.79Z"/><path d="M281.84,160.22v11.65h-1.71V160.22Z"/><path d="M290.39,163.34v8.53h-1.71v-8.53Z"/><path d="M298.94,150.06v21.81h-1.72V150.06Z"/><path class="cls-51" d="M286.12,150.06v21.81H284.4V150.06Zm8.55,10.16v11.65H293V160.22Zm8.54,3.12v8.53H301.5v-8.53ZM280,173.28h18.91V175H280Zm21.65,1.51a.94.94,0,0,1-.29-.69.92.92,0,0,1,.29-.68.91.91,0,0,1,.68-.28.93.93,0,0,1,.68.28.91.91,0,0,1,.28.68.94.94,0,0,1-.28.69,1,1,0,0,1-.68.28A1,1,0,0,1,301.68,174.79Z"/><path d="M119.36,185.23v11.65h-1.71V185.23Z"/><path d="M127.91,188.35v8.53H126.2v-8.53Z"/><path d="M136.46,175.07v21.81h-1.72V175.07Z"/><path class="cls-52" d="M123.64,175.07v21.81h-1.72V175.07Zm8.54,10.16v11.65h-1.71V185.23Zm8.55,3.12v8.53H139v-8.53Zm-23.18,9.94h18.91V200H117.55Zm21.65,1.51a.94.94,0,0,1-.29-.69.92.92,0,0,1,.29-.68.91.91,0,0,1,.68-.28.93.93,0,0,1,.68.28.91.91,0,0,1,.28.68.94.94,0,0,1-.28.69,1,1,0,0,1-.68.28A1,1,0,0,1,139.2,199.8Z"/><path d="M166,185.23v11.65h-1.72V185.23Z"/><path d="M174.51,188.35v8.53h-1.72v-8.53Z"/><path d="M183.06,175.07v21.81h-1.72V175.07Z"/><path class="cls-53" d="M170.24,175.07v21.81h-1.73V175.07Zm8.54,10.16v11.65h-1.71V185.23Zm8.55,3.12v8.53h-1.72v-8.53Zm-23.18,9.94h18.91V200H164.15Zm21.64,1.51a.94.94,0,0,1-.29-.69,1,1,0,0,1,1.94,0,.94.94,0,0,1-.29.69,1,1,0,0,1-1.36,0Z"/><path d="M212.55,185.23v11.65h-1.71V185.23Z"/><path d="M221.1,188.35v8.53h-1.71v-8.53Z"/><path d="M229.65,175.07v21.81h-1.72V175.07Z"/><path class="cls-54" d="M216.83,175.07v21.81h-1.72V175.07Zm8.54,10.16v11.65h-1.71V185.23Zm8.55,3.12v8.53h-1.71v-8.53Zm-23.18,9.94h18.91V200H210.74Zm21.64,1.51a.94.94,0,0,1-.28-.69.91.91,0,0,1,.28-.68.94.94,0,0,1,.69-.28.91.91,0,0,1,.67.28.92.92,0,0,1,.29.68,1,1,0,0,1-1,1A1,1,0,0,1,232.38,199.8Z"/><path d="M259.15,185.23v11.65h-1.72V185.23Z"/><path d="M267.69,188.35v8.53H266v-8.53Z"/><path d="M276.25,175.07v21.81h-1.73V175.07Z"/><path class="cls-55" d="M263.42,175.07v21.81H261.7V175.07ZM272,185.23v11.65h-1.72V185.23Zm8.55,3.12v8.53H278.8v-8.53Zm-23.19,9.94h18.92V200H257.33ZM279,199.8a.94.94,0,0,1-.29-.69,1,1,0,0,1,1.65-.68.91.91,0,0,1,.28.68.94.94,0,0,1-.28.69,1,1,0,0,1-1.36,0Z"/><path d="M305.74,185.23v11.65H304V185.23Z"/><path d="M314.29,188.35v8.53h-1.72v-8.53Z"/><path d="M322.84,175.07v21.81h-1.72V175.07Z"/><path class="cls-56" d="M310,175.07v21.81H308.3V175.07Zm8.54,10.16v11.65h-1.71V185.23Zm8.55,3.12v8.53H325.4v-8.53Zm-23.18,9.94h18.91V200H303.93Zm21.64,1.51a.94.94,0,0,1-.28-.69.91.91,0,0,1,.28-.68.94.94,0,0,1,.69-.28.91.91,0,0,1,.67.28.92.92,0,0,1,.29.68,1,1,0,0,1-1,1A1,1,0,0,1,325.57,199.8Z"/><path d="M1.81,210.24v11.64H.1V210.24Z"/><path d="M10.36,213.36v8.52H8.65v-8.52Z"/><path d="M18.91,200.08v21.8H17.19v-21.8Z"/><path class="cls-57" d="M6.09,200.08v21.8H4.37v-21.8Zm8.54,10.16v11.64H12.92V210.24Zm8.55,3.12v8.52H21.47v-8.52ZM0,223.3H18.91V225H0Zm21.64,1.51a.94.94,0,0,1-.28-.69.91.91,0,0,1,.28-.68.94.94,0,0,1,.69-.28.91.91,0,0,1,.67.28.92.92,0,0,1,.29.68,1,1,0,0,1-1,1A1,1,0,0,1,21.64,224.81Z"/><path d="M48.28,210.24v11.64H46.57V210.24Z"/><path d="M56.83,213.36v8.52H55.11v-8.52Z"/><path d="M65.38,200.08v21.8H63.66v-21.8Z"/><path class="cls-58" d="M52.56,200.08v21.8H50.84v-21.8Zm8.54,10.16v11.64H59.39V210.24Zm8.55,3.12v8.52H67.94v-8.52ZM46.47,223.3H65.38V225H46.47Zm21.64,1.51a.94.94,0,0,1-.28-.69.91.91,0,0,1,.28-.68.94.94,0,0,1,.69-.28.91.91,0,0,1,.67.28.92.92,0,0,1,.29.68,1,1,0,0,1-1,1A1,1,0,0,1,68.11,224.81Z"/><path d="M25.58,235.25v11.64H23.87V235.25Z"/><path d="M34.13,238.37v8.52H32.42v-8.52Z"/><path d="M42.68,225.08v21.81H41V225.08Z"/><path class="cls-59" d="M29.86,225.08v21.81H28.14V225.08Zm8.54,10.17v11.64H36.69V235.25ZM47,238.37v8.52H45.24v-8.52Zm-23.18,9.94H42.68V250H23.77Zm21.65,1.51a.94.94,0,0,1-.29-.69,1,1,0,0,1,1-1,.93.93,0,0,1,.68.28.9.9,0,0,1,.28.68.94.94,0,0,1-.28.69,1,1,0,0,1-.68.27A.94.94,0,0,1,45.42,249.82Z"/><path d="M72.18,235.25v11.64H70.46V235.25Z"/><path d="M80.72,238.37v8.52H79v-8.52Z"/><path d="M89.28,225.08v21.81H87.56V225.08Z"/><path class="cls-60" d="M76.46,225.08v21.81H74.73V225.08ZM85,235.25v11.64H83.29V235.25Zm8.55,3.12v8.52H91.83v-8.52Zm-23.18,9.94H89.28V250H70.37ZM92,249.82a.94.94,0,0,1-.29-.69.91.91,0,0,1,.29-.68,1,1,0,0,1,1.36,0,.91.91,0,0,1,.29.68.94.94,0,0,1-.29.69,1,1,0,0,1-1.36,0Z"/><path d="M1.81,260.26V271.9H.1V260.26Z"/><path d="M10.36,263.38v8.52H8.65v-8.52Z"/><path d="M18.91,250.09V271.9H17.19V250.09Z"/><path class="cls-61" d="M6.09,250.09V271.9H4.37V250.09Zm8.54,10.17V271.9H12.92V260.26Zm8.55,3.12v8.52H21.47v-8.52ZM0,273.32H18.91V275H0Zm21.64,1.5a1,1,0,0,1,0-1.36.94.94,0,0,1,.69-.28,1,1,0,0,1,0,1.92A.94.94,0,0,1,21.64,274.82Z"/><path d="M48.28,260.26V271.9H46.57V260.26Z"/><path d="M56.83,263.38v8.52H55.11v-8.52Z"/><path d="M65.38,250.09V271.9H63.66V250.09Z"/><path class="cls-62" d="M52.56,250.09V271.9H50.84V250.09Zm8.54,10.17V271.9H59.39V260.26Zm8.55,3.12v8.52H67.94v-8.52Zm-23.18,9.94H65.38V275H46.47Zm21.64,1.5a1,1,0,0,1,0-1.36.94.94,0,0,1,.69-.28,1,1,0,0,1,0,1.92A.94.94,0,0,1,68.11,274.82Z"/><path d="M25.58,285.27v11.64H23.87V285.27Z"/><path d="M34.13,288.39v8.52H32.42v-8.52Z"/><path d="M42.68,275.1v21.81H41V275.1Z"/><path class="cls-63" d="M29.86,275.1v21.81H28.14V275.1Zm8.54,10.17v11.64H36.69V285.27ZM47,288.39v8.52H45.24v-8.52Zm-23.18,9.94H42.68v1.72H23.77Zm21.65,1.5a1,1,0,0,1,.68-1.64.93.93,0,0,1,.68.28,1,1,0,0,1,0,1.36.93.93,0,0,1-.68.28A.91.91,0,0,1,45.42,299.83Z"/><path d="M72.18,285.27v11.64H70.46V285.27Z"/><path d="M80.72,288.39v8.52H79v-8.52Z"/><path d="M89.28,275.1v21.81H87.56V275.1Z"/><path class="cls-64" d="M76.46,275.1v21.81H74.73V275.1ZM85,285.27v11.64H83.29V285.27Zm8.55,3.12v8.52H91.83v-8.52Zm-23.18,9.94H89.28v1.72H70.37ZM92,299.83a.94.94,0,0,1,0-1.36,1,1,0,0,1,1.36,0,.94.94,0,0,1,0,1.36,1,1,0,0,1-1.36,0Z"/><path d="M1.81,310.28v11.64H.1V310.28Z"/><path d="M10.36,313.4v8.52H8.65V313.4Z"/><path d="M18.91,300.11v21.81H17.19V300.11Z"/><path class="cls-65" d="M6.09,300.11v21.81H4.37V300.11Zm8.54,10.17v11.64H12.92V310.28Zm8.55,3.12v8.52H21.47V313.4ZM0,323.34H18.91v1.72H0Zm21.64,1.5a1,1,0,0,1,0-1.36.94.94,0,0,1,.69-.28,1,1,0,0,1,0,1.92A.94.94,0,0,1,21.64,324.84Z"/><path d="M48.28,310.28v11.64H46.57V310.28Z"/><path d="M56.83,313.4v8.52H55.11V313.4Z"/><path d="M65.38,300.11v21.81H63.66V300.11Z"/><path class="cls-66" d="M52.56,300.11v21.81H50.84V300.11Zm8.54,10.17v11.64H59.39V310.28Zm8.55,3.12v8.52H67.94V313.4Zm-23.18,9.94H65.38v1.72H46.47Zm21.64,1.5a1,1,0,0,1,0-1.36.94.94,0,0,1,.69-.28,1,1,0,0,1,0,1.92A.94.94,0,0,1,68.11,324.84Z"/><path d="M25.58,335.29v11.64H23.87V335.29Z"/><path d="M34.13,338.41v8.52H32.42v-8.52Z"/><path d="M42.68,325.12v21.81H41V325.12Z"/><path class="cls-67" d="M29.86,325.12v21.81H28.14V325.12Zm8.54,10.17v11.64H36.69V335.29ZM47,338.41v8.52H45.24v-8.52Zm-23.18,9.94H42.68v1.72H23.77Zm21.65,1.5a1,1,0,0,1,.68-1.64.93.93,0,0,1,.68.28,1,1,0,0,1,0,1.36.93.93,0,0,1-.68.28A.91.91,0,0,1,45.42,349.85Z"/><path d="M72.18,335.29v11.64H70.46V335.29Z"/><path d="M80.72,338.41v8.52H79v-8.52Z"/><path d="M89.28,325.12v21.81H87.56V325.12Z"/><path class="cls-68" d="M76.46,325.12v21.81H74.73V325.12ZM85,335.29v11.64H83.29V335.29Zm8.55,3.12v8.52H91.83v-8.52Zm-23.18,9.94H89.28v1.72H70.37ZM92,349.85a.94.94,0,0,1,0-1.36,1,1,0,0,1,1.36,0,.94.94,0,0,1,0,1.36,1,1,0,0,1-1.36,0Z"/><path d="M1.81,360.3v11.64H.1V360.3Z"/><path d="M10.36,363.42v8.52H8.65v-8.52Z"/><path d="M18.91,350.13v21.81H17.19V350.13Z"/><path class="cls-69" d="M6.09,350.13v21.81H4.37V350.13Zm8.54,10.17v11.64H12.92V360.3Zm8.55,3.12v8.52H21.47v-8.52ZM0,373.36H18.91v1.72H0Zm21.64,1.5a1,1,0,0,1,0-1.36.94.94,0,0,1,.69-.28,1,1,0,0,1,0,1.92A.94.94,0,0,1,21.64,374.86Z"/><path d="M48.28,360.3v11.64H46.57V360.3Z"/><path d="M56.83,363.42v8.52H55.11v-8.52Z"/><path d="M65.38,350.13v21.81H63.66V350.13Z"/><path class="cls-70" d="M52.56,350.13v21.81H50.84V350.13ZM61.1,360.3v11.64H59.39V360.3Zm8.55,3.12v8.52H67.94v-8.52Zm-23.18,9.94H65.38v1.72H46.47Zm21.64,1.5a1,1,0,0,1,0-1.36.94.94,0,0,1,.69-.28,1,1,0,0,1,0,1.92A.94.94,0,0,1,68.11,374.86Z"/><path d="M25.58,385.3V397H23.87V385.3Z"/><path d="M34.13,388.43V397H32.42v-8.52Z"/><path d="M42.68,375.14V397H41V375.14Z"/><path class="cls-71" d="M29.86,375.14V397H28.14V375.14ZM38.4,385.3V397H36.69V385.3ZM47,388.43V397H45.24v-8.52Zm-23.18,9.94H42.68v1.72H23.77Zm21.65,1.5a1,1,0,0,1,.68-1.64.93.93,0,0,1,.68.28,1,1,0,0,1,0,1.36.93.93,0,0,1-.68.28A.91.91,0,0,1,45.42,399.87Z"/><path d="M72.18,385.3V397H70.46V385.3Z"/><path d="M80.72,388.43V397H79v-8.52Z"/><path d="M89.28,375.14V397H87.56V375.14Z"/><path class="cls-72" d="M76.46,375.14V397H74.73V375.14ZM85,385.3V397H83.29V385.3Zm8.55,3.13V397H91.83v-8.52Zm-23.18,9.94H89.28v1.72H70.37ZM92,399.87a.94.94,0,0,1,0-1.36,1,1,0,0,1,1.36,0,.94.94,0,0,1,0,1.36,1,1,0,0,1-1.36,0Z"/><path d="M96.07,210.24v11.64H94.36V210.24Z"/><path d="M104.62,213.36v8.52h-1.71v-8.52Z"/><path d="M113.17,200.08v21.8h-1.72v-21.8Z"/><path class="cls-73" d="M100.35,200.08v21.8H98.63v-21.8Zm8.55,10.16v11.64h-1.72V210.24Zm8.54,3.12v8.52h-1.71v-8.52ZM94.26,223.3h18.91V225H94.26Zm21.65,1.51a.94.94,0,0,1-.29-.69.92.92,0,0,1,.29-.68.91.91,0,0,1,.68-.28.93.93,0,0,1,.68.28.91.91,0,0,1,.28.68.94.94,0,0,1-.28.69,1,1,0,0,1-.68.27A.94.94,0,0,1,115.91,224.81Z"/><path d="M142.43,210.24v11.64h-1.71V210.24Z"/><path d="M151,213.36v8.52h-1.71v-8.52Z"/><path d="M159.53,200.08v21.8h-1.72v-21.8Z"/><path class="cls-74" d="M146.71,200.08v21.8H145v-21.8Zm8.55,10.16v11.64h-1.72V210.24Zm8.54,3.12v8.52h-1.71v-8.52Zm-23.18,9.94h18.91V225H140.62Zm21.65,1.51a.94.94,0,0,1-.29-.69,1,1,0,0,1,1.65-.68.91.91,0,0,1,.28.68.94.94,0,0,1-.28.69,1,1,0,0,1-1.36,0Z"/><path d="M188.9,210.24v11.64h-1.71V210.24Z"/><path d="M197.45,213.36v8.52h-1.71v-8.52Z"/><path d="M206,200.08v21.8h-1.72v-21.8Z"/><path class="cls-75" d="M193.18,200.08v21.8h-1.72v-21.8Zm8.55,10.16v11.64H200V210.24Zm8.54,3.12v8.52h-1.71v-8.52Zm-23.18,9.94H206V225H187.09Zm21.65,1.51a.94.94,0,0,1-.29-.69.92.92,0,0,1,.29-.68.91.91,0,0,1,.68-.28.93.93,0,0,1,.68.28.91.91,0,0,1,.28.68.94.94,0,0,1-.28.69,1,1,0,0,1-.68.27A.94.94,0,0,1,208.74,224.81Z"/><path d="M235.37,210.24v11.64h-1.71V210.24Z"/><path d="M243.92,213.36v8.52h-1.71v-8.52Z"/><path d="M252.47,200.08v21.8h-1.72v-21.8Z"/><path class="cls-76" d="M239.65,200.08v21.8h-1.72v-21.8Zm8.55,10.16v11.64h-1.72V210.24Zm8.54,3.12v8.52H255v-8.52Zm-23.18,9.94h18.91V225H233.56Zm21.65,1.51a.94.94,0,0,1-.29-.69.92.92,0,0,1,.29-.68.91.91,0,0,1,.68-.28.93.93,0,0,1,.68.28.91.91,0,0,1,.28.68.94.94,0,0,1-.28.69,1,1,0,0,1-.68.27A.94.94,0,0,1,255.21,224.81Z"/><path d="M281.84,210.24v11.64h-1.71V210.24Z"/><path d="M290.39,213.36v8.52h-1.71v-8.52Z"/><path d="M298.94,200.08v21.8h-1.72v-21.8Z"/><path class="cls-77" d="M286.12,200.08v21.8H284.4v-21.8Zm8.55,10.16v11.64H293V210.24Zm8.54,3.12v8.52H301.5v-8.52ZM280,223.3h18.91V225H280Zm21.65,1.51a.94.94,0,0,1-.29-.69.92.92,0,0,1,.29-.68.91.91,0,0,1,.68-.28.93.93,0,0,1,.68.28.91.91,0,0,1,.28.68.94.94,0,0,1-.28.69,1,1,0,0,1-.68.27A.94.94,0,0,1,301.68,224.81Z"/><path d="M119.36,235.25v11.64h-1.71V235.25Z"/><path d="M127.91,238.37v8.52H126.2v-8.52Z"/><path d="M136.46,225.08v21.81h-1.72V225.08Z"/><path class="cls-78" d="M123.64,225.08v21.81h-1.72V225.08Zm8.54,10.17v11.64h-1.71V235.25Zm8.55,3.12v8.52H139v-8.52Zm-23.18,9.94h18.91V250H117.55Zm21.65,1.51a.94.94,0,0,1-.29-.69,1,1,0,0,1,1-1,.93.93,0,0,1,.68.28.9.9,0,0,1,.28.68.94.94,0,0,1-.28.69,1,1,0,0,1-.68.27A.94.94,0,0,1,139.2,249.82Z"/><path d="M166,235.25v11.64h-1.72V235.25Z"/><path d="M174.51,238.37v8.52h-1.72v-8.52Z"/><path d="M183.06,225.08v21.81h-1.72V225.08Z"/><path class="cls-79" d="M170.24,225.08v21.81h-1.73V225.08Zm8.54,10.17v11.64h-1.71V235.25Zm8.55,3.12v8.52h-1.72v-8.52Zm-23.18,9.94h18.91V250H164.15Zm21.64,1.51a.94.94,0,0,1-.29-.69.91.91,0,0,1,.29-.68,1,1,0,0,1,1.36,0,.91.91,0,0,1,.29.68.94.94,0,0,1-.29.69,1,1,0,0,1-1.36,0Z"/><path d="M212.55,235.25v11.64h-1.71V235.25Z"/><path d="M221.1,238.37v8.52h-1.71v-8.52Z"/><path d="M229.65,225.08v21.81h-1.72V225.08Z"/><path class="cls-80" d="M216.83,225.08v21.81h-1.72V225.08Zm8.54,10.17v11.64h-1.71V235.25Zm8.55,3.12v8.52h-1.71v-8.52Zm-23.18,9.94h18.91V250H210.74Zm21.64,1.51a.94.94,0,0,1-.28-.69.9.9,0,0,1,.28-.68.94.94,0,0,1,.69-.28,1,1,0,0,1,1,1,1,1,0,0,1-1,1A1,1,0,0,1,232.38,249.82Z"/><path d="M259.15,235.25v11.64h-1.72V235.25Z"/><path d="M267.69,238.37v8.52H266v-8.52Z"/><path d="M276.25,225.08v21.81h-1.73V225.08Z"/><path class="cls-81" d="M263.42,225.08v21.81H261.7V225.08ZM272,235.25v11.64h-1.72V235.25Zm8.55,3.12v8.52H278.8v-8.52Zm-23.19,9.94h18.92V250H257.33ZM279,249.82a.94.94,0,0,1-.29-.69.91.91,0,0,1,.29-.68,1,1,0,0,1,1.36,0,.9.9,0,0,1,.28.68.94.94,0,0,1-.28.69,1,1,0,0,1-1.36,0Z"/><path d="M305.74,235.25v11.64H304V235.25Z"/><path d="M314.29,238.37v8.52h-1.72v-8.52Z"/><path d="M322.84,225.08v21.81h-1.72V225.08Z"/><path class="cls-82" d="M310,225.08v21.81H308.3V225.08Zm8.54,10.17v11.64h-1.71V235.25Zm8.55,3.12v8.52H325.4v-8.52Zm-23.18,9.94h18.91V250H303.93Zm21.64,1.51a.94.94,0,0,1-.28-.69.9.9,0,0,1,.28-.68.94.94,0,0,1,.69-.28,1,1,0,0,1,1,1,1,1,0,0,1-1,1A1,1,0,0,1,325.57,249.82Z"/><path d="M96.07,260.26V271.9H94.36V260.26Z"/><path d="M104.62,263.38v8.52h-1.71v-8.52Z"/><path d="M113.17,250.09V271.9h-1.72V250.09Z"/><path class="cls-83" d="M100.35,250.09V271.9H98.63V250.09Zm8.55,10.17V271.9h-1.72V260.26Zm8.54,3.12v8.52h-1.71v-8.52Zm-23.18,9.94h18.91V275H94.26Zm21.65,1.5a1,1,0,0,1,.68-1.64.93.93,0,0,1,.68.28,1,1,0,0,1,0,1.36.93.93,0,0,1-.68.28A.91.91,0,0,1,115.91,274.82Z"/><path d="M142.43,260.26V271.9h-1.71V260.26Z"/><path d="M151,263.38v8.52h-1.71v-8.52Z"/><path d="M159.53,250.09V271.9h-1.72V250.09Z"/><path class="cls-84" d="M146.71,250.09V271.9H145V250.09Zm8.55,10.17V271.9h-1.72V260.26Zm8.54,3.12v8.52h-1.71v-8.52Zm-23.18,9.94h18.91V275H140.62Zm21.65,1.5a.94.94,0,0,1,0-1.36,1,1,0,0,1,1.36,0,1,1,0,0,1,0,1.36,1,1,0,0,1-1.36,0Z"/><path d="M188.9,260.26V271.9h-1.71V260.26Z"/><path d="M197.45,263.38v8.52h-1.71v-8.52Z"/><path d="M206,250.09V271.9h-1.72V250.09Z"/><path class="cls-85" d="M193.18,250.09V271.9h-1.72V250.09Zm8.55,10.17V271.9H200V260.26Zm8.54,3.12v8.52h-1.71v-8.52Zm-23.18,9.94H206V275H187.09Zm21.65,1.5a1,1,0,0,1,.68-1.64.93.93,0,0,1,.68.28,1,1,0,0,1,0,1.36.93.93,0,0,1-.68.28A.91.91,0,0,1,208.74,274.82Z"/><path d="M235.37,260.26V271.9h-1.71V260.26Z"/><path d="M243.92,263.38v8.52h-1.71v-8.52Z"/><path d="M252.47,250.09V271.9h-1.72V250.09Z"/><path class="cls-86" d="M239.65,250.09V271.9h-1.72V250.09Zm8.55,10.17V271.9h-1.72V260.26Zm8.54,3.12v8.52H255v-8.52Zm-23.18,9.94h18.91V275H233.56Zm21.65,1.5a1,1,0,0,1,.68-1.64.93.93,0,0,1,.68.28,1,1,0,0,1,0,1.36.93.93,0,0,1-.68.28A.91.91,0,0,1,255.21,274.82Z"/><path d="M281.84,260.26V271.9h-1.71V260.26Z"/><path d="M290.39,263.38v8.52h-1.71v-8.52Z"/><path d="M298.94,250.09V271.9h-1.72V250.09Z"/><path class="cls-87" d="M286.12,250.09V271.9H284.4V250.09Zm8.55,10.17V271.9H293V260.26Zm8.54,3.12v8.52H301.5v-8.52ZM280,273.32h18.91V275H280Zm21.65,1.5a1,1,0,0,1,.68-1.64.93.93,0,0,1,.68.28,1,1,0,0,1,0,1.36.93.93,0,0,1-.68.28A.91.91,0,0,1,301.68,274.82Z"/><path d="M119.36,285.27v11.64h-1.71V285.27Z"/><path d="M127.91,288.39v8.52H126.2v-8.52Z"/><path d="M136.46,275.1v21.81h-1.72V275.1Z"/><path class="cls-88" d="M123.64,275.1v21.81h-1.72V275.1Zm8.54,10.17v11.64h-1.71V285.27Zm8.55,3.12v8.52H139v-8.52Zm-23.18,9.94h18.91v1.72H117.55Zm21.65,1.5a1,1,0,0,1,.68-1.64.93.93,0,0,1,.68.28,1,1,0,0,1,0,1.36.93.93,0,0,1-.68.28A.91.91,0,0,1,139.2,299.83Z"/><path d="M166,285.27v11.64h-1.72V285.27Z"/><path d="M174.51,288.39v8.52h-1.72v-8.52Z"/><path d="M183.06,275.1v21.81h-1.72V275.1Z"/><path class="cls-89" d="M170.24,275.1v21.81h-1.73V275.1Zm8.54,10.17v11.64h-1.71V285.27Zm8.55,3.12v8.52h-1.72v-8.52Zm-23.18,9.94h18.91v1.72H164.15Zm21.64,1.5a.94.94,0,0,1,0-1.36,1,1,0,0,1,1.36,0,.94.94,0,0,1,0,1.36,1,1,0,0,1-1.36,0Z"/><path d="M212.55,285.27v11.64h-1.71V285.27Z"/><path d="M221.1,288.39v8.52h-1.71v-8.52Z"/><path d="M229.65,275.1v21.81h-1.72V275.1Z"/><path class="cls-90" d="M216.83,275.1v21.81h-1.72V275.1Zm8.54,10.17v11.64h-1.71V285.27Zm8.55,3.12v8.52h-1.71v-8.52Zm-23.18,9.94h18.91v1.72H210.74Zm21.64,1.5a1,1,0,0,1,0-1.36.94.94,0,0,1,.69-.28,1,1,0,0,1,0,1.92A.94.94,0,0,1,232.38,299.83Z"/><path d="M259.15,285.27v11.64h-1.72V285.27Z"/><path d="M267.69,288.39v8.52H266v-8.52Z"/><path d="M276.25,275.1v21.81h-1.73V275.1Z"/><path class="cls-91" d="M263.42,275.1v21.81H261.7V275.1ZM272,285.27v11.64h-1.72V285.27Zm8.55,3.12v8.52H278.8v-8.52Zm-23.19,9.94h18.92v1.72H257.33Zm21.65,1.5a.94.94,0,0,1,0-1.36,1,1,0,0,1,1.36,0,1,1,0,0,1,0,1.36,1,1,0,0,1-1.36,0Z"/><path d="M305.74,285.27v11.64H304V285.27Z"/><path d="M314.29,288.39v8.52h-1.72v-8.52Z"/><path d="M322.84,275.1v21.81h-1.72V275.1Z"/><path class="cls-92" d="M310,275.1v21.81H308.3V275.1Zm8.54,10.17v11.64h-1.71V285.27Zm8.55,3.12v8.52H325.4v-8.52Zm-23.18,9.94h18.91v1.72H303.93Zm21.64,1.5a1,1,0,0,1,0-1.36.94.94,0,0,1,.69-.28,1,1,0,0,1,0,1.92A.94.94,0,0,1,325.57,299.83Z"/><path d="M96.07,310.28v11.64H94.36V310.28Z"/><path d="M104.62,313.4v8.52h-1.71V313.4Z"/><path d="M113.17,300.11v21.81h-1.72V300.11Z"/><path class="cls-93" d="M100.35,300.11v21.81H98.63V300.11Zm8.55,10.17v11.64h-1.72V310.28Zm8.54,3.12v8.52h-1.71V313.4Zm-23.18,9.94h18.91v1.72H94.26Zm21.65,1.5a1,1,0,0,1,.68-1.64.93.93,0,0,1,.68.28,1,1,0,0,1,0,1.36.93.93,0,0,1-.68.28A.91.91,0,0,1,115.91,324.84Z"/><path d="M142.43,310.28v11.64h-1.71V310.28Z"/><path d="M151,313.4v8.52h-1.71V313.4Z"/><path d="M159.53,300.11v21.81h-1.72V300.11Z"/><path class="cls-94" d="M146.71,300.11v21.81H145V300.11Zm8.55,10.17v11.64h-1.72V310.28Zm8.54,3.12v8.52h-1.71V313.4Zm-23.18,9.94h18.91v1.72H140.62Zm21.65,1.5a.94.94,0,0,1,0-1.36,1,1,0,0,1,1.36,0,1,1,0,0,1,0,1.36,1,1,0,0,1-1.36,0Z"/><path d="M188.9,310.28v11.64h-1.71V310.28Z"/><path d="M197.45,313.4v8.52h-1.71V313.4Z"/><path d="M206,300.11v21.81h-1.72V300.11Z"/><path class="cls-95" d="M193.18,300.11v21.81h-1.72V300.11Zm8.55,10.17v11.64H200V310.28Zm8.54,3.12v8.52h-1.71V313.4Zm-23.18,9.94H206v1.72H187.09Zm21.65,1.5a1,1,0,0,1,.68-1.64.93.93,0,0,1,.68.28,1,1,0,0,1,0,1.36.93.93,0,0,1-.68.28A.91.91,0,0,1,208.74,324.84Z"/><path d="M235.37,310.28v11.64h-1.71V310.28Z"/><path d="M243.92,313.4v8.52h-1.71V313.4Z"/><path d="M252.47,300.11v21.81h-1.72V300.11Z"/><path class="cls-96" d="M239.65,300.11v21.81h-1.72V300.11Zm8.55,10.17v11.64h-1.72V310.28Zm8.54,3.12v8.52H255V313.4Zm-23.18,9.94h18.91v1.72H233.56Zm21.65,1.5a1,1,0,0,1,.68-1.64.93.93,0,0,1,.68.28,1,1,0,0,1,0,1.36.93.93,0,0,1-.68.28A.91.91,0,0,1,255.21,324.84Z"/><path d="M281.84,310.28v11.64h-1.71V310.28Z"/><path d="M290.39,313.4v8.52h-1.71V313.4Z"/><path d="M298.94,300.11v21.81h-1.72V300.11Z"/><path class="cls-97" d="M286.12,300.11v21.81H284.4V300.11Zm8.55,10.17v11.64H293V310.28Zm8.54,3.12v8.52H301.5V313.4ZM280,323.34h18.91v1.72H280Zm21.65,1.5a1,1,0,0,1,.68-1.64.93.93,0,0,1,.68.28,1,1,0,0,1,0,1.36.93.93,0,0,1-.68.28A.91.91,0,0,1,301.68,324.84Z"/><path d="M119.36,335.29v11.64h-1.71V335.29Z"/><path d="M127.91,338.41v8.52H126.2v-8.52Z"/><path d="M136.46,325.12v21.81h-1.72V325.12Z"/><path class="cls-98" d="M123.64,325.12v21.81h-1.72V325.12Zm8.54,10.17v11.64h-1.71V335.29Zm8.55,3.12v8.52H139v-8.52Zm-23.18,9.94h18.91v1.72H117.55Zm21.65,1.5a1,1,0,0,1,.68-1.64.93.93,0,0,1,.68.28,1,1,0,0,1,0,1.36.93.93,0,0,1-.68.28A.91.91,0,0,1,139.2,349.85Z"/><path d="M166,335.29v11.64h-1.72V335.29Z"/><path d="M174.51,338.41v8.52h-1.72v-8.52Z"/><path d="M183.06,325.12v21.81h-1.72V325.12Z"/><path class="cls-99" d="M170.24,325.12v21.81h-1.73V325.12Zm8.54,10.17v11.64h-1.71V335.29Zm8.55,3.12v8.52h-1.72v-8.52Zm-23.18,9.94h18.91v1.72H164.15Zm21.64,1.5a.94.94,0,0,1,0-1.36,1,1,0,0,1,1.36,0,.94.94,0,0,1,0,1.36,1,1,0,0,1-1.36,0Z"/><path d="M212.55,335.29v11.64h-1.71V335.29Z"/><path d="M221.1,338.41v8.52h-1.71v-8.52Z"/><path d="M229.65,325.12v21.81h-1.72V325.12Z"/><path class="cls-100" d="M216.83,325.12v21.81h-1.72V325.12Zm8.54,10.17v11.64h-1.71V335.29Zm8.55,3.12v8.52h-1.71v-8.52Zm-23.18,9.94h18.91v1.72H210.74Zm21.64,1.5a1,1,0,0,1,0-1.36.94.94,0,0,1,.69-.28,1,1,0,0,1,0,1.92A.94.94,0,0,1,232.38,349.85Z"/><path d="M259.15,335.29v11.64h-1.72V335.29Z"/><path d="M267.69,338.41v8.52H266v-8.52Z"/><path d="M276.25,325.12v21.81h-1.73V325.12Z"/><path class="cls-101" d="M263.42,325.12v21.81H261.7V325.12ZM272,335.29v11.64h-1.72V335.29Zm8.55,3.12v8.52H278.8v-8.52Zm-23.19,9.94h18.92v1.72H257.33Zm21.65,1.5a.94.94,0,0,1,0-1.36,1,1,0,0,1,1.36,0,1,1,0,0,1,0,1.36,1,1,0,0,1-1.36,0Z"/><path d="M305.74,335.29v11.64H304V335.29Z"/><path d="M314.29,338.41v8.52h-1.72v-8.52Z"/><path d="M322.84,325.12v21.81h-1.72V325.12Z"/><path class="cls-102" d="M310,325.12v21.81H308.3V325.12Zm8.54,10.17v11.64h-1.71V335.29Zm8.55,3.12v8.52H325.4v-8.52Zm-23.18,9.94h18.91v1.72H303.93Zm21.64,1.5a1,1,0,0,1,0-1.36.94.94,0,0,1,.69-.28,1,1,0,0,1,0,1.92A.94.94,0,0,1,325.57,349.85Z"/><path d="M96.07,360.3v11.64H94.36V360.3Z"/><path d="M104.62,363.42v8.52h-1.71v-8.52Z"/><path d="M113.17,350.13v21.81h-1.72V350.13Z"/><path class="cls-103" d="M100.35,350.13v21.81H98.63V350.13Zm8.55,10.17v11.64h-1.72V360.3Zm8.54,3.12v8.52h-1.71v-8.52Zm-23.18,9.94h18.91v1.72H94.26Zm21.65,1.5a1,1,0,0,1,.68-1.64.93.93,0,0,1,.68.28,1,1,0,0,1,0,1.36.93.93,0,0,1-.68.28A.91.91,0,0,1,115.91,374.86Z"/><path d="M142.43,360.3v11.64h-1.71V360.3Z"/><path d="M151,363.42v8.52h-1.71v-8.52Z"/><path d="M159.53,350.13v21.81h-1.72V350.13Z"/><path class="cls-104" d="M146.71,350.13v21.81H145V350.13Zm8.55,10.17v11.64h-1.72V360.3Zm8.54,3.12v8.52h-1.71v-8.52Zm-23.18,9.94h18.91v1.72H140.62Zm21.65,1.5a.94.94,0,0,1,0-1.36,1,1,0,0,1,1.36,0,1,1,0,0,1,0,1.36,1,1,0,0,1-1.36,0Z"/><path d="M188.9,360.3v11.64h-1.71V360.3Z"/><path d="M197.45,363.42v8.52h-1.71v-8.52Z"/><path d="M206,350.13v21.81h-1.72V350.13Z"/><path class="cls-105" d="M193.18,350.13v21.81h-1.72V350.13Zm8.55,10.17v11.64H200V360.3Zm8.54,3.12v8.52h-1.71v-8.52Zm-23.18,9.94H206v1.72H187.09Zm21.65,1.5a1,1,0,0,1,.68-1.64.93.93,0,0,1,.68.28,1,1,0,0,1,0,1.36.93.93,0,0,1-.68.28A.91.91,0,0,1,208.74,374.86Z"/><path d="M235.37,360.3v11.64h-1.71V360.3Z"/><path d="M243.92,363.42v8.52h-1.71v-8.52Z"/><path d="M252.47,350.13v21.81h-1.72V350.13Z"/><path class="cls-106" d="M239.65,350.13v21.81h-1.72V350.13Zm8.55,10.17v11.64h-1.72V360.3Zm8.54,3.12v8.52H255v-8.52Zm-23.18,9.94h18.91v1.72H233.56Zm21.65,1.5a1,1,0,0,1,.68-1.64.93.93,0,0,1,.68.28,1,1,0,0,1,0,1.36.93.93,0,0,1-.68.28A.91.91,0,0,1,255.21,374.86Z"/><path d="M281.84,360.3v11.64h-1.71V360.3Z"/><path d="M290.39,363.42v8.52h-1.71v-8.52Z"/><path d="M298.94,350.13v21.81h-1.72V350.13Z"/><path class="cls-107" d="M286.12,350.13v21.81H284.4V350.13Zm8.55,10.17v11.64H293V360.3Zm8.54,3.12v8.52H301.5v-8.52ZM280,373.36h18.91v1.72H280Zm21.65,1.5a1,1,0,0,1,.68-1.64.93.93,0,0,1,.68.28,1,1,0,0,1,0,1.36.93.93,0,0,1-.68.28A.91.91,0,0,1,301.68,374.86Z"/><path d="M119.36,385.3V397h-1.71V385.3Z"/><path d="M127.91,388.43V397H126.2v-8.52Z"/><path d="M136.46,375.14V397h-1.72V375.14Z"/><path class="cls-108" d="M123.64,375.14V397h-1.72V375.14Zm8.54,10.16V397h-1.71V385.3Zm8.55,3.13V397H139v-8.52Zm-23.18,9.94h18.91v1.72H117.55Zm21.65,1.5a1,1,0,0,1,.68-1.64.93.93,0,0,1,.68.28,1,1,0,0,1,0,1.36.93.93,0,0,1-.68.28A.91.91,0,0,1,139.2,399.87Z"/><path d="M166,385.3V397h-1.72V385.3Z"/><path d="M174.51,388.43V397h-1.72v-8.52Z"/><path d="M183.06,375.14V397h-1.72V375.14Z"/><path class="cls-109" d="M170.24,375.14V397h-1.73V375.14Zm8.54,10.16V397h-1.71V385.3Zm8.55,3.13V397h-1.72v-8.52Zm-23.18,9.94h18.91v1.72H164.15Zm21.64,1.5a.94.94,0,0,1,0-1.36,1,1,0,0,1,1.36,0,.94.94,0,0,1,0,1.36,1,1,0,0,1-1.36,0Z"/><path d="M212.55,385.3V397h-1.71V385.3Z"/><path d="M221.1,388.43V397h-1.71v-8.52Z"/><path d="M229.65,375.14V397h-1.72V375.14Z"/><path class="cls-110" d="M216.83,375.14V397h-1.72V375.14Zm8.54,10.16V397h-1.71V385.3Zm8.55,3.13V397h-1.71v-8.52Zm-23.18,9.94h18.91v1.72H210.74Zm21.64,1.5a1,1,0,0,1,0-1.36.94.94,0,0,1,.69-.28,1,1,0,0,1,0,1.92A.94.94,0,0,1,232.38,399.87Z"/><path d="M259.15,385.3V397h-1.72V385.3Z"/><path d="M267.69,388.43V397H266v-8.52Z"/><path d="M276.25,375.14V397h-1.73V375.14Z"/><path class="cls-111" d="M263.42,375.14V397H261.7V375.14ZM272,385.3V397h-1.72V385.3Zm8.55,3.13V397H278.8v-8.52Zm-23.19,9.94h18.92v1.72H257.33Zm21.65,1.5a.94.94,0,0,1,0-1.36,1,1,0,0,1,1.36,0,1,1,0,0,1,0,1.36,1,1,0,0,1-1.36,0Z"/><path d="M305.74,385.3V397H304V385.3Z"/><path d="M314.29,388.43V397h-1.72v-8.52Z"/><path d="M322.84,375.14V397h-1.72V375.14Z"/><path class="cls-112" d="M310,375.14V397H308.3V375.14Zm8.54,10.16V397h-1.71V385.3Zm8.55,3.13V397H325.4v-8.52Zm-23.18,9.94h18.91v1.72H303.93Zm21.64,1.5a1,1,0,0,1,0-1.36.94.94,0,0,1,.69-.28,1,1,0,0,1,0,1.92A.94.94,0,0,1,325.57,399.87Z"/></g></g></svg>