<svg xmlns="http://www.w3.org/2000/svg" xmlns:xlink="http://www.w3.org/1999/xlink" viewBox="0 0 44.17 41.13"><defs><style>.cls-1{fill:url(#Degradado_sin_nombre_85);}</style><linearGradient id="Degradado_sin_nombre_85" x1="1.52" y1="20.57" x2="42.65" y2="20.57" gradientTransform="translate(1.52 42.65) rotate(-90)" gradientUnits="userSpaceOnUse"><stop offset="0" stop-color="#e62329"/><stop offset="1" stop-color="#005b97"/></linearGradient></defs><g id="Capa_2" data-name="Capa 2"><g id="Capa_1-2" data-name="Capa 1"><path d="M18,37.93H38.52v3H18Z"/><path d="M23.46,22.84H38.52v3H23.46Z"/><path d="M0,7.73H38.52v3H0Z"/><path class="cls-1" d="M0,30.38H38.52v3H0ZM18,15.29H38.52v3H18ZM23.46.19H38.52v3H23.46ZM41,41.13V7.73h3v33.4ZM43.68,2.91a1.71,1.71,0,0,1-2.42,0,1.73,1.73,0,0,1,0-2.41,1.71,1.71,0,0,1,2.42,0,1.66,1.66,0,0,1,.49,1.2A1.67,1.67,0,0,1,43.68,2.91Z"/></g></g></svg>