<svg xmlns="http://www.w3.org/2000/svg" xmlns:xlink="http://www.w3.org/1999/xlink" viewBox="0 0 192.65 50.66"><defs><style>.cls-1{fill:url(#Degradado_sin_nombre_85);}</style><linearGradient id="Degradado_sin_nombre_85" y1="25.12" x2="46.79" y2="25.12" gradientUnits="userSpaceOnUse"><stop offset="0" stop-color="#e62329"/><stop offset="1" stop-color="#005b97"/></linearGradient></defs><g id="Capa_2" data-name="Capa 2"><g id="Capa_1-2" data-name="Capa 1"><path d="M87.27,0V49.88H82.4V0Z"/><path d="M75.09,12.53V50H70.24V12.53Z"/><path d="M98.83,17.05h5.91l-6.38,6.54H93.75Zm1,8.84V50H95V25.89Z"/><path d="M126.47,41.76l4.85,1.73a31.87,31.87,0,0,1-2.58,3.26A13.35,13.35,0,0,1,106,37.3a13.34,13.34,0,0,1,22.78-9.44,33.08,33.08,0,0,1,2.58,3.21l-4.85,1.78c-.63-.77-1-1.26-1.27-1.48A8.36,8.36,0,0,0,111,37.3a8.37,8.37,0,0,0,14.27,5.91C125.43,43,125.84,42.51,126.47,41.76Z"/><path d="M142.17,17a3.39,3.39,0,0,1,0,4.83,3.44,3.44,0,0,1-4.81,0,3.42,3.42,0,0,1,0-4.83,3.44,3.44,0,0,1,4.81,0Zm0,8.93V50h-4.85V25.91Z"/><path d="M152.55,25.91v-9h4.85v9.05h4.34v4.85H157.4V50h-4.85V30.76h-4.33V25.91Z"/><path d="M179.32,23.94A13.35,13.35,0,0,1,192.65,37.3a13.34,13.34,0,1,1-26.67,0,13.37,13.37,0,0,1,13.34-13.36ZM173.4,31.4a8.34,8.34,0,1,0,5.92-2.46A8.08,8.08,0,0,0,173.4,31.4Z"/><path d="M3.64,20.42V43.81H.2V20.42Z"/><path d="M20.81,26.69V43.81H17.37V26.69Z"/><path d="M38,0V43.81H34.53V0Z"/><path class="cls-1" d="M12.23,0V43.81H8.77V0ZM29.4,20.42V43.81H26V20.42Zm17.17,6.27V43.81H43.13V26.69ZM0,46.66H38v3.46H0Zm43.48,3a1.93,1.93,0,0,1,0-2.74,1.86,1.86,0,0,1,1.37-.56,1.84,1.84,0,0,1,1.36.56,1.91,1.91,0,0,1,0,2.74,1.84,1.84,0,0,1-1.36.56A1.86,1.86,0,0,1,43.48,49.68Z"/></g></g></svg>