<svg xmlns="http://www.w3.org/2000/svg" xmlns:xlink="http://www.w3.org/1999/xlink" viewBox="0 0 644.18 343.16"><defs><style>.cls-1{fill:url(#Degradado_sin_nombre_85);}</style><linearGradient id="Degradado_sin_nombre_85" y1="171.58" x2="644.18" y2="171.58" gradientUnits="userSpaceOnUse"><stop offset="0" stop-color="#e62329"/><stop offset="1" stop-color="#005b97"/></linearGradient></defs><g id="Capa_2" data-name="Capa 2"><g id="Capa_1-2" data-name="Capa 1"><path class="cls-1" d="M128.07,0h19.59V154.78H128.07Zm79.1,55.3h17.42v20H207.17v79.47H187.68V75.31H170.26v-20h17.42V18h19.49ZM324,120.65c-2.52,3.1-4.18,5.09-5,6a32.2,32.2,0,0,1-23.82,10q-12.9,0-17.8-4.45l51.32-52.69,9.8-10.15q-4.42-5.11-5.37-6.09Q330.9,61,328.55,59a50.89,50.89,0,0,0-33.34-11.79q-22.12,0-37.85,16.14t-15.73,39q0,22.83,15.73,39t37.85,16.15q22.23,0,38-16.15,3.19-3.28,10.36-13.43Zm-62.34-18.37a33.73,33.73,0,0,1,9.84-24.41,31.88,31.88,0,0,1,23.68-10.1q11.49,0,14.78,2.61l-45.76,47.08Q261.7,114,261.69,102.28Zm123.92,52.5H366.12V55.3h19.49V68.74q10.92-15.18,26.83-15.95V73.57q-10.63.59-16.94,7.06a33.07,33.07,0,0,0-9.89,23Zm67.33,0H433.35V55.3h19.59V66.9q6.12-17,24.57-17,15.74,0,25,11.46t9.56,28.76v64.68H492.58V90.88a20.16,20.16,0,0,0-6.12-14.75,20.47,20.47,0,0,0-29.1-.14,22.51,22.51,0,0,0-4.42,6ZM624.6,55.3v7q-14.13-14.88-32.77-14.89-22.23,0-37.9,16.1t-15.68,38.91q0,22.82,15.68,38.91t37.9,16.1q18.64,0,32.77-15v12.48h19.58V55.3Zm0,54.43a32.7,32.7,0,0,1-9,17,33,33,0,0,1-47.51,0,33.58,33.58,0,0,1-9.84-24.31A33.54,33.54,0,0,1,568.05,78a33.08,33.08,0,0,1,47.51,0,32.7,32.7,0,0,1,9,17ZM389.73,194a33.89,33.89,0,0,1,11.11,2l-2.63,7.74a18.92,18.92,0,0,0-7.63-1.74q-6.69,0-12.62,5.51a18.62,18.62,0,0,0-5.56,12.86v25.13h18.84v8.7H372.4v86.24h-8.47V254.21h-9.42v-8.7h9.42V219.8a28,28,0,0,1,8-18.47A25.06,25.06,0,0,1,389.73,194Zm99,123.65c-.95,1.16-1.95,2.29-3,3.39a40.65,40.65,0,0,1-30.22,12.85A40.13,40.13,0,0,1,427,322.66l60.26-61.87,6.41-6.58c-.51-.58-1-1.16-1.6-1.74q-2.26-2.31-4.52-4.25a49,49,0,0,0-32.11-11.31q-21.37,0-36.54,15.56A51.81,51.81,0,0,0,403.76,290q0,22,15.16,37.61t36.54,15.57q21.46,0,36.63-15.57a54.67,54.67,0,0,0,5.55-6.67ZM412.8,290a42.73,42.73,0,0,1,12.52-31,40.64,40.64,0,0,1,30.14-12.81,40.14,40.14,0,0,1,25.61,8.7l-59.79,61.39A42.67,42.67,0,0,1,412.8,290Zm150.94,4.64a28.82,28.82,0,0,1,0,39.88,26.88,26.88,0,0,1-38.79,0q-8-8.26-8-18.12l8.38-2.23a19.44,19.44,0,0,0,5.6,14.21,18.63,18.63,0,0,0,26.84,0,19.92,19.92,0,0,0,0-27.65q-3-3.09-12.14-9.08-10.83-6-15-10.25a22.19,22.19,0,0,1-6.49-16.05,22.46,22.46,0,0,1,6.49-16.19,21,21,0,0,1,15.63-6.72,20.38,20.38,0,0,1,15.26,6.19,19.45,19.45,0,0,1,5.84,13.82v.48l-7.35,3q-.95-7.35-4.47-11a12.28,12.28,0,0,0-9.28-3.67,13.13,13.13,0,0,0-9.69,4.11,14.32,14.32,0,0,0,0,20q2.36,2.41,10,7.35Q558.66,289.4,563.74,294.62Zm73.92-49.11v8.7H618.83v86.24h-8.47V254.21H591.52v-8.7h18.84V205.1h8.47v40.41ZM64.81,63.27,84.36,97.14h11.8a12.24,12.24,0,0,0,10.6-18.36L64.81,6.12a12.24,12.24,0,0,0-21.2,0L1.66,78.78a12.24,12.24,0,0,0,10.6,18.36H24.05L43.61,63.27A12.24,12.24,0,0,1,64.81,63.27Zm42,72.66L84.36,97.14H24.05L1.66,135.93a12.24,12.24,0,0,0,10.6,18.36H24.05l19.56-33.86a12.24,12.24,0,0,1,21.2,0l19.55,33.86h11.8A12.24,12.24,0,0,0,106.76,135.93Z"/></g></g></svg>