<svg xmlns="http://www.w3.org/2000/svg" xmlns:xlink="http://www.w3.org/1999/xlink" viewBox="0 0 122.41 104.58"><defs><style>.cls-1{fill:url(#Degradado_sin_nombre_85);}</style><linearGradient id="Degradado_sin_nombre_85" x1="40.07" y1="22.09" x2="81.2" y2="22.09" gradientUnits="userSpaceOnUse"><stop offset="0" stop-color="#e62329"/><stop offset="1" stop-color="#005b97"/></linearGradient></defs><g id="Capa_2" data-name="Capa 2"><g id="Capa_1-2" data-name="Capa 1"><path d="M17,53.92V103.8H12.16V53.92Z"/><path d="M4.85,66.45V104H0V66.45Z"/><path d="M28.59,71H34.5l-6.38,6.54H23.51Zm1,8.84V104H24.75V79.81Z"/><path d="M56.23,95.68l4.85,1.73a31.87,31.87,0,0,1-2.58,3.26,13.34,13.34,0,0,1-18.87,0,13.37,13.37,0,0,1,9.42-22.81,12.88,12.88,0,0,1,9.45,3.92A33.08,33.08,0,0,1,61.08,85l-4.85,1.78c-.63-.77-1-1.26-1.27-1.48a8.35,8.35,0,1,0-5.91,14.28A8.13,8.13,0,0,0,55,97.13C55.19,96.91,55.6,96.43,56.23,95.68Z"/><path d="M71.93,70.9a3.39,3.39,0,0,1,0,4.83,3.42,3.42,0,0,1-4.81,0,3.42,3.42,0,0,1,0-4.83,3.44,3.44,0,0,1,4.81,0Zm0,8.93V104H67.1V79.83Z"/><path d="M82.31,79.83v-9h4.85v9H91.5v4.85H87.16V104H82.31V84.68H78V79.83Z"/><path d="M109.08,77.86a13.37,13.37,0,0,1,9.43,22.81A13.34,13.34,0,1,1,99.66,81.78,12.85,12.85,0,0,1,109.08,77.86Zm-5.92,7.46a8.35,8.35,0,1,0,5.92-2.46A8.08,8.08,0,0,0,103.16,85.32Z"/><path d="M43.27,18V38.52h-3V18Z"/><path d="M58.37,23.46V38.52h-3V23.46Z"/><path d="M73.47,0V38.52h-3V0Z"/><path class="cls-1" d="M50.82,0V38.52h-3V0ZM65.91,18V38.52h-3V18ZM81,23.46V38.52H78V23.46ZM40.07,41h33.4v3H40.07ZM78.3,43.68a1.69,1.69,0,0,1,0-2.42,1.67,1.67,0,0,1,1.2-.49,1.7,1.7,0,0,1,1.2.49,1.71,1.71,0,0,1,0,2.42,1.66,1.66,0,0,1-1.2.49A1.63,1.63,0,0,1,78.3,43.68Z"/></g></g></svg>