<svg xmlns="http://www.w3.org/2000/svg" viewBox="0 0 122.41 107.51"><defs><style>.cls-1{fill:#ff6700;}</style></defs><g id="Capa_2" data-name="Capa 2"><g id="Capa_1-2" data-name="Capa 1"><path d="M4.85,69.38v37.5H0V69.38Z"/><path d="M28.59,73.9H34.5l-6.38,6.54H23.51Zm1,8.84v24.14H24.75V82.74Z"/><path d="M56.23,98.61l4.85,1.73a31.87,31.87,0,0,1-2.58,3.26,13.34,13.34,0,0,1-18.87,0,13.37,13.37,0,0,1,9.42-22.81,12.88,12.88,0,0,1,9.45,3.92,33.08,33.08,0,0,1,2.58,3.21L56.23,89.7c-.63-.77-1-1.26-1.27-1.48a8.35,8.35,0,1,0-5.91,14.28A8.13,8.13,0,0,0,55,100.06C55.19,99.84,55.6,99.36,56.23,98.61Z"/><path d="M71.93,73.83a3.39,3.39,0,0,1,0,4.83,3.44,3.44,0,0,1-4.81,0,3.42,3.42,0,0,1,0-4.83,3.44,3.44,0,0,1,4.81,0Zm0,8.93v24.12H67.1V82.76Z"/><path d="M82.31,82.76V73.71h4.85v9.05H91.5v4.85H87.16v19.27H82.31V87.61H78V82.76Z"/><path d="M109.08,80.79a13.37,13.37,0,0,1,9.43,22.81A13.34,13.34,0,1,1,99.66,84.71,12.85,12.85,0,0,1,109.08,80.79Zm-5.92,7.46a8.35,8.35,0,1,0,5.92-2.46A8.08,8.08,0,0,0,103.16,88.25Z"/><path d="M17,45v61.76H12.16V45Z"/><path d="M43,18V38.52H40V18Z"/><path d="M50.55,0V38.52h-3V0Z"/><path d="M58.09,23.46V38.52h-3V23.46Z"/><path d="M65.64,18V38.52h-3V18Z"/><path d="M73.19,0V38.52h-3V0Z"/><path d="M80.74,23.46V38.52h-3V23.46Z"/><path class="cls-1" d="M39.8,41H73.19v3H39.8Z"/><path d="M78,43.68a1.71,1.71,0,0,1,0-2.42,1.71,1.71,0,0,1,1.21-.49,1.66,1.66,0,0,1,1.19.49,1.7,1.7,0,0,1-1.19,2.91A1.67,1.67,0,0,1,78,43.68Z"/></g></g></svg>