<svg xmlns="http://www.w3.org/2000/svg" viewBox="0 0 75.4 118.27"><defs><style>.cls-1{fill:#222221;}.cls-2{fill:#dfdee2;}.cls-3{fill:#a81a1b;}.cls-4{fill:#289548;}.cls-5{fill:#cb4f24;}.cls-6{fill:#f6e63c;}.cls-7{fill:#3273b2;}.cls-8{fill:#f3f1f3;}.cls-9{fill:#161817;}.cls-10{fill:#009de0;}</style></defs><g id="Capa_2" data-name="Capa 2"><g id="Capa_1-2" data-name="Capa 1"><rect class="cls-1" width="75.4" height="66.19"/><path class="cls-1" d="M19.1,80.64H16.91V66H19.1v1a4.1,4.1,0,0,1,2.95-1.3,4.15,4.15,0,0,1,3.24,1.45,5.2,5.2,0,0,1,1.28,3.62,5.15,5.15,0,0,1-1.27,3.57,4.19,4.19,0,0,1-6.2.08Zm5.23-9.88a3.29,3.29,0,0,0-.74-2.22,2.41,2.41,0,0,0-1.9-.87,2.5,2.5,0,0,0-2,.84,3.17,3.17,0,0,0-.75,2.2,3.25,3.25,0,0,0,.75,2.21,2.44,2.44,0,0,0,1.95.85,2.41,2.41,0,0,0,1.89-.86A3.15,3.15,0,0,0,24.33,70.76Z"/><path class="cls-1" d="M30.58,66.1v9.51h-2.2V66.1Z"/><path class="cls-1" d="M35.07,66l2.49,5.43,2.69-6.3,2.7,6.3L45.41,66h2.46l-5,10.22-2.64-6.12-2.68,6.12L32.6,66Z"/><path class="cls-1" d="M48.55,70.64A4.73,4.73,0,0,1,50,67.13a5.19,5.19,0,0,1,7.21,0,5.11,5.11,0,0,1,0,7.16,5.06,5.06,0,0,1-3.64,1.43A4.87,4.87,0,0,1,50,74.27,5,5,0,0,1,48.55,70.64Zm2.24,0a3.19,3.19,0,0,0,.77,2.26,2.67,2.67,0,0,0,2.06.84,2.7,2.7,0,0,0,2.06-.83,3.57,3.57,0,0,0,0-4.43,2.93,2.93,0,0,0-4.11,0A3,3,0,0,0,50.79,70.67Z"/><path class="cls-1" d="M16.6,114.86a1.92,1.92,0,0,0-.62-.38,2,2,0,0,0-.69-.12,1.54,1.54,0,0,0-1.15.45A1.62,1.62,0,0,0,13.7,116a1.57,1.57,0,0,0,.43,1.14,1.44,1.44,0,0,0,1.08.45,2,2,0,0,0,.73-.13,2.33,2.33,0,0,0,.66-.41v.79a2.31,2.31,0,0,1-.61.3,2.41,2.41,0,0,1-.72.1,2.45,2.45,0,0,1-.91-.16,2.25,2.25,0,0,1-.74-.48,2.11,2.11,0,0,1-.48-.72A2.43,2.43,0,0,1,13,116a2.39,2.39,0,0,1,.17-.89,2.09,2.09,0,0,1,.49-.72,1.93,1.93,0,0,1,.73-.48,2.44,2.44,0,0,1,1.62-.06,2.59,2.59,0,0,1,.66.34Z"/><path class="cls-1" d="M20.09,116.81H17.87a.91.91,0,0,0,.23.61.75.75,0,0,0,.55.22,1,1,0,0,0,.52-.13,1.15,1.15,0,0,0,.35-.42l.54.3a1.59,1.59,0,0,1-.58.62,1.53,1.53,0,0,1-.81.21,1.4,1.4,0,0,1-1.06-.41,1.46,1.46,0,0,1-.4-1.08,1.49,1.49,0,0,1,.41-1.08,1.57,1.57,0,0,1,2.09,0,1.5,1.5,0,0,1,.38,1.08Zm-.66-.43a.62.62,0,0,0-.23-.45.75.75,0,0,0-.52-.16.76.76,0,0,0-.5.15.81.81,0,0,0-.27.46Z"/><path class="cls-1" d="M21.39,115.77a1,1,0,0,1,.27-.41.64.64,0,0,1,.42-.13,1.15,1.15,0,0,1,.26,0,1.39,1.39,0,0,1,.26.1l-.23.54a.76.76,0,0,0-.18-.09.66.66,0,0,0-.21,0,.48.48,0,0,0-.45.25,1.83,1.83,0,0,0-.14.86v1.22h-.64v-2.79h.64Z"/><path class="cls-1" d="M23.94,118.27l-1.46-2.94h.69l.61,1.4a1.67,1.67,0,0,1,.07.19,3.09,3.09,0,0,1,.09.31A1.82,1.82,0,0,1,24,117a1.06,1.06,0,0,1,.09-.25l.6-1.4h.7Z"/><path class="cls-1" d="M28.47,116.81H26.25a.91.91,0,0,0,.23.61.75.75,0,0,0,.55.22,1,1,0,0,0,.52-.13,1.15,1.15,0,0,0,.35-.42l.54.3a1.59,1.59,0,0,1-.58.62,1.53,1.53,0,0,1-.81.21,1.44,1.44,0,0,1-1.07-.41,1.66,1.66,0,0,1,0-2.16,1.57,1.57,0,0,1,2.09,0,1.5,1.5,0,0,1,.38,1.08Zm-.66-.43a.66.66,0,0,0-.23-.45.92.92,0,0,0-1,0,.81.81,0,0,0-.27.46Z"/><path class="cls-1" d="M31.27,118.11H28.69l1.54-2.23H28.84v-.55h2.43l-1.52,2.22h1.52Z"/><path class="cls-1" d="M34.44,118.11H33.8v-.37a1.11,1.11,0,0,1-.39.36,1.25,1.25,0,0,1-1.45-.28,1.66,1.66,0,0,1-.34-1.11,1.6,1.6,0,0,1,.35-1.07,1.13,1.13,0,0,1,.9-.41,1.16,1.16,0,0,1,.58.14.83.83,0,0,1,.35.41v-.45h.64Zm-.62-1.4a1,1,0,0,0-.2-.67.68.68,0,0,0-.56-.24.72.72,0,0,0-.57.24,1.11,1.11,0,0,0-.2.69,1,1,0,0,0,.2.68.75.75,0,0,0,1.12,0A1,1,0,0,0,33.82,116.71Z"/><path class="cls-1" d="M37.84,116.18v1.93h-.66v-4.29h1.06a3,3,0,0,1,.69.05,1,1,0,0,1,.38.17,1,1,0,0,1,.32.4,1.43,1.43,0,0,1,.11.56,1.47,1.47,0,0,1-.11.56.92.92,0,0,1-.32.4,1,1,0,0,1-.38.17,3.74,3.74,0,0,1-.69.05h-.4Zm0-.57h.18a1.51,1.51,0,0,0,.77-.13A.48.48,0,0,0,39,115a.55.55,0,0,0-.2-.49,1.49,1.49,0,0,0-.76-.14h-.18Z"/><path class="cls-1" d="M40.85,115.77a1,1,0,0,1,.27-.41.68.68,0,0,1,.42-.13,1.24,1.24,0,0,1,.27,0,1.3,1.3,0,0,1,.25.1l-.23.54a.56.56,0,0,0-.17-.09.78.78,0,0,0-.22,0A.48.48,0,0,0,41,116a2,2,0,0,0-.14.86v1.22h-.63v-2.79h.63Z"/><path class="cls-1" d="M45.1,116.81H42.88a1,1,0,0,0,.23.61.75.75,0,0,0,.56.22,1,1,0,0,0,.51-.13,1.28,1.28,0,0,0,.36-.42l.53.3a1.51,1.51,0,0,1-1.39.83,1.4,1.4,0,0,1-1.06-.41,1.46,1.46,0,0,1-.4-1.08,1.49,1.49,0,0,1,.41-1.08,1.39,1.39,0,0,1,1-.42,1.42,1.42,0,0,1,1,.38,1.49,1.49,0,0,1,.37,1.08Zm-.66-.43a.62.62,0,0,0-.23-.45.75.75,0,0,0-.52-.16.76.76,0,0,0-.5.15.81.81,0,0,0-.27.46Z"/><path class="cls-1" d="M46.4,118.11h-.64v-2.78h.6v.45a1.31,1.31,0,0,1,.43-.42,1.14,1.14,0,0,1,.57-.13,1,1,0,0,1,.54.13.89.89,0,0,1,.33.42,1.28,1.28,0,0,1,.46-.42,1.2,1.2,0,0,1,.57-.13,1.06,1.06,0,0,1,.48.1.69.69,0,0,1,.32.29.93.93,0,0,1,.08.22,2.93,2.93,0,0,1,0,.36v1.91h-.64v-1.43a1.54,1.54,0,0,0-.11-.74.47.47,0,0,0-.43-.18.58.58,0,0,0-.53.24,1.57,1.57,0,0,0-.16.84v1.27h-.64v-1.43a1.5,1.5,0,0,0-.13-.72.46.46,0,0,0-.43-.2.67.67,0,0,0-.34.09.69.69,0,0,0-.25.23.85.85,0,0,0-.08.24c0,.09,0,.27,0,.52Z"/><path class="cls-1" d="M51,114.13a.41.41,0,0,1,.4-.4.39.39,0,0,1,.28.11.38.38,0,0,1,.11.29.36.36,0,0,1-.11.28.4.4,0,0,1-.68-.28Zm.08,4v-2.78h.64v2.78Z"/><path class="cls-1" d="M53.2,115.33v1.56a.82.82,0,0,0,.17.58.9.9,0,0,0,1.08,0,.82.82,0,0,0,.17-.58v-1.56h.63v1.37a1.75,1.75,0,0,1-.31,1.16,1.32,1.32,0,0,1-1,.36,1.34,1.34,0,0,1-1-.36,1.73,1.73,0,0,1-.31-1.16v-1.37Z"/><path class="cls-1" d="M56.75,118.11h-.64v-2.78h.6v.45a1.31,1.31,0,0,1,.43-.42,1.14,1.14,0,0,1,.57-.13,1,1,0,0,1,.54.13.89.89,0,0,1,.33.42,1.28,1.28,0,0,1,.46-.42,1.2,1.2,0,0,1,.57-.13,1.06,1.06,0,0,1,.48.1.69.69,0,0,1,.32.29.93.93,0,0,1,.08.22,2.93,2.93,0,0,1,0,.36v1.91h-.63v-1.43a1.51,1.51,0,0,0-.12-.74.47.47,0,0,0-.43-.18.58.58,0,0,0-.53.24,1.57,1.57,0,0,0-.16.84v1.27H58v-1.43a1.39,1.39,0,0,0-.13-.72.46.46,0,0,0-.43-.2.67.67,0,0,0-.34.09.78.78,0,0,0-.25.23,1.35,1.35,0,0,0-.08.24c0,.09,0,.27,0,.52Z"/><path class="cls-2" d="M38.45,33.87a.64.64,0,0,1,.36.08h0a.34.34,0,0,1-.36-.09Z"/><path class="cls-2" d="M38.45,33.87h-.12l.12,0Z"/><path class="cls-2" d="M37.72,31.11l0,0s0,0,0,0Z"/><path class="cls-2" d="M38.81,34l.07,0h0l-.06,0Z"/><path class="cls-2" d="M37.79,31.14l-.07,0h0l.07,0Z"/><path class="cls-3" d="M32.8,28.68a3.3,3.3,0,0,0-.4-.74A2.66,2.66,0,0,1,33,24.36,9.43,9.43,0,0,1,35.06,23c.42-.19.61,0,.77.31a1.8,1.8,0,0,1,.06.22c.12.59.12.59.61.3a3.63,3.63,0,0,1,1.21-.33c.26,0,.27.13.24.33a3.94,3.94,0,0,1-.63,1.76,3.94,3.94,0,0,1,2.36-.55c.3,0,.71,0,.84.17s-.23.45-.36.68-.6.65-.49.89.65.17,1,.22c.63.09,1.27.15,1.9.22.13,0,.26,0,.33.13h0a1.12,1.12,0,0,0-.16.22,4.69,4.69,0,0,1-2.42,2.18,2,2,0,0,0-.7.25l-.32,0c-.18,0-.18.11-.13.24l.18.56a1.06,1.06,0,0,1-.26-.49.6.6,0,0,0-.46-.41,7.15,7.15,0,0,1-2-.77,1.43,1.43,0,0,0-1.66-1,1.39,1.39,0,0,0-1.17,1.33A1.42,1.42,0,0,0,35.11,31a10.58,10.58,0,0,1,.74,2.27A3.27,3.27,0,0,1,35.57,36c-.24,0-.36.18-.54.26l-.63.11c-.2-.15-.45-.1-.68-.15a1.13,1.13,0,0,1-1-1,5.53,5.53,0,0,1,.11-1.72,14.4,14.4,0,0,0,.36-2.78.5.5,0,0,0,0-.34A2,2,0,0,0,33,29,.46.46,0,0,0,32.8,28.68Z"/><path class="cls-4" d="M34.4,36.41,35,36.3a1.18,1.18,0,0,1,0,.46,12,12,0,0,0-.26,1.33c-.09.83.43,1.2,1.19.88.46-.19.6-.62.8-1,.29.35.58.73,1.12.59s.67-.55.72-1.07c.37.32.7.65,1.21.48s.54-.69.68-1.17a1.49,1.49,0,0,0,1,.56.86.86,0,0,0,.94-.38.75.75,0,0,0-.06-.91c-.07-.1-.13-.21-.2-.32a19.45,19.45,0,0,1-1.93-3.56c-.27-.72-.55-1.43-.88-2.12l.32,0a.75.75,0,0,1,.07.12,50.71,50.71,0,0,0,3.47,6.66,3.56,3.56,0,0,1,.76,1.73c-.66,1-1.49,1-2.78-.12,0,.7,0,1.36-.81,1.62s-1.13-.3-1.57-.8c0,.21,0,.38,0,.55a1.1,1.1,0,0,1-1.83.79,3,3,0,0,1-.49-.57c-.18-.22-.1.06-.15.1a1,1,0,0,0-.4.84h0l-1.49.55h0c-.19-.13-.29-.37-.53-.46a1.87,1.87,0,0,1,0-1.17,25.59,25.59,0,0,0,.59-3.26A.81.81,0,0,1,34.4,36.41Z"/><path class="cls-5" d="M35.83,40.79h0c0-.33.38-.51.4-.85,0,0,0-.31.15-.09a2.9,2.9,0,0,0,.49.56,1.1,1.1,0,0,0,1.83-.79c0-.16,0-.33,0-.55.43.5.81,1.07,1.57.81s.82-.92.81-1.62c1.29,1.08,2.11,1.1,2.78.12A2,2,0,0,1,44.44,40c-.82.9-1.76.8-2.88-.33,0,.75,0,1.52-.84,1.78s-1.28-.3-1.72-.93c0,.73-.06,1.42-.82,1.7s-1.33-.35-1.83-1a2.12,2.12,0,0,1-1.72,2c-.2.08-.27,0-.44-.13a3,3,0,0,1-.52-2.66c.17.07.59.7.82.63"/><path class="cls-5" d="M33.2,30.38a.5.5,0,0,1,0,.34,5.9,5.9,0,0,0-2.29.87,3,3,0,0,1,1.87-2.91A.46.46,0,0,1,33,29a2.64,2.64,0,0,0-1.64,1.91A5.19,5.19,0,0,1,33.2,30.38Z"/><path class="cls-6" d="M35.57,36a3.27,3.27,0,0,0,.28-2.79A10.58,10.58,0,0,0,35.11,31a1.44,1.44,0,0,0,1.57-1.79,7.15,7.15,0,0,0,2,.77.6.6,0,0,1,.46.41,1.06,1.06,0,0,0,.26.49q.27.75.6,1.47a14,14,0,0,1,1,2.36c.11.42-.05.55-.48.56a1.65,1.65,0,0,1-.85-.35c-.13.87-.53,1.18-1.35.49,0,.07,0,.13,0,.18-.14.65-.53.82-1.06.42-.24-.19-.27-.05-.4.13s-.36.55-.75.54S35.7,36.26,35.57,36Z"/><path class="cls-7" d="M35.57,36c.13.22.06.6.46.62s.58-.28.75-.54.16-.32.4-.13c.53.4.92.23,1.06-.42,0,0,0-.11,0-.18.82.69,1.22.38,1.35-.49a1.65,1.65,0,0,0,.85.35c.43,0,.59-.14.48-.56a14,14,0,0,0-1-2.36q-.33-.72-.6-1.47l-.18-.56c-.05-.13-.05-.23.13-.24.33.69.61,1.4.88,2.12a19.45,19.45,0,0,0,1.93,3.56c.07.11.13.22.2.32a.75.75,0,0,1,.06.91.86.86,0,0,1-.94.38,1.49,1.49,0,0,1-1-.56c-.14.48-.16,1-.68,1.17s-.84-.16-1.21-.48c-.05.52-.21.93-.72,1.07S37,38.31,36.75,38c-.2.39-.34.82-.8,1-.76.32-1.28,0-1.19-.88A12,12,0,0,1,35,36.76a1.18,1.18,0,0,0,0-.46C35.21,36.22,35.33,36,35.57,36Z"/><path class="cls-8" d="M36.68,29.19A1.44,1.44,0,0,1,35.11,31a1.42,1.42,0,0,1-1.26-1.5A1.39,1.39,0,0,1,35,28.15,1.43,1.43,0,0,1,36.68,29.19Zm-2.14,0a.53.53,0,0,0-.3.72.49.49,0,0,0,.69.34.53.53,0,0,0,.35-.71A.56.56,0,0,0,34.54,29.24Z"/><path class="cls-9" d="M33.2,30.38a5.19,5.19,0,0,0-1.84.53A2.64,2.64,0,0,1,33,29,2,2,0,0,1,33.2,30.38Z"/><path class="cls-9" d="M34.54,29.24a.56.56,0,0,1,.74.35.53.53,0,0,1-.35.71.49.49,0,0,1-.69-.34A.53.53,0,0,1,34.54,29.24Z"/><path class="cls-10" d="M37.7,45.48A12.39,12.39,0,1,1,50.09,33.09,12.4,12.4,0,0,1,37.7,45.48ZM37.7,21A12.1,12.1,0,1,0,49.79,33.09,12.11,12.11,0,0,0,37.7,21Z"/></g></g></svg>