<svg xmlns="http://www.w3.org/2000/svg" viewBox="0 0 201.26 177.41"><defs><style>.cls-1{fill:#222221;}.cls-2{fill:#fff;}.cls-3{fill:#dfdee2;}.cls-4{fill:#a81a1b;}.cls-5{fill:#289548;}.cls-6{fill:#cb4f24;}.cls-7{fill:#f6e63c;}.cls-8{fill:#3273b2;}.cls-9{fill:#f3f1f3;}.cls-10{fill:#161817;}.cls-11{fill:#009de0;}</style></defs><g id="Capa_2" data-name="Capa 2"><g id="Capa_1-2" data-name="Capa 1"><path class="cls-1" d="M103.3,63.32a2.17,2.17,0,0,1,1.29.31v0a1.22,1.22,0,0,1-1.3-.32Z"/><path class="cls-1" d="M103.29,63.33l-.41,0v0l.41.06Z"/><path class="cls-1" d="M100.71,53.46l-.13-.09c.12-.08.08.06.13.09Z"/><path class="cls-1" d="M104.59,63.63l.24.11h0l-.23-.1Z"/><path class="cls-1" d="M100.94,53.58l-.23-.12h0l.24.09Z"/><path class="cls-1" d="M83.1,44.79a11.06,11.06,0,0,0-1.41-2.65c-2.7-4.64-2-9.28,2.06-12.79a32.36,32.36,0,0,1,7.45-4.74c1.49-.71,2.17-.12,2.73,1.09a3,3,0,0,1,.21.8c.46,2.1.46,2.1,2.19,1.07a12.23,12.23,0,0,1,4.35-1.17c.9-.16.95.46.86,1.17a14.15,14.15,0,0,1-2.28,6.27,14.12,14.12,0,0,1,8.43-2c1.07,0,2.54-.14,3,.59s-.84,1.6-1.3,2.46c-.58,1.11-2.12,2.29-1.74,3.17s2.3.59,3.54.77c2.26.34,4.53.53,6.8.79.43,0,.91,0,1.17.49l0,0c-.2.26-.41.51-.59.79-2.15,3.4-4.6,6.45-8.63,7.78a7.09,7.09,0,0,0-2.5.9l-1.15.06c-.64,0-.64.41-.47.88.23.66.44,1.32.66,2a3.6,3.6,0,0,1-.93-1.75,2.08,2.08,0,0,0-1.66-1.45,24.91,24.91,0,0,1-7-2.78c-1.15-2.88-3.21-4.16-5.94-3.69a5,5,0,0,0-4.19,4.74c-.09,2.76,1.53,4.67,4.52,5.35A38.65,38.65,0,0,1,94,61.1c.78,3.41,1.21,6.85-1,10-.85-.11-1.27.66-1.93.94l-2.23.39c-.72-.54-1.62-.34-2.42-.53a4.07,4.07,0,0,1-3.48-3.73A19.27,19.27,0,0,1,83.33,62c.57-3.28,1.37-6.55,1.29-9.92a1.8,1.8,0,0,0-.07-1.23,7.17,7.17,0,0,0-.71-4.93A1.66,1.66,0,0,0,83.1,44.79Z"/><path class="cls-1" d="M88.84,72.41,91.07,72a4,4,0,0,1,0,1.65c-.32,1.58-.72,3.15-.9,4.74-.32,3,1.52,4.29,4.26,3.16,1.62-.67,2.12-2.23,2.86-3.64,1,1.27,2,2.62,4,2.11s2.41-1.94,2.57-3.82c1.33,1.14,2.53,2.33,4.34,1.72s1.93-2.45,2.43-4.18a5.17,5.17,0,0,0,3.4,2,3.08,3.08,0,0,0,3.35-1.33,2.79,2.79,0,0,0-.2-3.29c-.27-.35-.49-.75-.73-1.12-2.56-4.11-5.22-8.17-6.91-12.74-.94-2.57-2-5.1-3.13-7.57l1.16-.06a3.62,3.62,0,0,1,.24.43,180.23,180.23,0,0,0,12.38,23.8c1.16,1.94,2.69,3.73,2.73,6.17-2.37,3.53-5.32,3.44-9.92-.42,0,2.5-.13,4.87-2.9,5.8s-4-1.1-5.61-2.88c-.07.76-.1,1.36-.18,2-.52,3.53-3.67,4.89-6.54,2.81a10.15,10.15,0,0,1-1.75-2c-.67-.79-.36.21-.53.34a3.49,3.49,0,0,0-1.43,3l0,.06-5.34,2h-.06c-.68-.48-1-1.34-1.88-1.65a6.68,6.68,0,0,1-.2-4.19,88.32,88.32,0,0,0,2.1-11.65A3.28,3.28,0,0,1,88.84,72.41Z"/><path class="cls-1" d="M93.94,88.06l0,0c-.08-1.17,1.37-1.81,1.44-3,.17-.13-.14-1.13.53-.33a10.44,10.44,0,0,0,1.75,2c2.87,2.07,6,.72,6.54-2.82.08-.6.11-1.21.18-2,1.55,1.78,2.9,3.8,5.61,2.89s3-3.3,2.9-5.81c4.59,3.86,7.55,4,9.92.43a6.52,6.52,0,0,1,1.39,2.15,6.4,6.4,0,0,1,.47,3.76c-2.91,3.21-6.28,2.85-10.28-1.18,0,2.69-.14,5.42-3,6.37s-4.57-1.08-6.14-3.32c-.15,2.58-.21,5.08-2.93,6-3.18,1.14-4.74-1.23-6.55-3.56-.44,3.93-2.65,6.06-6.12,7-.73.28-1,.14-1.59-.48-2.17-2-2.66-6.92-1.86-9.5.6.27,2.1,2.49,3,2.27"/><path class="cls-1" d="M84.55,50.85a1.8,1.8,0,0,1,.07,1.23,21.32,21.32,0,0,0-8.2,3.1c0-5,2.42-8.32,6.68-10.39a1.66,1.66,0,0,1,.74,1.13A9.53,9.53,0,0,0,78,52.77,19,19,0,0,1,84.55,50.85Z"/><path class="cls-1" d="M93,71.08c2.23-3.13,1.8-6.57,1-10A38.65,38.65,0,0,0,91.38,53c4.09-.14,6.23-2.58,5.61-6.4a24.91,24.91,0,0,0,7,2.78,2.08,2.08,0,0,1,1.66,1.45,3.52,3.52,0,0,0,.93,1.74c.63,1.79,1.36,3.54,2.14,5.27,1.27,2.79,2.84,5.46,3.62,8.45.38,1.47-.21,2-1.74,2a5.76,5.76,0,0,1-3-1.23c-.48,3.09-1.89,4.2-4.82,1.75-.06.24-.11.43-.15.63-.49,2.33-1.89,2.92-3.78,1.49-.86-.65-1-.18-1.42.47-.62.93-1.3,2-2.7,1.91S93.48,71.87,93,71.08Z"/><path class="cls-1" d="M93,71.08c.48.79.21,2.13,1.65,2.2s2.08-1,2.7-1.91c.44-.65.56-1.12,1.42-.47,1.89,1.43,3.29.84,3.78-1.49,0-.2.09-.39.15-.63,2.93,2.45,4.34,1.34,4.82-1.75a5.76,5.76,0,0,0,3,1.23c1.53,0,2.12-.51,1.74-2-.78-3-2.35-5.66-3.62-8.45-.78-1.73-1.51-3.48-2.14-5.27-.22-.65-.43-1.31-.66-2-.17-.47-.17-.85.47-.88,1.17,2.47,2.19,5,3.13,7.57,1.69,4.57,4.35,8.63,6.91,12.74.24.37.46.77.73,1.12a2.79,2.79,0,0,1,.2,3.29A3.08,3.08,0,0,1,114,75.76a5.17,5.17,0,0,1-3.4-2c-.5,1.73-.57,3.55-2.43,4.18s-3-.58-4.34-1.72c-.16,1.88-.75,3.33-2.57,3.82s-2.94-.84-4-2.11c-.74,1.41-1.24,3-2.86,3.64-2.74,1.13-4.58-.19-4.26-3.16.18-1.59.58-3.16.9-4.74a4,4,0,0,0,0-1.65C91.73,71.74,92.15,71,93,71.08Z"/><path class="cls-1" d="M97,46.59c.62,3.82-1.52,6.26-5.61,6.4-3-.68-4.61-2.59-4.52-5.35a5,5,0,0,1,4.19-4.74C93.78,42.43,95.84,43.71,97,46.59Zm-7.66.21a1.9,1.9,0,0,0-1.08,2.55,1.78,1.78,0,0,0,2.49,1.23A1.89,1.89,0,0,0,92,48,2,2,0,0,0,89.33,46.8Z"/><path class="cls-1" d="M84.55,50.85A19,19,0,0,0,78,52.77a9.53,9.53,0,0,1,5.88-6.85A7.17,7.17,0,0,1,84.55,50.85Z"/><path class="cls-1" d="M89.33,46.8A2,2,0,0,1,92,48a1.89,1.89,0,0,1-1.23,2.55,1.78,1.78,0,0,1-2.49-1.23A1.9,1.9,0,0,1,89.33,46.8Z"/><rect class="cls-1" y="115.39" width="201.26" height="62.02"/><path class="cls-2" d="M81.9,129.75H79.7V115.06h2.2v1a4.16,4.16,0,0,1,6.18.15,5.19,5.19,0,0,1,1.29,3.62,5.13,5.13,0,0,1-1.28,3.56,4.16,4.16,0,0,1-6.19.08Zm5.22-9.87a3.28,3.28,0,0,0-.74-2.23,2.39,2.39,0,0,0-1.89-.87,2.53,2.53,0,0,0-2,.84,3.2,3.2,0,0,0-.75,2.21,3.27,3.27,0,0,0,.75,2.21,2.51,2.51,0,0,0,2,.85,2.38,2.38,0,0,0,1.88-.86A3.11,3.11,0,0,0,87.12,119.88Z"/><path class="cls-2" d="M93.89,115.06v9.52h-2.2v-9.52Z"/><path class="cls-2" d="M97.87,115.06l2.49,5.43L103,114.2l2.71,6.29,2.46-5.43h2.46l-5,10.23L103,119.17l-2.67,6.12-5-10.23Z"/><path class="cls-2" d="M111.34,119.75a4.69,4.69,0,0,1,1.48-3.5,5.18,5.18,0,0,1,7.2,0,4.83,4.83,0,0,1,1.47,3.57,4.78,4.78,0,0,1-1.48,3.58,5,5,0,0,1-3.64,1.44,4.85,4.85,0,0,1-3.58-1.46A4.93,4.93,0,0,1,111.34,119.75Zm2.25,0a3.22,3.22,0,0,0,.76,2.26,3,3,0,0,0,4.12,0,3.59,3.59,0,0,0,0-4.44,2.68,2.68,0,0,0-2.06-.84,2.65,2.65,0,0,0-2,.84A3.07,3.07,0,0,0,113.59,119.79Z"/><path class="cls-2" d="M37.68,144.69a2.22,2.22,0,0,0-1.54-.59,1.76,1.76,0,0,0-1.33.52,2,2,0,0,0,0,2.7,1.7,1.7,0,0,0,1.27.53,2.2,2.2,0,0,0,.84-.16,2.5,2.5,0,0,0,.77-.47v.92a2.61,2.61,0,0,1-.71.35,2.84,2.84,0,0,1-.84.11,3,3,0,0,1-1.06-.18,2.46,2.46,0,0,1-.86-.56,2.53,2.53,0,0,1-.56-.84,2.79,2.79,0,0,1-.2-1,2.7,2.7,0,0,1,.2-1,2.58,2.58,0,0,1,1.42-1.41,2.8,2.8,0,0,1,1-.19,2.63,2.63,0,0,1,.84.13,2.9,2.9,0,0,1,.77.38Z"/><path class="cls-2" d="M41.75,147H39.16a1,1,0,0,0,.27.71.84.84,0,0,0,.64.26,1,1,0,0,0,.6-.16,1.26,1.26,0,0,0,.42-.48l.62.35a2,2,0,0,1-.67.73,1.83,1.83,0,0,1-.95.23,1.64,1.64,0,0,1-1.24-.47,1.94,1.94,0,0,1,0-2.52,1.83,1.83,0,0,1,2.45,0,1.72,1.72,0,0,1,.44,1.25Zm-.77-.5a.78.78,0,0,0-.27-.53.94.94,0,0,0-.61-.18.92.92,0,0,0-.59.18,1,1,0,0,0-.31.53Z"/><path class="cls-2" d="M43.26,145.75a1.09,1.09,0,0,1,.32-.48.76.76,0,0,1,.48-.15,1.06,1.06,0,0,1,.31,0,1,1,0,0,1,.3.11l-.26.63a1.06,1.06,0,0,0-.21-.11,1,1,0,0,0-.25,0,.56.56,0,0,0-.53.3,2.16,2.16,0,0,0-.16,1v1.42h-.74v-3.24h.74Z"/><path class="cls-2" d="M46.23,148.67l-1.69-3.44h.8l.71,1.63a1.18,1.18,0,0,1,.08.23,2.28,2.28,0,0,1,.1.36c0-.1.05-.2.08-.3s.07-.19.11-.29l.71-1.63h.81Z"/><path class="cls-2" d="M51.52,147H48.93a1.11,1.11,0,0,0,.27.71.86.86,0,0,0,.65.26,1,1,0,0,0,.6-.16,1.33,1.33,0,0,0,.41-.48l.63.35a1.93,1.93,0,0,1-.68.73,1.81,1.81,0,0,1-1,.23,1.64,1.64,0,0,1-1.24-.47,1.78,1.78,0,0,1-.46-1.27,1.71,1.71,0,0,1,.48-1.25,1.63,1.63,0,0,1,1.22-.49,1.61,1.61,0,0,1,1.22.45,1.67,1.67,0,0,1,.44,1.25Zm-.77-.5a.81.81,0,0,0-.26-.53.94.94,0,0,0-.61-.18.85.85,0,0,0-.9.71Z"/><path class="cls-2" d="M54.79,148.47h-3l1.8-2.59H52v-.65h2.83L53,147.82h1.77Z"/><path class="cls-2" d="M58.49,148.47h-.74v-.42a1.32,1.32,0,0,1-.47.42,1.29,1.29,0,0,1-.6.13,1.36,1.36,0,0,1-1.09-.46,2,2,0,0,1-.39-1.29,1.84,1.84,0,0,1,.4-1.25,1.32,1.32,0,0,1,1.06-.48,1.28,1.28,0,0,1,.67.16,1,1,0,0,1,.42.48v-.53h.74Zm-.72-1.63a1.17,1.17,0,0,0-.24-.78.78.78,0,0,0-.65-.28.82.82,0,0,0-.66.29,1.48,1.48,0,0,0,0,1.6.81.81,0,0,0,.65.28.83.83,0,0,0,.66-.31A1.25,1.25,0,0,0,57.77,146.84Z"/><path class="cls-2" d="M62.45,146.23v2.24h-.76v-5h1.23a3.86,3.86,0,0,1,.8.06,1.3,1.3,0,0,1,.45.19,1.23,1.23,0,0,1,.37.47,1.72,1.72,0,0,1,0,1.31,1.1,1.1,0,0,1-.37.47,1.32,1.32,0,0,1-.45.2,3.86,3.86,0,0,1-.8.06h-.47Zm0-.67h.21a1.81,1.81,0,0,0,.9-.15.58.58,0,0,0,.23-.52.63.63,0,0,0-.24-.56,1.73,1.73,0,0,0-.89-.16H62.5Z"/><path class="cls-2" d="M66,145.75a1.09,1.09,0,0,1,.32-.48.76.76,0,0,1,.48-.15,1.06,1.06,0,0,1,.31,0,1.21,1.21,0,0,1,.3.11l-.26.63a1.06,1.06,0,0,0-.21-.11,1,1,0,0,0-.25,0,.56.56,0,0,0-.53.3,2.16,2.16,0,0,0-.16,1v1.42h-.74v-3.24H66Z"/><path class="cls-2" d="M70.92,147H68.33a1.11,1.11,0,0,0,.27.71.87.87,0,0,0,.65.26,1,1,0,0,0,.6-.16,1.26,1.26,0,0,0,.42-.48l.62.35a1.93,1.93,0,0,1-.68.73,1.77,1.77,0,0,1-.94.23,1.62,1.62,0,0,1-1.24-.47,1.74,1.74,0,0,1-.46-1.27,1.7,1.7,0,0,1,.47-1.25,1.83,1.83,0,0,1,2.45,0,1.71,1.71,0,0,1,.43,1.25Zm-.76-.5a.78.78,0,0,0-.27-.53.94.94,0,0,0-.61-.18.92.92,0,0,0-.59.18.9.9,0,0,0-.31.53Z"/><path class="cls-2" d="M72.44,148.47H71.7v-3.24h.7v.53a1.37,1.37,0,0,1,.5-.49,1.29,1.29,0,0,1,.66-.16,1.17,1.17,0,0,1,.63.16,1,1,0,0,1,.38.49,1.65,1.65,0,0,1,.55-.49,1.29,1.29,0,0,1,.66-.16,1.25,1.25,0,0,1,.56.12.87.87,0,0,1,.37.34.88.88,0,0,1,.09.26,2.12,2.12,0,0,1,0,.42v2.22h-.74v-1.66A1.77,1.77,0,0,0,76,146a.54.54,0,0,0-.49-.21.69.69,0,0,0-.63.28,1.91,1.91,0,0,0-.19,1v1.47H73.9v-1.66a1.69,1.69,0,0,0-.15-.84.55.55,0,0,0-.5-.23.77.77,0,0,0-.4.1.84.84,0,0,0-.29.27,1,1,0,0,0-.09.28,4,4,0,0,0,0,.61Z"/><path class="cls-2" d="M77.76,143.83a.41.41,0,0,1,.14-.32.42.42,0,0,1,.33-.14.44.44,0,0,1,.33.13.49.49,0,0,1,.13.33.45.45,0,0,1-.14.33.42.42,0,0,1-.32.14.45.45,0,0,1-.33-.14A.42.42,0,0,1,77.76,143.83Zm.1,4.64v-3.24h.74v3.24Z"/><path class="cls-2" d="M80.38,145.23v1.83a.94.94,0,0,0,.19.67.83.83,0,0,0,.63.21.8.8,0,0,0,.63-.21.9.9,0,0,0,.2-.67v-1.83h.74v1.61a2,2,0,0,1-.37,1.35,1.95,1.95,0,0,1-2.39,0,2,2,0,0,1-.38-1.35v-1.61Z"/><path class="cls-2" d="M84.51,148.47h-.74v-3.24h.7v.53a1.54,1.54,0,0,1,.5-.49,1.3,1.3,0,0,1,.67-.16,1.23,1.23,0,0,1,.63.16,1.06,1.06,0,0,1,.38.49,1.63,1.63,0,0,1,.54-.49,1.32,1.32,0,0,1,.66-.16,1.22,1.22,0,0,1,.56.12.82.82,0,0,1,.37.34.67.67,0,0,1,.1.26,3.87,3.87,0,0,1,0,.42v2.22h-.74v-1.66A1.65,1.65,0,0,0,88,146a.53.53,0,0,0-.49-.21.68.68,0,0,0-.62.28,1.81,1.81,0,0,0-.19,1v1.47H86v-1.66a1.84,1.84,0,0,0-.14-.84.56.56,0,0,0-.5-.23.83.83,0,0,0-.41.1.81.81,0,0,0-.28.27.77.77,0,0,0-.1.28,4,4,0,0,0,0,.61Z"/><path class="cls-2" d="M92,150v-4.77h.74v.53a1,1,0,0,1,.42-.47,1.34,1.34,0,0,1,.68-.17,1.31,1.31,0,0,1,1.05.48,1.84,1.84,0,0,1,.4,1.25,2,2,0,0,1-.39,1.29,1.36,1.36,0,0,1-1.09.46,1.29,1.29,0,0,1-.6-.13,1.32,1.32,0,0,1-.47-.42V150Zm.72-3.16a1.23,1.23,0,0,0,.25.81.83.83,0,0,0,.66.3.81.81,0,0,0,.65-.28,1.48,1.48,0,0,0,0-1.6.82.82,0,0,0-.66-.29.78.78,0,0,0-.65.28A1.17,1.17,0,0,0,92.73,146.84Z"/><path class="cls-2" d="M99.13,148.47h-.74v-.42a1.22,1.22,0,0,1-.46.42,1.5,1.5,0,0,1-1.69-.33,2,2,0,0,1-.39-1.29,1.84,1.84,0,0,1,.4-1.25,1.43,1.43,0,0,1,1.73-.32,1,1,0,0,1,.41.48v-.53h.74Zm-.72-1.63a1.17,1.17,0,0,0-.23-.78.8.8,0,0,0-.66-.28.83.83,0,0,0-.66.29,1.21,1.21,0,0,0-.24.8,1.27,1.27,0,0,0,.23.8.84.84,0,0,0,.66.28.8.8,0,0,0,.65-.31A1.2,1.2,0,0,0,98.41,146.84Z"/><path class="cls-2" d="M100.9,145.75a1.09,1.09,0,0,1,.32-.48.77.77,0,0,1,.49-.15,1,1,0,0,1,.3,0,1,1,0,0,1,.3.11l-.26.63a1.06,1.06,0,0,0-.21-.11,1,1,0,0,0-.25,0,.56.56,0,0,0-.53.3,2.31,2.31,0,0,0-.16,1v1.42h-.74v-3.24h.74Z"/><path class="cls-2" d="M105.79,148.47H105v-.42a1.22,1.22,0,0,1-.46.42,1.33,1.33,0,0,1-.61.13,1.36,1.36,0,0,1-1.08-.46,2,2,0,0,1-.39-1.29,1.84,1.84,0,0,1,.4-1.25,1.43,1.43,0,0,1,1.73-.32,1,1,0,0,1,.41.48v-.53h.75Zm-.73-1.63a1.17,1.17,0,0,0-.23-.78.8.8,0,0,0-.66-.28.83.83,0,0,0-.66.29,1.21,1.21,0,0,0-.24.8,1.27,1.27,0,0,0,.23.8.84.84,0,0,0,.66.28.8.8,0,0,0,.65-.31A1.2,1.2,0,0,0,105.06,146.84Z"/><path class="cls-2" d="M108.92,150v-4.77h.75v.53a.94.94,0,0,1,.41-.47,1.34,1.34,0,0,1,.68-.17,1.31,1.31,0,0,1,1,.48,1.84,1.84,0,0,1,.4,1.25,2,2,0,0,1-.39,1.29,1.36,1.36,0,0,1-1.08.46,1.33,1.33,0,0,1-.61-.13,1.22,1.22,0,0,1-.46-.42V150Zm.72-3.16a1.28,1.28,0,0,0,.25.81.83.83,0,0,0,.66.3.84.84,0,0,0,.66-.28,1.27,1.27,0,0,0,.23-.8,1.21,1.21,0,0,0-.24-.8.86.86,0,0,0-.67-.29.78.78,0,0,0-.65.28A1.17,1.17,0,0,0,109.64,146.84Z"/><path class="cls-2" d="M116.12,147h-2.59a1.11,1.11,0,0,0,.27.71.84.84,0,0,0,.64.26,1,1,0,0,0,.6-.16,1.26,1.26,0,0,0,.42-.48l.62.35a1.9,1.9,0,0,1-.67.73,1.83,1.83,0,0,1-1,.23,1.64,1.64,0,0,1-1.24-.47,1.74,1.74,0,0,1-.46-1.27,1.71,1.71,0,0,1,.48-1.25,1.6,1.6,0,0,1,1.22-.49,1.62,1.62,0,0,1,1.22.45,1.72,1.72,0,0,1,.44,1.25Zm-.77-.5a.78.78,0,0,0-.27-.53.94.94,0,0,0-.61-.18.89.89,0,0,0-.58.18.85.85,0,0,0-.31.53Z"/><path class="cls-2" d="M117.63,145.75a1.09,1.09,0,0,1,.32-.48.77.77,0,0,1,.49-.15,1.15,1.15,0,0,1,.31,0,1,1,0,0,1,.29.11l-.26.63a1.06,1.06,0,0,0-.21-.11,1,1,0,0,0-.25,0,.56.56,0,0,0-.53.3,2.31,2.31,0,0,0-.16,1v1.42h-.74v-3.24h.74Z"/><path class="cls-2" d="M119.1,147.88l.61-.33a.7.7,0,0,0,.25.37.9.9,0,0,0,.48.12.58.58,0,0,0,.39-.11.4.4,0,0,0,.14-.31c0-.18-.17-.33-.5-.45l-.27-.11a2.14,2.14,0,0,1-.72-.43.76.76,0,0,1-.21-.54.86.86,0,0,1,.34-.71,1.42,1.42,0,0,1,.9-.27,1.38,1.38,0,0,1,.64.14.86.86,0,0,1,.4.4L121,146a.55.55,0,0,0-.2-.25.64.64,0,0,0-.34-.09.57.57,0,0,0-.34.1.32.32,0,0,0-.13.27c0,.17.19.32.58.46l.28.11a1.72,1.72,0,0,1,.64.4.83.83,0,0,1,.19.56.92.92,0,0,1-.35.76,1.9,1.9,0,0,1-1.76.1A1.15,1.15,0,0,1,119.1,147.88Z"/><path class="cls-2" d="M122.21,146.85a1.74,1.74,0,0,1,.13-.67,1.77,1.77,0,0,1,.39-.56,1.85,1.85,0,0,1,.58-.37,1.8,1.8,0,0,1,1.94.38,1.76,1.76,0,0,1,.53,1.22,1.87,1.87,0,0,1-.13.68,1.77,1.77,0,0,1-.39.56,1.7,1.7,0,0,1-.59.38,1.84,1.84,0,0,1-1.36,0,1.58,1.58,0,0,1-.58-.38,1.81,1.81,0,0,1-.39-.57A1.63,1.63,0,0,1,122.21,146.85Zm2.78,0a1,1,0,0,0-.29-.76.92.92,0,0,0-.71-.31.93.93,0,0,0-.71.31,1.09,1.09,0,0,0-.29.76,1.12,1.12,0,0,0,.29.77,1,1,0,0,0,.71.31,1,1,0,0,0,.71-.31A1.07,1.07,0,0,0,125,146.86Z"/><path class="cls-2" d="M126.56,148.47v-3.24h.7v.53a1.51,1.51,0,0,1,.52-.49,1.65,1.65,0,0,1,.74-.15,1.58,1.58,0,0,1,.61.11,1,1,0,0,1,.4.34.84.84,0,0,1,.12.31,3.08,3.08,0,0,1,0,.63v2h-.75v-1.66a1.61,1.61,0,0,0-.15-.85.66.66,0,0,0-.56-.21,1.14,1.14,0,0,0-.46.09.94.94,0,0,0-.32.27.82.82,0,0,0-.11.3,3.74,3.74,0,0,0,0,.59v1.47Z"/><path class="cls-2" d="M133.73,148.47H133v-.42a1.32,1.32,0,0,1-.47.42,1.29,1.29,0,0,1-.6.13,1.36,1.36,0,0,1-1.09-.46,2,2,0,0,1-.39-1.29,1.84,1.84,0,0,1,.4-1.25,1.32,1.32,0,0,1,1.06-.48,1.28,1.28,0,0,1,.67.16,1,1,0,0,1,.42.48v-.53h.74Zm-.72-1.63a1.17,1.17,0,0,0-.24-.78.78.78,0,0,0-.65-.28.82.82,0,0,0-.66.29,1.43,1.43,0,0,0,0,1.6.86.86,0,0,0,1.3,0A1.2,1.2,0,0,0,133,146.84Z"/><path class="cls-2" d="M134.38,147.88l.62-.33a.65.65,0,0,0,.25.37.84.84,0,0,0,.47.12.61.61,0,0,0,.4-.11.4.4,0,0,0,.14-.31q0-.27-.51-.45l-.26-.11a2.21,2.21,0,0,1-.73-.43.76.76,0,0,1-.21-.54.89.89,0,0,1,.34-.71,1.61,1.61,0,0,1,1.55-.13.8.8,0,0,1,.39.4l-.53.36a.44.44,0,0,0-.2-.25.64.64,0,0,0-.34-.09.6.6,0,0,0-.34.1.34.34,0,0,0-.12.27c0,.17.19.32.57.46l.28.11a1.64,1.64,0,0,1,.64.4.83.83,0,0,1,.19.56.9.9,0,0,1-.35.76,1.55,1.55,0,0,1-1,.27,1.59,1.59,0,0,1-.79-.17A1.2,1.2,0,0,1,134.38,147.88Z"/><path class="cls-2" d="M140.67,146.23v2.24h-.76v-5h1.23a3.86,3.86,0,0,1,.8.06,1.3,1.3,0,0,1,.45.19,1.23,1.23,0,0,1,.37.47,1.72,1.72,0,0,1,0,1.31,1.1,1.1,0,0,1-.37.47,1.32,1.32,0,0,1-.45.2,3.86,3.86,0,0,1-.8.06h-.47Zm.05-.67h.21a1.81,1.81,0,0,0,.9-.15.58.58,0,0,0,.23-.52.63.63,0,0,0-.24-.56,1.71,1.71,0,0,0-.89-.16h-.21Z"/><path class="cls-2" d="M144.19,145.75a1.09,1.09,0,0,1,.32-.48.76.76,0,0,1,.48-.15,1.06,1.06,0,0,1,.31,0,1.21,1.21,0,0,1,.3.11l-.27.63a.78.78,0,0,0-.2-.11,1,1,0,0,0-.25,0,.55.55,0,0,0-.53.3,2.16,2.16,0,0,0-.16,1v1.42h-.74v-3.24h.74Z"/><path class="cls-2" d="M149.15,147h-2.59a1,1,0,0,0,.27.71.84.84,0,0,0,.64.26,1,1,0,0,0,.6-.16,1.26,1.26,0,0,0,.42-.48l.62.35a1.93,1.93,0,0,1-.68.73,1.77,1.77,0,0,1-.94.23,1.64,1.64,0,0,1-1.24-.47,1.94,1.94,0,0,1,0-2.52,1.83,1.83,0,0,1,2.45,0,1.72,1.72,0,0,1,.44,1.25Zm-.77-.5a.78.78,0,0,0-.27-.53.94.94,0,0,0-.61-.18.92.92,0,0,0-.59.18,1,1,0,0,0-.31.53Z"/><path class="cls-2" d="M150.66,148.47h-.74v-3.24h.7v.53a1.37,1.37,0,0,1,.5-.49,1.29,1.29,0,0,1,.66-.16,1.17,1.17,0,0,1,.63.16,1,1,0,0,1,.38.49,1.65,1.65,0,0,1,.55-.49,1.29,1.29,0,0,1,.66-.16,1.25,1.25,0,0,1,.56.12.87.87,0,0,1,.37.34.88.88,0,0,1,.09.26,2.12,2.12,0,0,1,0,.42v2.22h-.74v-1.66a1.77,1.77,0,0,0-.14-.86.55.55,0,0,0-.5-.21.68.68,0,0,0-.62.28,1.91,1.91,0,0,0-.19,1v1.47h-.74v-1.66A1.69,1.69,0,0,0,152,146a.55.55,0,0,0-.5-.23.77.77,0,0,0-.4.1.84.84,0,0,0-.29.27,1,1,0,0,0-.09.28,4,4,0,0,0,0,.61Z"/><path class="cls-2" d="M156,143.83a.41.41,0,0,1,.14-.32.42.42,0,0,1,.33-.14.44.44,0,0,1,.33.13.49.49,0,0,1,.13.33.45.45,0,0,1-.14.33.42.42,0,0,1-.32.14.45.45,0,0,1-.33-.14A.42.42,0,0,1,156,143.83Zm.1,4.64v-3.24h.74v3.24Z"/><path class="cls-2" d="M158.6,145.23v1.83a.94.94,0,0,0,.19.67.83.83,0,0,0,.63.21.84.84,0,0,0,.64-.21.94.94,0,0,0,.19-.67v-1.83H161v1.61a2,2,0,0,1-.37,1.35,1.51,1.51,0,0,1-1.19.41,1.53,1.53,0,0,1-1.2-.41,2,2,0,0,1-.38-1.35v-1.61Z"/><path class="cls-2" d="M162.74,148.47H162v-3.24h.7v.53a1.48,1.48,0,0,1,.51-.49,1.27,1.27,0,0,1,.66-.16,1.23,1.23,0,0,1,.63.16,1,1,0,0,1,.38.49,1.63,1.63,0,0,1,.54-.49,1.34,1.34,0,0,1,.66-.16,1.22,1.22,0,0,1,.56.12.82.82,0,0,1,.37.34.67.67,0,0,1,.1.26,2.31,2.31,0,0,1,0,.42v2.22h-.74v-1.66a1.65,1.65,0,0,0-.14-.86.53.53,0,0,0-.49-.21.68.68,0,0,0-.62.28,1.81,1.81,0,0,0-.19,1v1.47h-.75v-1.66a1.84,1.84,0,0,0-.14-.84.56.56,0,0,0-.5-.23.77.77,0,0,0-.4.1.84.84,0,0,0-.29.27.77.77,0,0,0-.1.28c0,.11,0,.31,0,.61Z"/><path class="cls-1" d="M166.56,112.36l-2.23-5.2h.84l1.12,2.67a3.37,3.37,0,0,1,.17.42,3.61,3.61,0,0,1,.1.38c0-.13.07-.26.11-.39s.1-.27.16-.41l1.12-2.67h.84Z"/><path class="cls-1" d="M168.62,110.55a1.67,1.67,0,0,1,.13-.67,1.7,1.7,0,0,1,.39-.57,1.81,1.81,0,0,1,.57-.37,1.79,1.79,0,0,1,.68-.13,1.78,1.78,0,0,1,1.27.51,1.81,1.81,0,0,1,.39.57,1.77,1.77,0,0,1,0,1.33,1.64,1.64,0,0,1-.38.56,1.78,1.78,0,0,1-1.28.52,1.9,1.9,0,0,1-.67-.13,1.74,1.74,0,0,1-.58-.39,1.67,1.67,0,0,1-.39-.56A1.7,1.7,0,0,1,168.62,110.55Zm2.78,0a1.09,1.09,0,0,0-.29-.76,1,1,0,0,0-1.42,0,1.09,1.09,0,0,0-.29.76,1.12,1.12,0,0,0,.29.77.92.92,0,0,0,.71.31.93.93,0,0,0,.71-.31A1.12,1.12,0,0,0,171.4,110.55Z"/><path class="cls-1" d="M173,112.16v-5.29h.75v5.29Z"/><path class="cls-1" d="M174.9,111.78a.44.44,0,0,1,.13-.32.42.42,0,0,1,.32-.13.44.44,0,0,1,.32.13.48.48,0,0,1,.13.32.46.46,0,0,1-.13.32.47.47,0,0,1-.32.12.45.45,0,0,1-.32-.12A.42.42,0,0,1,174.9,111.78Z"/><path class="cls-1" d="M179.32,111a1.34,1.34,0,0,0,.45.49,1.17,1.17,0,0,0,.61.17,1.06,1.06,0,0,0,.8-.32,1.22,1.22,0,0,0,0-1.64,1.22,1.22,0,0,0-.85-.31,1.58,1.58,0,0,0-.58.11,1.27,1.27,0,0,0-.47.32l-.21,0,.63-2.54h2.36v.66h-1.87l-.3,1.1a2.32,2.32,0,0,1,.4-.13,2.45,2.45,0,0,1,.38,0,1.57,1.57,0,0,1,1.16.46,1.63,1.63,0,0,1,.45,1.19,1.79,1.79,0,0,1-.52,1.35,2,2,0,0,1-1.4.5,2.14,2.14,0,0,1-.91-.18,1.83,1.83,0,0,1-.66-.56Z"/><path class="cls-1" d="M182.94,108.42a1.42,1.42,0,0,1,.3-1,1.15,1.15,0,0,1,1.64,0,1.77,1.77,0,0,1,0,1.94,1,1,0,0,1-.82.35,1,1,0,0,1-.82-.35A1.43,1.43,0,0,1,182.94,108.42Zm1.11.92a.41.41,0,0,0,.38-.23,1.38,1.38,0,0,0,.13-.69,1.42,1.42,0,0,0-.13-.68.4.4,0,0,0-.36-.23.43.43,0,0,0-.39.23,1.58,1.58,0,0,0-.12.69,1.49,1.49,0,0,0,.12.67A.41.41,0,0,0,184.05,109.34Zm.25,3h-.47l2.92-5.19h.47Zm1.57-1.32a1.43,1.43,0,0,1,.3-1,1,1,0,0,1,.82-.35,1,1,0,0,1,.82.35,1.48,1.48,0,0,1,.29,1,1.46,1.46,0,0,1-.3,1,1,1,0,0,1-.82.35,1,1,0,0,1-.82-.35A1.5,1.5,0,0,1,185.87,111Zm1.11.92a.41.41,0,0,0,.38-.23,1.57,1.57,0,0,0,.13-.69,1.52,1.52,0,0,0-.13-.68.41.41,0,0,0-.37-.24.42.42,0,0,0-.38.24,1.5,1.5,0,0,0-.12.68,1.53,1.53,0,0,0,.12.68A.41.41,0,0,0,187,111.9Z"/><path class="cls-1" d="M67,5.3v-5h2.79V1h-2V2.24h2V3h-2V4.57h2V5.3Z"/><path class="cls-1" d="M70.69,5.3V0h.74V5.3Z"/><path class="cls-1" d="M75.54,5.3H74.8V4.88a1.31,1.31,0,0,1-.47.41,1.16,1.16,0,0,1-.6.14A1.34,1.34,0,0,1,72.65,5a1.9,1.9,0,0,1-.4-1.29,1.88,1.88,0,0,1,.41-1.25,1.3,1.3,0,0,1,1-.48,1.34,1.34,0,0,1,.68.17,1,1,0,0,1,.41.48V2.06h.74Zm-.72-1.63a1.18,1.18,0,0,0-.24-.79.81.81,0,0,0-.65-.28.82.82,0,0,0-.66.29,1.23,1.23,0,0,0-.24.8,1.25,1.25,0,0,0,.23.8.8.8,0,0,0,.66.28.82.82,0,0,0,.65-.3A1.22,1.22,0,0,0,74.82,3.67Z"/><path class="cls-1" d="M77.31,0V2.59a.92.92,0,0,1,.41-.48,1.34,1.34,0,0,1,.68-.17,1.31,1.31,0,0,1,1,.48,1.88,1.88,0,0,1,.4,1.25A2,2,0,0,1,79.46,5a1.35,1.35,0,0,1-1.08.47,1.22,1.22,0,0,1-.61-.14,1.28,1.28,0,0,1-.46-.41V5.3h-.74V0Zm0,3.67a1.22,1.22,0,0,0,.26.8.83.83,0,0,0,.66.3.79.79,0,0,0,.65-.28,1.25,1.25,0,0,0,.23-.8,1.23,1.23,0,0,0-.24-.8.82.82,0,0,0-.66-.29.83.83,0,0,0-.66.28A1.18,1.18,0,0,0,77.28,3.67Z"/><path class="cls-1" d="M80.4,3.68A1.67,1.67,0,0,1,80.54,3a1.64,1.64,0,0,1,.38-.56,1.88,1.88,0,0,1,.58-.38,1.91,1.91,0,0,1,.68-.13,2,2,0,0,1,.69.13,1.85,1.85,0,0,1,.58.39,1.67,1.67,0,0,1,.39.56,1.85,1.85,0,0,1,.13.66,1.82,1.82,0,0,1-.13.67,1.67,1.67,0,0,1-.39.56,1.79,1.79,0,0,1-.59.39,1.84,1.84,0,0,1-1.36,0,1.88,1.88,0,0,1-.58-.38,1.81,1.81,0,0,1-.39-.57A1.86,1.86,0,0,1,80.4,3.68Zm2.79,0a1.12,1.12,0,0,0-.29-.77,1,1,0,0,0-.72-.31,1,1,0,0,0-.7.31,1.08,1.08,0,0,0-.3.77,1.06,1.06,0,0,0,.3.76,1,1,0,0,0,1.41,0A1.06,1.06,0,0,0,83.19,3.69Z"/><path class="cls-1" d="M85.5,2.57a1,1,0,0,1,.31-.47.8.8,0,0,1,.49-.16,1.65,1.65,0,0,1,.31,0,1.82,1.82,0,0,1,.3.11l-.27.63a.68.68,0,0,0-.21-.1.88.88,0,0,0-.24,0,.55.55,0,0,0-.53.29,2.21,2.21,0,0,0-.16,1V5.3h-.75V2.05h.75Z"/><path class="cls-1" d="M90.38,5.3h-.74V4.88a1.37,1.37,0,0,1-.46.41,1.22,1.22,0,0,1-.61.14A1.34,1.34,0,0,1,87.49,5a1.9,1.9,0,0,1-.4-1.29,1.88,1.88,0,0,1,.41-1.25,1.3,1.3,0,0,1,1-.48,1.34,1.34,0,0,1,.68.17,1,1,0,0,1,.41.48V2.06h.74Zm-.72-1.63a1.24,1.24,0,0,0-.23-.79.84.84,0,0,0-.66-.28.82.82,0,0,0-.66.29,1.23,1.23,0,0,0-.24.8,1.25,1.25,0,0,0,.23.8.8.8,0,0,0,.66.28.82.82,0,0,0,.65-.3A1.22,1.22,0,0,0,89.66,3.67Z"/><path class="cls-1" d="M93.71,0h.75V5.3h-.75V4.88a1.28,1.28,0,0,1-.46.41,1.22,1.22,0,0,1-.61.14A1.36,1.36,0,0,1,91.56,5a2,2,0,0,1-.39-1.29,1.88,1.88,0,0,1,.4-1.25,1.41,1.41,0,0,1,1.73-.31.92.92,0,0,1,.41.48Zm0,3.67a1.18,1.18,0,0,0-.23-.79.91.91,0,0,0-1.32,0,1.23,1.23,0,0,0-.24.8,1.25,1.25,0,0,0,.23.8.81.81,0,0,0,.66.28.79.79,0,0,0,.65-.3A1.2,1.2,0,0,0,93.73,3.67Z"/><path class="cls-1" d="M98.53,5.3h-.74V4.88a1.31,1.31,0,0,1-.47.41,1.16,1.16,0,0,1-.6.14A1.34,1.34,0,0,1,95.64,5a1.9,1.9,0,0,1-.4-1.29,1.93,1.93,0,0,1,.4-1.25,1.32,1.32,0,0,1,1.06-.48,1.34,1.34,0,0,1,.68.17,1,1,0,0,1,.41.48V2.06h.74Zm-.72-1.63a1.18,1.18,0,0,0-.24-.79.81.81,0,0,0-.65-.28.82.82,0,0,0-.66.29,1.23,1.23,0,0,0-.24.8,1.19,1.19,0,0,0,.23.8.79.79,0,0,0,.66.28.82.82,0,0,0,.65-.3A1.27,1.27,0,0,0,97.81,3.67Z"/><path class="cls-1" d="M104.79,3.79H102.2a1,1,0,0,0,.27.71.83.83,0,0,0,.64.25,1.11,1.11,0,0,0,.6-.15,1.26,1.26,0,0,0,.42-.48l.62.34a1.84,1.84,0,0,1-.67.73,1.84,1.84,0,0,1-1,.24A1.67,1.67,0,0,1,101.89,5a1.74,1.74,0,0,1-.46-1.27,1.73,1.73,0,0,1,.47-1.25,1.64,1.64,0,0,1,1.23-.5,1.62,1.62,0,0,1,1.22.45,1.74,1.74,0,0,1,.44,1.26Zm-.77-.5a.78.78,0,0,0-.27-.53.89.89,0,0,0-.61-.19.87.87,0,0,0-.58.18,1,1,0,0,0-.32.54Z"/><path class="cls-1" d="M105.56,5.3V2.06h.7v.53a1.34,1.34,0,0,1,.52-.49,1.61,1.61,0,0,1,.73-.16,1.46,1.46,0,0,1,.62.12,1,1,0,0,1,.4.34,1.25,1.25,0,0,1,.12.31,4,4,0,0,1,0,.62v2h-.75V3.63a1.52,1.52,0,0,0-.16-.85.63.63,0,0,0-.55-.21,1.11,1.11,0,0,0-.46.1.71.71,0,0,0-.32.27.82.82,0,0,0-.12.3,3.91,3.91,0,0,0,0,.58V5.3Z"/><path class="cls-1" d="M112.61,3.05V5.3h-.76v-5h1.23a3.86,3.86,0,0,1,.8.06,1.13,1.13,0,0,1,.82.67,1.55,1.55,0,0,1,.14.65,1.59,1.59,0,0,1-.14.66,1.1,1.1,0,0,1-.37.47,1,1,0,0,1-.45.19,3.86,3.86,0,0,1-.8.06h-.47Zm0-.66h.21a1.81,1.81,0,0,0,.9-.15.58.58,0,0,0,.23-.52.61.61,0,0,0-.24-.56,1.69,1.69,0,0,0-.89-.17h-.21Z"/><path class="cls-1" d="M115,3.68a1.71,1.71,0,0,1,.53-1.23,1.73,1.73,0,0,1,.57-.38,2,2,0,0,1,.68-.13,2,2,0,0,1,.69.13,1.74,1.74,0,0,1,.58.39,1.65,1.65,0,0,1,.52,1.22,1.63,1.63,0,0,1-.13.67,1.79,1.79,0,0,1-.38.56,1.94,1.94,0,0,1-.6.39,1.72,1.72,0,0,1-.68.13,1.79,1.79,0,0,1-.68-.13,1.84,1.84,0,0,1-.57-.38,1.81,1.81,0,0,1-.39-.57A1.67,1.67,0,0,1,115,3.68Zm2.79,0a1.12,1.12,0,0,0-.29-.77,1,1,0,0,0-1.42,0,1.07,1.07,0,0,0-.29.77,1,1,0,0,0,.29.76.92.92,0,0,0,.71.31.93.93,0,0,0,.71-.31A1.09,1.09,0,0,0,117.81,3.69Z"/><path class="cls-1" d="M119.41,5.3V0h.74V5.3Z"/><path class="cls-1" d="M121,3.68a1.71,1.71,0,0,1,.53-1.23,1.84,1.84,0,0,1,.57-.38,2,2,0,0,1,.68-.13,1.93,1.93,0,0,1,.69.13,1.74,1.74,0,0,1,.58.39,1.65,1.65,0,0,1,.52,1.22A1.69,1.69,0,0,1,124,4.91a2,2,0,0,1-.59.39,1.8,1.8,0,0,1-.69.13,1.7,1.7,0,0,1-.67-.13,1.88,1.88,0,0,1-.58-.38,1.81,1.81,0,0,1-.39-.57A1.67,1.67,0,0,1,121,3.68Zm2.79,0a1.12,1.12,0,0,0-.29-.77,1,1,0,0,0-1.42,0,1.07,1.07,0,0,0-.29.77,1,1,0,0,0,.29.76.92.92,0,0,0,.71.31.93.93,0,0,0,.71-.31A1.09,1.09,0,0,0,123.76,3.69Z"/><path class="cls-1" d="M125.33,5.3V2.06h.7v.53a1.28,1.28,0,0,1,.52-.49,1.61,1.61,0,0,1,.73-.16,1.46,1.46,0,0,1,.62.12,1,1,0,0,1,.4.34,1.25,1.25,0,0,1,.12.31,4,4,0,0,1,0,.62v2h-.75V3.63a1.52,1.52,0,0,0-.16-.85.64.64,0,0,0-.55-.21,1.11,1.11,0,0,0-.46.1.66.66,0,0,0-.32.27.82.82,0,0,0-.12.3,3.91,3.91,0,0,0,0,.58V5.3Z"/><path class="cls-1" d="M129.38.66a.45.45,0,0,1,.14-.33.46.46,0,0,1,.66,0,.42.42,0,0,1,.13.33.49.49,0,0,1-.13.33.48.48,0,0,1-.66,0A.49.49,0,0,1,129.38.66Zm.1,4.64V2.06h.74V5.3Z"/><path class="cls-1" d="M134.33,5.3h-.74V4.88a1.31,1.31,0,0,1-.47.41,1.16,1.16,0,0,1-.6.14A1.34,1.34,0,0,1,131.44,5a1.9,1.9,0,0,1-.4-1.29,1.93,1.93,0,0,1,.4-1.25,1.32,1.32,0,0,1,1.06-.48,1.34,1.34,0,0,1,.68.17,1,1,0,0,1,.41.48V2.06h.74Zm-.72-1.63a1.18,1.18,0,0,0-.24-.79.81.81,0,0,0-.65-.28.82.82,0,0,0-.66.29,1.23,1.23,0,0,0-.24.8,1.19,1.19,0,0,0,.23.8.79.79,0,0,0,.66.28.82.82,0,0,0,.65-.3A1.27,1.27,0,0,0,133.61,3.67Z"/><path class="cls-3" d="M103.17,63.18a2.13,2.13,0,0,1,1.23.31h0a1.17,1.17,0,0,1-1.24-.3Z"/><path class="cls-3" d="M103.16,63.2l-.39-.05v0l.39,0Z"/><path class="cls-3" d="M100.71,53.8l-.13-.08c.11-.09.08.05.13.08Z"/><path class="cls-3" d="M104.4,63.49l.23.1h0l-.22-.1Z"/><path class="cls-3" d="M100.92,53.91l-.21-.11h0l.23.09Z"/><path class="cls-4" d="M83.94,45.54A10.36,10.36,0,0,0,82.59,43c-2.57-4.42-1.88-8.85,2-12.19a31,31,0,0,1,7.09-4.51c1.42-.67,2.06-.12,2.6,1a3.27,3.27,0,0,1,.2.76c.44,2,.43,2,2.09,1A11.64,11.64,0,0,1,100.67,28c.86-.14.91.44.82,1.12a13.45,13.45,0,0,1-2.16,6,13.47,13.47,0,0,1,8-1.86c1,0,2.41-.12,2.87.56s-.8,1.53-1.23,2.35c-.56,1.05-2,2.18-1.67,3s2.2.56,3.38.74c2.15.32,4.31.5,6.47.75.41,0,.87,0,1.12.46l0,0c-.18.25-.39.49-.56.75-2,3.24-4.38,6.15-8.21,7.42a6.53,6.53,0,0,0-2.38.85l-1.1.06c-.61,0-.61.38-.45.83l.63,1.89a3.46,3.46,0,0,1-.89-1.66,2,2,0,0,0-1.58-1.38,24,24,0,0,1-6.62-2.65c-1.09-2.75-3-4-5.65-3.52a4.72,4.72,0,0,0-4,4.51c-.08,2.63,1.46,4.45,4.31,5.1a37.05,37.05,0,0,1,2.51,7.72c.75,3.25,1.16,6.53-1,9.51-.81-.11-1.21.62-1.84.89l-2.12.38c-.69-.52-1.54-.33-2.31-.5a3.89,3.89,0,0,1-3.31-3.56,18.34,18.34,0,0,1,.37-5.86c.55-3.13,1.31-6.23,1.23-9.45a1.71,1.71,0,0,0-.06-1.16,6.85,6.85,0,0,0-.68-4.7A1.6,1.6,0,0,0,83.94,45.54Z"/><path class="cls-5" d="M89.4,71.85l2.12-.38a3.83,3.83,0,0,1,0,1.58c-.31,1.5-.69,3-.86,4.51-.31,2.83,1.44,4.09,4.05,3,1.55-.64,2-2.12,2.73-3.46,1,1.2,2,2.49,3.78,2s2.3-1.84,2.45-3.64c1.27,1.09,2.41,2.22,4.13,1.64s1.84-2.33,2.32-4A4.93,4.93,0,0,0,113.32,75a3,3,0,0,0,3.2-1.27,2.64,2.64,0,0,0-.2-3.13c-.26-.34-.46-.71-.69-1.07-2.43-3.92-5-7.78-6.58-12.13-.9-2.45-1.86-4.86-3-7.21l1.1-.06a2.75,2.75,0,0,1,.24.41A170.41,170.41,0,0,0,119.2,73.25c1.1,1.84,2.55,3.55,2.59,5.87-2.26,3.37-5.07,3.28-9.45-.4,0,2.39-.12,4.64-2.75,5.53s-3.87-1-5.35-2.75c-.07.72-.09,1.3-.18,1.87-.49,3.38-3.49,4.66-6.22,2.69a10.19,10.19,0,0,1-1.67-1.92c-.63-.75-.34.2-.51.32a3.36,3.36,0,0,0-1.36,2.87l0,0-5.09,1.87h-.05c-.66-.45-1-1.27-1.8-1.57a6.4,6.4,0,0,1-.19-4,81.55,81.55,0,0,0,2-11.09A3,3,0,0,1,89.4,71.85Z"/><path class="cls-6" d="M94.26,86.75l0,0c-.07-1.11,1.3-1.72,1.36-2.86.17-.13-.12-1.08.51-.32a10.13,10.13,0,0,0,1.67,1.91c2.73,2,5.73.69,6.22-2.68.09-.57.11-1.15.18-1.87,1.48,1.69,2.76,3.62,5.35,2.74s2.8-3.14,2.75-5.52c4.38,3.67,7.19,3.76,9.45.4a6.3,6.3,0,0,1,1.33,2,6.11,6.11,0,0,1,.44,3.58c-2.77,3.05-6,2.72-9.78-1.12,0,2.56-.14,5.16-2.88,6.06s-4.35-1-5.84-3.16c-.14,2.46-.2,4.84-2.79,5.76-3,1.09-4.52-1.17-6.24-3.38C95.6,92,93.5,94.05,90.19,95c-.69.27-.94.13-1.51-.46-2.06-2-2.54-6.59-1.77-9,.56.25,2,2.37,2.81,2.16"/><path class="cls-6" d="M85.32,51.32a1.71,1.71,0,0,1,.06,1.16,20.55,20.55,0,0,0-7.81,3c0-4.8,2.31-7.92,6.37-9.89a1.6,1.6,0,0,1,.7,1.08A9,9,0,0,0,79,53.14,18,18,0,0,1,85.32,51.32Z"/><path class="cls-7" d="M93.36,70.58c2.13-3,1.72-6.26,1-9.51a37.05,37.05,0,0,0-2.51-7.72c3.89-.13,5.93-2.45,5.34-6.09a24,24,0,0,0,6.62,2.65,2,2,0,0,1,1.58,1.38,3.38,3.38,0,0,0,.89,1.65c.6,1.71,1.29,3.37,2,5,1.21,2.65,2.7,5.2,3.44,8.05.37,1.4-.19,1.86-1.65,1.89a5.53,5.53,0,0,1-2.89-1.18c-.45,3-1.8,4-4.59,1.67,0,.22-.11.41-.14.6-.46,2.22-1.8,2.78-3.6,1.42-.82-.62-.94-.17-1.35.44-.6.89-1.24,1.9-2.58,1.83S93.82,71.33,93.36,70.58Z"/><path class="cls-8" d="M93.36,70.58c.46.75.21,2,1.57,2.1s2-.94,2.58-1.83c.41-.61.53-1.06,1.35-.44,1.8,1.36,3.14.8,3.6-1.42,0-.19.09-.38.14-.6,2.79,2.33,4.14,1.28,4.59-1.67a5.53,5.53,0,0,0,2.89,1.18c1.46,0,2-.49,1.65-1.89-.74-2.85-2.23-5.4-3.44-8.05-.75-1.65-1.44-3.31-2-5l-.63-1.88c-.16-.45-.16-.8.45-.83,1.12,2.35,2.08,4.76,3,7.21,1.61,4.35,4.15,8.21,6.58,12.13.23.36.43.73.69,1.07a2.64,2.64,0,0,1,.2,3.13,3,3,0,0,1-3.2,1.27,4.93,4.93,0,0,1-3.23-1.91c-.48,1.65-.54,3.38-2.32,4s-2.86-.55-4.13-1.64c-.15,1.8-.71,3.18-2.45,3.64s-2.8-.8-3.78-2c-.7,1.34-1.18,2.82-2.73,3.46-2.61,1.08-4.36-.18-4.05-3,.17-1.52.55-3,.86-4.51a3.83,3.83,0,0,0,0-1.58C92.15,71.2,92.55,70.47,93.36,70.58Z"/><path class="cls-9" d="M97.16,47.26c.59,3.64-1.45,6-5.34,6.09-2.85-.65-4.39-2.47-4.31-5.1a4.72,4.72,0,0,1,4-4.51C94.11,43.29,96.07,44.51,97.16,47.26Zm-7.29.2a1.81,1.81,0,0,0-1,2.43,1.69,1.69,0,0,0,2.37,1.16,1.78,1.78,0,0,0,1.17-2.42A1.89,1.89,0,0,0,89.87,47.46Z"/><path class="cls-10" d="M85.32,51.32A18,18,0,0,0,79,53.14a9,9,0,0,1,5.6-6.52A6.85,6.85,0,0,1,85.32,51.32Z"/><path class="cls-10" d="M89.87,47.46a1.89,1.89,0,0,1,2.51,1.17,1.78,1.78,0,0,1-1.17,2.42,1.69,1.69,0,0,1-2.37-1.16A1.81,1.81,0,0,1,89.87,47.46Z"/><path class="cls-11" d="M100.63,102.71a42.15,42.15,0,1,1,42.15-42.15A42.2,42.2,0,0,1,100.63,102.71Zm0-83.3a41.15,41.15,0,1,0,41.15,41.15A41.2,41.2,0,0,0,100.63,19.41Z"/></g></g></svg>