<svg xmlns="http://www.w3.org/2000/svg" viewBox="0 0 201.26 172.49"><defs><style>.cls-1{fill:#222221;}.cls-2{fill:#dfdee2;}.cls-3{fill:#a81a1b;}.cls-4{fill:#289548;}.cls-5{fill:#cb4f24;}.cls-6{fill:#f6e63c;}.cls-7{fill:#3273b2;}.cls-8{fill:#f3f1f3;}.cls-9{fill:#161817;}.cls-10{fill:#009de0;}.cls-11{fill:#fff;}</style></defs><g id="Capa_2" data-name="Capa 2"><g id="Capa_1-2" data-name="Capa 1"><rect class="cls-1" width="201.26" height="124.67"/><path class="cls-2" d="M42.68,81.78a1.35,1.35,0,0,1,.79.2h0a.73.73,0,0,1-.79-.19Z"/><path class="cls-2" d="M42.68,81.79l-.25,0v0l.24,0Z"/><path class="cls-2" d="M41.11,75.77,41,75.71c.07,0,0,0,.08.06Z"/><path class="cls-2" d="M43.47,82l.15.06h0L43.47,82Z"/><path class="cls-2" d="M41.25,75.84l-.14-.07h0l.14,0Z"/><path class="cls-3" d="M30.36,70.47a6.75,6.75,0,0,0-.86-1.61,5.78,5.78,0,0,1,1.26-7.81,20.46,20.46,0,0,1,4.54-2.89c.92-.43,1.33-.07,1.67.67a2.52,2.52,0,0,1,.13.49c.28,1.28.28,1.28,1.33.65a7.68,7.68,0,0,1,2.66-.72c.55-.09.58.28.52.72a8.63,8.63,0,0,1-1.39,3.83,8.61,8.61,0,0,1,5.15-1.2c.65,0,1.54-.08,1.84.36s-.52,1-.79,1.5c-.36.68-1.3,1.4-1.07,1.94s1.41.36,2.17.47c1.37.21,2.76.33,4.14.48.27,0,.56,0,.72.3h0a5.48,5.48,0,0,0-.35.49c-1.32,2.07-2.81,3.93-5.27,4.74a4.34,4.34,0,0,0-1.52.55l-.71,0c-.39,0-.39.25-.29.54l.41,1.2a2.2,2.2,0,0,1-.57-1.06,1.26,1.26,0,0,0-1-.89,15,15,0,0,1-4.24-1.69,3.13,3.13,0,0,0-3.63-2.26,3,3,0,0,0-2.56,2.89,3.13,3.13,0,0,0,2.76,3.27,23.48,23.48,0,0,1,1.61,5c.48,2.08.75,4.18-.62,6.09-.52-.07-.77.4-1.18.57l-1.35.24c-.45-.33-1-.21-1.48-.32a2.5,2.5,0,0,1-2.13-2.28A11.81,11.81,0,0,1,30.5,81a31,31,0,0,0,.79-6.06,1.17,1.17,0,0,0,0-.74,4.41,4.41,0,0,0-.44-3A1,1,0,0,0,30.36,70.47Z"/><path class="cls-4" d="M33.87,87.33l1.35-.24a2.46,2.46,0,0,1,0,1c-.2,1-.44,1.92-.55,2.89-.2,1.81.93,2.62,2.6,1.93,1-.41,1.29-1.36,1.74-2.22.63.77,1.26,1.6,2.43,1.28S42.89,90.8,43,89.65c.81.7,1.54,1.43,2.64,1s1.18-1.49,1.49-2.55a3.16,3.16,0,0,0,2.07,1.23,1.91,1.91,0,0,0,2.05-.82,1.69,1.69,0,0,0-.13-2c-.16-.22-.3-.46-.44-.69a43.59,43.59,0,0,1-4.22-7.77c-.57-1.57-1.19-3.11-1.91-4.62l.71,0c0,.09.11.17.15.26A109.93,109.93,0,0,0,53,88.23c.71,1.18,1.64,2.28,1.66,3.76-1.44,2.16-3.24,2.1-6-.25,0,1.52-.08,3-1.76,3.54s-2.48-.68-3.43-1.76c0,.46-.06.83-.11,1.2a2.39,2.39,0,0,1-4,1.72,6.56,6.56,0,0,1-1.07-1.23c-.4-.48-.22.12-.32.2A2.15,2.15,0,0,0,37,97.25l0,0-3.26,1.2h0c-.42-.3-.64-.82-1.15-1a4.15,4.15,0,0,1-.13-2.56,51.81,51.81,0,0,0,1.29-7.1A1.72,1.72,0,0,1,33.87,87.33Z"/><path class="cls-5" d="M37,96.88l0,0c0-.72.83-1.11.87-1.84.11-.08-.08-.68.33-.2A6.51,6.51,0,0,0,39.26,96a2.39,2.39,0,0,0,4-1.72c0-.37.07-.74.11-1.2,1,1.08,1.77,2.32,3.43,1.76s1.8-2,1.77-3.54c2.8,2.35,4.6,2.41,6,.25a4.1,4.1,0,0,1,.85,1.32,3.83,3.83,0,0,1,.28,2.29c-1.77,2-3.83,1.74-6.27-.72,0,1.64-.08,3.31-1.84,3.89s-2.78-.66-3.74-2c-.09,1.58-.13,3.1-1.79,3.69-1.94.7-2.89-.75-4-2.17a4.64,4.64,0,0,1-3.74,4.28c-.45.17-.61.08-1-.3-1.32-1.24-1.62-4.21-1.14-5.79.37.16,1.28,1.52,1.81,1.38"/><path class="cls-5" d="M31.25,74.18a1.17,1.17,0,0,1,0,.74,13.18,13.18,0,0,0-5,1.89,6.61,6.61,0,0,1,4.07-6.34,1,1,0,0,1,.45.69,5.79,5.79,0,0,0-3.58,4.19A11.48,11.48,0,0,1,31.25,74.18Z"/><path class="cls-6" d="M36.4,86.52c1.37-1.91,1.1-4,.62-6.09a23.48,23.48,0,0,0-1.61-5c2.5-.09,3.8-1.57,3.43-3.9a15,15,0,0,0,4.24,1.69,1.26,1.26,0,0,1,1,.89,2.2,2.2,0,0,0,.57,1.06c.38,1.09.83,2.16,1.31,3.21a32.14,32.14,0,0,1,2.2,5.16c.24.9-.12,1.19-1.06,1.21a3.56,3.56,0,0,1-1.85-.75c-.29,1.88-1.15,2.56-2.94,1.06,0,.15-.07.27-.09.39-.3,1.42-1.15,1.78-2.31.91-.52-.4-.6-.11-.86.28-.38.57-.8,1.22-1.65,1.17S36.69,87,36.4,86.52Z"/><path class="cls-7" d="M36.4,86.52c.29.48.13,1.3,1,1.34s1.27-.6,1.65-1.17c.26-.39.34-.68.86-.28,1.16.87,2,.51,2.31-.91,0-.12.05-.24.09-.39,1.79,1.5,2.65.82,2.94-1.06a3.56,3.56,0,0,0,1.85.75c.94,0,1.3-.31,1.06-1.21A32.14,32.14,0,0,0,46,78.43c-.48-1.05-.93-2.12-1.31-3.21L44.25,74c-.1-.29-.1-.52.29-.54.72,1.51,1.34,3,1.91,4.62a43.59,43.59,0,0,0,4.22,7.77c.14.23.28.47.44.69a1.69,1.69,0,0,1,.13,2,1.91,1.91,0,0,1-2.05.82,3.16,3.16,0,0,1-2.07-1.23c-.31,1.06-.35,2.17-1.49,2.55s-1.83-.35-2.64-1c-.1,1.15-.46,2-1.57,2.33s-1.8-.51-2.43-1.28c-.45.86-.75,1.81-1.74,2.22-1.67.69-2.8-.12-2.6-1.93.11-1,.35-1.93.55-2.89a2.46,2.46,0,0,0,0-1C35.63,86.92,35.88,86.45,36.4,86.52Z"/><path class="cls-8" d="M38.84,71.58c.37,2.33-.93,3.81-3.43,3.9a3.13,3.13,0,0,1-2.76-3.27,3,3,0,0,1,2.56-2.89A3.13,3.13,0,0,1,38.84,71.58Zm-4.68.13a1.16,1.16,0,0,0-.66,1.55A1.08,1.08,0,0,0,35,74a1.15,1.15,0,0,0,.75-1.56A1.2,1.2,0,0,0,34.16,71.71Z"/><path class="cls-9" d="M31.25,74.18a11.48,11.48,0,0,0-4,1.17,5.79,5.79,0,0,1,3.58-4.19A4.41,4.41,0,0,1,31.25,74.18Z"/><path class="cls-9" d="M34.16,71.71a1.2,1.2,0,0,1,1.61.74A1.15,1.15,0,0,1,35,74a1.08,1.08,0,0,1-1.52-.75A1.16,1.16,0,0,1,34.16,71.71Z"/><path class="cls-10" d="M41.06,107.11a27,27,0,1,1,27-27A27,27,0,0,1,41.06,107.11Zm0-53.38A26.37,26.37,0,1,0,67.42,80.1,26.4,26.4,0,0,0,41.06,53.73Z"/><g id="vHnI7x.tif"><path d="M36.48,165.92H33.8V135.66h2.68Z"/><path d="M74.49,135.63h2.64v30.26H74.49Z"/><path d="M48.39,165.92H46.25V135.64h2.14Z"/><path d="M21.84,165.92H20V135.66h1.88Z"/><path d="M14.08,135.64h1.47V171H14.08Z"/><path d="M82.59,135.64h1.47V171H82.59Z"/><path d="M65.87,165.92h-1.6V135.65h1.6Z"/><path d="M72.18,135.63h1.28v30.28c-.2,0-.41,0-.63,0h-.65Z"/><path d="M27.5,135.63h1.41V165.9H27.5Z"/><path d="M62.4,165.92H61.13V135.66H62.4Z"/><path d="M16.23,135.63h.89V171h-.89Z"/><path d="M57.15,135.63h1.16V165.9H57.15Z"/><path d="M43.45,165.92H42.38V135.66h1.07Z"/><path d="M32.7,165.92H31.62V135.66H32.7Z"/><path d="M52.21,135.63h1v30.26h-1Z"/><path d="M80.86,135.64h.87v30.28h-.87Z"/><path d="M59.57,135.64h.82V165.9h-.82Z"/><path d="M37.42,135.63h.82V165.9h-.82Z"/><path d="M40.19,135.65h.87v30.24h-.87Z"/><path d="M19.14,165.92h-.79V135.65h.79Z"/><path d="M50.82,165.92h-.68V135.65l.68-.05Z"/><path d="M78.12,135.63h.77v30.26h-.77Z"/><path d="M55.81,135.63h.6V165.9l-.6,0Z"/><path d="M25.49,135.61l.6,0v30.25l-.6.06Z"/><path d="M23.14,165.91h-.58V135.67l.58-.07Z"/><path d="M39.12,165.89V135.67c.42-.15.61,0,.57.41v29.18C39.69,165.61,39.81,166.1,39.12,165.89Z"/><path d="M80.33,135.66v30.23c-.44.15-.59,0-.58-.43,0-1.15,0-2.31,0-3.47q0-12.83,0-25.64C79.76,136,79.58,135.46,80.33,135.66Z"/><path d="M84.94,171.08a3.91,3.91,0,0,1-.35-.48c0-.09,0-.22,0-.33q0-17,0-33.92c0-.32-.21-.86.54-.7v35.28Z"/><path d="M30.33,135.55a2.37,2.37,0,0,1,.33.38c.05.08,0,.22,0,.33v29.58l-.15.14a2.33,2.33,0,0,1-.38-.39c-.06-.1,0-.26,0-.39V135.69Z"/><path d="M68.82,135.54a2.53,2.53,0,0,1,.33.42,1.07,1.07,0,0,1,0,.4v29.51c-.38.13-.59.09-.57-.34,0-.11,0-.22,0-.33V135.7Z"/><path d="M85.75,135.54c.41.5.4,35.05,0,35.53Z"/><path d="M49,135.5c.17.16.31.23.33.33a2.4,2.4,0,0,1,0,.6v28.7a.76.76,0,0,1,0,.26c-.06.19-.14.36-.21.54a1.69,1.69,0,0,1-.2-.54q0-14.64,0-29.3A4.9,4.9,0,0,1,49,135.5Z"/><path d="M45.11,165.91V135.64l.13-.06a.85.85,0,0,1,.21.31,1.76,1.76,0,0,1,0,.46q0,14.43,0,28.84a6.56,6.56,0,0,1-.09.76Z"/><path d="M24.19,150.84v14.28a3,3,0,0,1,0,.6.31.31,0,0,1-.2.2c-.07,0-.18-.12-.2-.2a2.33,2.33,0,0,1,0-.46v-29a2.43,2.43,0,0,1,0-.47c0-.08.13-.19.2-.19a.27.27,0,0,1,.2.19,3,3,0,0,1,0,.6Z"/><path d="M70.12,135.65V166C69.76,165.58,69.71,136.19,70.12,135.65Z"/><path d="M36.66,169.46c-.91-.93-1-1.69-.32-2.34a2,2,0,0,1,2.61.06c.57.65.38,1.49-.48,2.16,1.13,1,1.32,1.84.56,2.6a2.24,2.24,0,0,1-3-.08C35.4,171.12,35.64,170.22,36.66,169.46Zm2,1.43a1.32,1.32,0,0,0-1.24-1.17,1.24,1.24,0,0,0-1,1.17,1.1,1.1,0,0,0,1.17,1A1,1,0,0,0,38.69,170.89Zm-.15-2.75a.87.87,0,0,0-.92-.91.86.86,0,0,0-1,.83,1.11,1.11,0,0,0,1,1.06A1.07,1.07,0,0,0,38.54,168.14Z"/><path d="M71.21,169.45c-.89-.86-1-1.7-.33-2.33a2,2,0,0,1,2.56,0c.62.66.47,1.44-.42,2.22,1.11,1,1.29,1.87.52,2.61a2.23,2.23,0,0,1-3-.12C69.91,171.08,70.16,170.22,71.21,169.45Zm2,1.44A1.42,1.42,0,0,0,72,169.71a1.22,1.22,0,0,0-1,1.15,1,1,0,0,0,1.1,1.07A1.07,1.07,0,0,0,73.25,170.89Zm-.19-2.77a.84.84,0,0,0-.92-.89.88.88,0,0,0-1,.85,1.13,1.13,0,0,0,1,1A1.07,1.07,0,0,0,73.06,168.12Z"/><path d="M58.17,169.65a15.76,15.76,0,0,1-.4,1.73,1.6,1.6,0,0,1-1.58,1.1,1.57,1.57,0,0,1-1.55-1.06,4.64,4.64,0,0,1,0-3.62,1.71,1.71,0,0,1,1.71-1.14A1.68,1.68,0,0,1,57.89,168,16.34,16.34,0,0,1,58.17,169.65Zm-3.2-.08a8.49,8.49,0,0,0,.42,1.67,1.2,1.2,0,0,0,.84.6,1.08,1.08,0,0,0,.79-.57,4.26,4.26,0,0,0,0-3.43,1.07,1.07,0,0,0-.81-.53,1,1,0,0,0-.75.51A11.05,11.05,0,0,0,55,169.57Z"/><path d="M25,169.49a14.37,14.37,0,0,1,.56-1.89,1.56,1.56,0,0,1,1.63-.93,1.58,1.58,0,0,1,1.44,1.1,5,5,0,0,1,0,3.58,1.64,1.64,0,0,1-1.63,1.13,1.58,1.58,0,0,1-1.55-1.15A16.78,16.78,0,0,1,25,169.49Zm.8,0a9.41,9.41,0,0,0,.4,1.7,1.17,1.17,0,0,0,.82.61,1.15,1.15,0,0,0,.84-.6,4.26,4.26,0,0,0,0-3.36,1.08,1.08,0,0,0-.78-.57,1,1,0,0,0-.81.52A9.45,9.45,0,0,0,25.75,169.53Z"/><path d="M63.5,169.58a14.83,14.83,0,0,1-.46,1.86,1.56,1.56,0,0,1-1.56,1,1.52,1.52,0,0,1-1.5-1,4.62,4.62,0,0,1,0-3.75,1.65,1.65,0,0,1,1.69-1.06,1.56,1.56,0,0,1,1.49,1.21A16.24,16.24,0,0,1,63.5,169.58Zm-.8,0a7.46,7.46,0,0,0-.32-1.59,1.25,1.25,0,0,0-.85-.66,1.06,1.06,0,0,0-.83.59,4,4,0,0,0,0,3.34,1.17,1.17,0,0,0,.85.59,1.16,1.16,0,0,0,.81-.63A9,9,0,0,0,62.7,169.57Z"/><path d="M65.32,172.24c.17-.14.32-.38.5-.4a2.24,2.24,0,0,0,2.1-1.89,4.83,4.83,0,0,1-.9.38,1.55,1.55,0,0,1-1.76-.63,1.91,1.91,0,0,1,0-2.08,1.78,1.78,0,0,1,1.77-1,1.62,1.62,0,0,1,1.37.82,3.4,3.4,0,0,1-2.28,5,3.87,3.87,0,0,1-.59,0Zm2.62-3.46c0-.9-.45-1.52-1.13-1.52a1.21,1.21,0,0,0-1.12,1.31,1.13,1.13,0,0,0,1.11,1.23A1.05,1.05,0,0,0,67.94,168.78Z"/><path d="M19.49,170.89a5,5,0,0,1,.35-.91c.61-.92,1.27-1.82,1.88-2.74a.89.89,0,0,1,1.18-.42v3.32c.77.16.77.16.77.67l-.75.11v1.41h-.73v-1.44Zm.91-.7h1.7v-2.43Z"/><path d="M54,165.9V135.65h.14V165.9Z"/><path d="M71.21,165.9V135.66h.12V165.9Z"/><path d="M44.63,135.67v30.22h-.12V135.66Z"/><path d="M29.54,135.65v30.27C29.29,165.6,29.17,136.79,29.54,135.65Z"/><ellipse cx="67.42" cy="150.78" rx="0.11" ry="21.4"/><path d="M76.79,171.76c.68,0,1.29,0,1.91,0,.43,0,.56.15.41.59H75.42a6.07,6.07,0,0,1,.52-.76c.53-.57,1.09-1.11,1.62-1.67a2.65,2.65,0,0,0,.33-.42,1.61,1.61,0,0,0,.13-1.86c-.39-.42-1-.44-1.78,0l-.23.1c-.34-.32-.25-.53.11-.73a2.16,2.16,0,0,1,2.48.18,1.84,1.84,0,0,1,.09,2.34C78.15,170.26,77.48,170.94,76.79,171.76Z"/><path d="M51.91,167.4H49.24c-.15-.41-.15-.67.38-.66,1,0,2,0,3.11,0a3.3,3.3,0,0,1-.14.78c-.7,1.48-1.43,3-2.11,4.45-.22.47-.53.45-1,.34Z"/><path d="M43.43,166.79v5.54l-.72,0v-4.89l-.91.45C41.51,167.31,42.33,166.71,43.43,166.79Z"/><path d="M32.13,167.49l-1.06.5c0-.25-.07-.57,0-.61.52-.29,1-.77,1.71-.59v5.54h-.66Z"/></g><g id="bfaZqS.tif"><path class="cls-11" d="M150.39,154.62V135.69h13.14c.3.18.61.33.89.53a9.14,9.14,0,0,1,2.53,2c1.53,2.43,2.82,5,4.22,7.56a9.45,9.45,0,0,0-1.14.59,4.44,4.44,0,0,0-.68.69,3,3,0,0,0,.87.42c2.3.21,4.61.41,6.92.54a1.37,1.37,0,0,0,1.05-.51c1.2-1.9,2.32-3.84,3.46-5.78a2.58,2.58,0,0,0,.31-.7c.15-.59-.1-.81-.66-.6s-1.16.51-1.78.8c-.55-1.08-1.06-2.08-1.56-3.08a3.93,3.93,0,0,0-3.17-2.22c-.28,0-.55-.13-.83-.2h13.72v36.13H150.39V156.17l2.93,5.05,2.81,4.86a10.24,10.24,0,0,1,.56-3.15c1.41-2.58,3.05-5,4.63-7.57.44.26.75.48,1.1.64a6.17,6.17,0,0,0,.86.28,2.52,2.52,0,0,0-.08-1q-1.65-3.21-3.39-6.38a1,1,0,0,0-.72-.46c-2.51,0-5,.1-7.53.19-.21,0-.59.23-.59.34a1,1,0,0,0,.37.66,16.78,16.78,0,0,0,1.51,1Zm25.15,14.31c1.2,0,2.29,0,3.37,0a3.1,3.1,0,0,0,3.11-1.82c1.6-3,3.27-6,4.9-9a4.43,4.43,0,0,0,.21-.44,9.65,9.65,0,0,1-2.83,1.34c-3.05.31-6.12.36-9.28.52a11.76,11.76,0,0,0,0-1.51,2.81,2.81,0,0,0-.35-.72c-.21.17-.5.3-.62.52-1.19,2-2.37,4-3.5,6.09a1.32,1.32,0,0,0,0,1.1c1.2,1.93,2.47,3.83,3.71,5.74a1.62,1.62,0,0,0,.36.45.87.87,0,0,0,.59.18.72.72,0,0,0,.3-.51C175.56,170.32,175.54,169.71,175.54,168.93Zm-7-9.17a2,2,0,0,0-.26-.09h-5.59c-2.72,0-2.7,0-4.14,2.27a6.63,6.63,0,0,0-1,4.69,2.32,2.32,0,0,0,2.59,2.26h7.62a7.16,7.16,0,0,0,.76-.07Zm6.25-9.09c.91,1.51,1.75,2.92,2.61,4.31.66,1.05,1.13,2.51,2.09,3s2.51.13,3.79.13h.1a4.78,4.78,0,0,0,3.91-2.89,2.35,2.35,0,0,0-.08-1.91c-1.46-2.42-3.05-4.76-4.63-7.18Zm-11.29-.94c1.21-1.88,2.31-3.77,3.61-5.51a2.44,2.44,0,0,0,.11-3.34,21.16,21.16,0,0,0-2.93-3.5,2.87,2.87,0,0,0-4.36.94l-2.09,3.35-1.87,3Z"/><path d="M174,135.69c.28.07.55.15.83.2a3.93,3.93,0,0,1,3.17,2.22c.5,1,1,2,1.56,3.08.62-.29,1.19-.57,1.78-.8s.81,0,.66.6a2.58,2.58,0,0,1-.31.7c-1.14,1.94-2.26,3.88-3.46,5.78a1.37,1.37,0,0,1-1.05.51c-2.31-.13-4.62-.33-6.92-.54a3,3,0,0,1-.87-.42,4.44,4.44,0,0,1,.68-.69,9.45,9.45,0,0,1,1.14-.59c-1.4-2.55-2.69-5.13-4.22-7.56a9.14,9.14,0,0,0-2.53-2c-.28-.2-.59-.35-.89-.53Z"/><path d="M150.39,154.62l2.46-4a16.78,16.78,0,0,1-1.51-1A1,1,0,0,1,151,149c0-.11.38-.34.59-.34,2.51-.09,5-.16,7.53-.19a1,1,0,0,1,.72.46q1.74,3.17,3.39,6.38a2.52,2.52,0,0,1,.08,1,6.17,6.17,0,0,1-.86-.28c-.35-.16-.66-.38-1.1-.64-1.58,2.54-3.22,5-4.63,7.57a10.24,10.24,0,0,0-.56,3.15l-2.81-4.86-2.93-5.05Z"/><path d="M175.54,168.93c0,.78,0,1.39,0,2a.72.72,0,0,1-.3.51.87.87,0,0,1-.59-.18,1.62,1.62,0,0,1-.36-.45c-1.24-1.91-2.51-3.81-3.71-5.74a1.32,1.32,0,0,1,0-1.1c1.13-2.05,2.31-4.07,3.5-6.09.12-.22.41-.35.62-.52a2.81,2.81,0,0,1,.35.72,11.76,11.76,0,0,1,0,1.51c3.16-.16,6.23-.21,9.28-.52a9.65,9.65,0,0,0,2.83-1.34,4.43,4.43,0,0,1-.21.44c-1.63,3-3.3,6-4.9,9a3.1,3.1,0,0,1-3.11,1.82C177.83,168.89,176.74,168.93,175.54,168.93Z"/><path d="M168.52,159.76v9.05a7.16,7.16,0,0,1-.76.07h-7.62a2.32,2.32,0,0,1-2.59-2.26,6.63,6.63,0,0,1,1-4.69c1.44-2.26,1.42-2.27,4.14-2.27h5.59A2,2,0,0,1,168.52,159.76Z"/><path d="M174.77,150.67l7.79-4.54c1.58,2.42,3.17,4.76,4.63,7.18a2.35,2.35,0,0,1,.08,1.91,4.78,4.78,0,0,1-3.91,2.89h-.1c-1.28,0-2.78.39-3.79-.13s-1.43-2-2.09-3C176.52,153.59,175.68,152.18,174.77,150.67Z"/><path d="M163.48,149.73l-7.53-5,1.87-3,2.09-3.35a2.87,2.87,0,0,1,4.36-.94,21.16,21.16,0,0,1,2.93,3.5,2.44,2.44,0,0,1-.11,3.34C165.79,146,164.69,147.85,163.48,149.73Z"/></g><path class="cls-11" d="M96.94,39.49v-5h.68v5Z"/><path class="cls-11" d="M98.46,39.49V36.14h.61v.33a.77.77,0,0,1,.3-.27.84.84,0,0,1,.4-.09.68.68,0,0,1,.55.2,1,1,0,0,1,.18.63v2.55h-.62V37.24a.81.81,0,0,0-.09-.46.32.32,0,0,0-.3-.13.36.36,0,0,0-.31.13.59.59,0,0,0-.11.38v2.33Z"/><path class="cls-11" d="M103.25,39.57a1.48,1.48,0,0,1-.25,1,1.07,1.07,0,0,1-.85.29,1,1,0,0,1-.75-.25.9.9,0,0,1-.26-.71v-.1h.58a.74.74,0,0,0,.12.41.36.36,0,0,0,.31.13.41.41,0,0,0,.37-.16.91.91,0,0,0,.11-.53v-.47a.87.87,0,0,1-.28.29.8.8,0,0,1-.38.1.69.69,0,0,1-.65-.42,3.14,3.14,0,0,1-.21-1.32,3.09,3.09,0,0,1,.21-1.31.69.69,0,0,1,.65-.42.76.76,0,0,1,.38.09.78.78,0,0,1,.28.29v-.32h.62Zm-1.52-1.76a2.62,2.62,0,0,0,.11.9.37.37,0,0,0,.71,0,3.74,3.74,0,0,0,0-1.8.37.37,0,0,0-.71,0A2.62,2.62,0,0,0,101.73,37.81Z"/><path class="cls-11" d="M104,39.49V36.14h.59v.49a.93.93,0,0,1,.32-.4,1,1,0,0,1,.49-.15v.65h-.1a.69.69,0,0,0-.53.18.8.8,0,0,0-.17.56v2Z"/><path class="cls-11" d="M107.79,38.37v.05a1.2,1.2,0,0,1-.27.83.93.93,0,0,1-.73.3.89.89,0,0,1-.82-.42,2.51,2.51,0,0,1-.26-1.33,2.44,2.44,0,0,1,.26-1.29.86.86,0,0,1,.79-.43.88.88,0,0,1,.81.39,2.38,2.38,0,0,1,.25,1.27v.19h-1.53V38a1.78,1.78,0,0,0,.12.76.39.39,0,0,0,.38.24.34.34,0,0,0,.31-.16.93.93,0,0,0,.12-.49Zm-1.5-.92h.94v-.09a1.31,1.31,0,0,0-.11-.6.38.38,0,0,0-.35-.18.38.38,0,0,0-.36.22A1.39,1.39,0,0,0,106.29,37.45Z"/><path class="cls-11" d="M109.8,39.49v-.33a.76.76,0,0,1-.29.3.72.72,0,0,1-.37.09.68.68,0,0,1-.65-.42,4.19,4.19,0,0,1,0-2.62.69.69,0,0,1,.65-.43.8.8,0,0,1,.38.1.87.87,0,0,1,.28.29V34.19h.62v5.3Zm-.9-1.67a2.62,2.62,0,0,0,.11.9.36.36,0,0,0,.35.26.37.37,0,0,0,.36-.26,4.1,4.1,0,0,0,0-1.8.37.37,0,0,0-.36-.26.36.36,0,0,0-.35.26A2.62,2.62,0,0,0,108.9,37.82Z"/><path class="cls-11" d="M111.08,35.14a.39.39,0,0,1,.11-.29.41.41,0,0,1,.56,0,.44.44,0,0,1,.11.29.4.4,0,0,1-.67.28A.37.37,0,0,1,111.08,35.14Zm.08,4.35V36.14h.62v3.35Z"/><path class="cls-11" d="M114.46,38.37v.05a1.2,1.2,0,0,1-.27.83,1,1,0,0,1-1.55-.12,2.61,2.61,0,0,1-.26-1.33,2.54,2.54,0,0,1,.26-1.29.87.87,0,0,1,.79-.43.9.9,0,0,1,.82.39,2.48,2.48,0,0,1,.25,1.27v.19H113V38a1.78,1.78,0,0,0,.12.76.4.4,0,0,0,.38.24.36.36,0,0,0,.32-.16.94.94,0,0,0,.11-.49Zm-1.5-.92h.94v-.09a1.31,1.31,0,0,0-.11-.6.38.38,0,0,0-.35-.18.38.38,0,0,0-.36.22A1.39,1.39,0,0,0,113,37.45Z"/><path class="cls-11" d="M115.09,39.49V36.14h.61v.33a.77.77,0,0,1,.3-.27.86.86,0,0,1,.41-.09.67.67,0,0,1,.54.2,1,1,0,0,1,.18.63v2.55h-.61V37.24a.81.81,0,0,0-.09-.46.35.35,0,0,0-.31-.13.36.36,0,0,0-.31.13.59.59,0,0,0-.1.38v2.33Z"/><path class="cls-11" d="M117.92,39.49v-2.9h-.34v-.45h.34v-.91h.61v.91H119v.45h-.46v2.9Z"/><path class="cls-11" d="M121.32,38.37v.05a1.2,1.2,0,0,1-.27.83,1,1,0,0,1-1.55-.12,2.61,2.61,0,0,1-.26-1.33,2.54,2.54,0,0,1,.26-1.29.87.87,0,0,1,.79-.43.9.9,0,0,1,.82.39,2.49,2.49,0,0,1,.24,1.27v.19h-1.53V38a1.78,1.78,0,0,0,.12.76.4.4,0,0,0,.38.24.36.36,0,0,0,.32-.16.94.94,0,0,0,.11-.49Zm-1.5-.92h.94v-.09a1.31,1.31,0,0,0-.11-.6.38.38,0,0,0-.35-.18.38.38,0,0,0-.36.22A1.39,1.39,0,0,0,119.82,37.45Z"/><path class="cls-11" d="M121.76,38.79A.8.8,0,0,0,122,39a.58.58,0,0,0,.26.06.45.45,0,0,0,.32-.12.37.37,0,0,0,.12-.29.83.83,0,0,0-.34-.54l-.07-.06a2.46,2.46,0,0,1-.44-.52,1,1,0,0,1-.11-.45.93.93,0,0,1,.26-.69.89.89,0,0,1,.67-.27.84.84,0,0,1,.27,0,.93.93,0,0,1,.26.1v.63a.6.6,0,0,0-.22-.17.57.57,0,0,0-.27-.06.39.39,0,0,0-.28.11.41.41,0,0,0-.11.28.82.82,0,0,0,.32.52l.1.09a2,2,0,0,1,.42.51,1,1,0,0,1,.12.5.88.88,0,0,1-1,.93,1.43,1.43,0,0,1-.29,0l-.3-.09Z"/><path class="cls-11" d="M124,37.41a.41.41,0,0,1,.4-.4.36.36,0,0,1,.27.12.41.41,0,0,1,.11.28.4.4,0,0,1-.11.27.39.39,0,0,1-.27.11.41.41,0,0,1-.28-.11A.37.37,0,0,1,124,37.41Zm0,1.77a.38.38,0,0,1,.12-.28.37.37,0,0,1,.28-.11.35.35,0,0,1,.27.11.41.41,0,0,1,.11.28.37.37,0,0,1-.11.27.39.39,0,0,1-.27.11.41.41,0,0,1-.28-.11A.34.34,0,0,1,124,39.18Z"/><path class="cls-11" d="M126.7,39.49l1.17-5h.63l1.17,5H129l-.24-1h-1.13l-.24,1Zm1.49-3.7L127.74,38h.9Z"/><path class="cls-11" d="M132.11,39.57a1.48,1.48,0,0,1-.25,1,1.05,1.05,0,0,1-.85.29,1,1,0,0,1-.75-.25.94.94,0,0,1-.26-.71v-.1h.59a.67.67,0,0,0,.11.41.37.37,0,0,0,.32.13.42.42,0,0,0,.37-.16,1,1,0,0,0,.11-.53v-.47a.89.89,0,0,1-.29.29.77.77,0,0,1-.38.1.69.69,0,0,1-.65-.42,3.14,3.14,0,0,1-.21-1.32,3.09,3.09,0,0,1,.21-1.31.69.69,0,0,1,.65-.42.76.76,0,0,1,.38.09.8.8,0,0,1,.29.29v-.32h.61Zm-1.51-1.76a2.68,2.68,0,0,0,.1.9.37.37,0,0,0,.71,0,3.74,3.74,0,0,0,0-1.8.37.37,0,0,0-.71,0A2.68,2.68,0,0,0,130.6,37.81Z"/><path class="cls-11" d="M132.84,38.5V36.14h.61v2.4a.52.52,0,0,0,.11.35.36.36,0,0,0,.3.12.38.38,0,0,0,.3-.12.52.52,0,0,0,.1-.35v-2.4h.63V38.5a1.11,1.11,0,0,1-.25.81,1.39,1.39,0,0,1-1.56,0A1.15,1.15,0,0,1,132.84,38.5Z"/><path class="cls-11" d="M137,39.49v-.33a.84.84,0,0,1-.29.3.75.75,0,0,1-.37.09.69.69,0,0,1-.65-.44,3.11,3.11,0,0,1-.22-1.3,3.06,3.06,0,0,1,.22-1.29.69.69,0,0,1,.65-.44.75.75,0,0,1,.37.09.8.8,0,0,1,.29.29v-.32h.61v3.35Zm-.9-1.68a2.79,2.79,0,0,0,.1.91.38.38,0,0,0,.36.26.37.37,0,0,0,.35-.27,3.74,3.74,0,0,0,0-1.8.37.37,0,0,0-.71,0A2.68,2.68,0,0,0,136.13,37.81Z"/><path class="cls-11" d="M139.16,38.82l-.64,1.76-.34-.11.45-1.81Z"/><path class="cls-11" d="M141,39.49V36.14h.61v.33a.75.75,0,0,1,.29-.27.84.84,0,0,1,.4-.09.8.8,0,0,1,.39.09,1,1,0,0,1,.28.31.93.93,0,0,1,.33-.3.82.82,0,0,1,.42-.1.65.65,0,0,1,.54.2,1,1,0,0,1,.18.63v2.55h-.61V37.24a.81.81,0,0,0-.09-.46.34.34,0,0,0-.31-.13.36.36,0,0,0-.31.13.59.59,0,0,0-.1.38v2.33h-.61V37.24a.84.84,0,0,0-.09-.46.33.33,0,0,0-.3-.13.35.35,0,0,0-.3.13.59.59,0,0,0-.1.38v2.33Z"/><path class="cls-11" d="M146.59,39.49v-.33a.84.84,0,0,1-.29.3.79.79,0,0,1-.38.09.68.68,0,0,1-.64-.44,3.11,3.11,0,0,1-.22-1.3,2.91,2.91,0,0,1,.22-1.29.68.68,0,0,1,.64-.44.76.76,0,0,1,.38.09.89.89,0,0,1,.29.29v-.32h.61v3.35Zm-.91-1.68a2.73,2.73,0,0,0,.11.91.37.37,0,0,0,.36.26.37.37,0,0,0,.35-.27,3.74,3.74,0,0,0,0-1.8.37.37,0,0,0-.71,0A2.62,2.62,0,0,0,145.68,37.81Z"/><path class="cls-11" d="M148,39.49v-5.3h.61v5.3Z"/><path class="cls-11" d="M149.38,39.49v-2.9H149v-.45h.34v-.91H150v.91h.46v.45H150v2.9Z"/><path class="cls-11" d="M152.26,39.49v-.33a.76.76,0,0,1-.29.3.75.75,0,0,1-.37.09.67.67,0,0,1-.64-.44,3,3,0,0,1-.22-1.3,3.08,3.08,0,0,1,.21-1.29.69.69,0,0,1,.65-.44.79.79,0,0,1,.38.09.87.87,0,0,1,.28.29v-.32h.62v3.35Zm-.9-1.68a2.48,2.48,0,0,0,.11.91.36.36,0,0,0,.7,0,2.39,2.39,0,0,0,.11-.9,2.68,2.68,0,0,0-.1-.9.38.38,0,0,0-.72,0A2.68,2.68,0,0,0,151.36,37.81Z"/><path class="cls-11" d="M154.39,38.82l-.64,1.76-.34-.11.45-1.81Z"/><path class="cls-11" d="M157.54,39.44a1.25,1.25,0,0,1-.25.09,1.07,1.07,0,0,1-.25,0,.8.8,0,0,1-.75-.42,2.77,2.77,0,0,1-.24-1.32,2.81,2.81,0,0,1,.24-1.3.78.78,0,0,1,.71-.44,1.27,1.27,0,0,1,.28,0,.82.82,0,0,1,.26.1v.59a.42.42,0,0,0-.16-.12.38.38,0,0,0-.17,0,.43.43,0,0,0-.4.3,2.37,2.37,0,0,0-.13.91,2.17,2.17,0,0,0,.12.83.42.42,0,0,0,.39.27l.18,0a.48.48,0,0,0,.17-.12Z"/><path class="cls-11" d="M159.92,38.37v.05a1.25,1.25,0,0,1-.26.83.93.93,0,0,1-.73.3.91.91,0,0,1-.83-.42,2.61,2.61,0,0,1-.26-1.33,2.54,2.54,0,0,1,.26-1.29.87.87,0,0,1,.79-.43.9.9,0,0,1,.82.39,2.48,2.48,0,0,1,.25,1.27v.19h-1.54V38a1.78,1.78,0,0,0,.12.76.4.4,0,0,0,.38.24.35.35,0,0,0,.32-.16,1,1,0,0,0,.12-.49Zm-1.5-.92h.94v-.09a1.19,1.19,0,0,0-.11-.6.38.38,0,0,0-.35-.18.38.38,0,0,0-.36.22A1.39,1.39,0,0,0,158.42,37.45Z"/><path class="cls-11" d="M160.51,39.49v-5.3h.62v2.28a.8.8,0,0,1,.29-.29.77.77,0,0,1,.38-.1.7.7,0,0,1,.65.43,4.19,4.19,0,0,1,0,2.62.69.69,0,0,1-.65.42.76.76,0,0,1-.38-.09.84.84,0,0,1-.29-.3v.33Zm.6-1.67a2.62,2.62,0,0,0,.11.9.37.37,0,0,0,.71,0,3.74,3.74,0,0,0,0-1.8.37.37,0,0,0-.71,0A2.62,2.62,0,0,0,161.11,37.82Z"/><path class="cls-11" d="M164.67,39.49v-.33a.76.76,0,0,1-.29.3.72.72,0,0,1-.37.09.68.68,0,0,1-.64-.44,3,3,0,0,1-.22-1.3,2.91,2.91,0,0,1,.22-1.29.68.68,0,0,1,.64-.44.71.71,0,0,1,.66.38v-.32h.62v3.35Zm-.9-1.68a2.73,2.73,0,0,0,.11.91.37.37,0,0,0,.35.26.38.38,0,0,0,.36-.27,4.1,4.1,0,0,0,0-1.8.37.37,0,0,0-.71,0A2.62,2.62,0,0,0,163.77,37.81Z"/><path class="cls-11" d="M167.41,39.49v-.33a.76.76,0,0,1-.29.3.75.75,0,0,1-.37.09.67.67,0,0,1-.65-.42,4.19,4.19,0,0,1,0-2.62.68.68,0,0,1,.65-.43.8.8,0,0,1,.38.1.87.87,0,0,1,.28.29V34.19H168v5.3Zm-.9-1.67a2.39,2.39,0,0,0,.11.9A.36.36,0,0,0,167,39a.37.37,0,0,0,.36-.26,4.1,4.1,0,0,0,0-1.8.37.37,0,0,0-.36-.26.36.36,0,0,0-.35.26A2.39,2.39,0,0,0,166.51,37.82Z"/><path class="cls-11" d="M170.15,39.49v-.33a.84.84,0,0,1-.29.3.75.75,0,0,1-.37.09.69.69,0,0,1-.65-.44,3.11,3.11,0,0,1-.22-1.3,3.06,3.06,0,0,1,.22-1.29.69.69,0,0,1,.65-.44.72.72,0,0,1,.37.09.8.8,0,0,1,.29.29v-.32h.61v3.35Zm-.9-1.68a2.79,2.79,0,0,0,.1.91.38.38,0,0,0,.36.26.37.37,0,0,0,.35-.27,3.74,3.74,0,0,0,0-1.8.37.37,0,0,0-.71,0A2.68,2.68,0,0,0,169.25,37.81Z"/><path class="cls-11" d="M172.28,38.82l-.64,1.76-.34-.11.45-1.81Z"/><path class="cls-11" d="M175.43,39.44a1.25,1.25,0,0,1-.25.09,1.07,1.07,0,0,1-.25,0,.8.8,0,0,1-.75-.42,2.77,2.77,0,0,1-.24-1.32,2.81,2.81,0,0,1,.24-1.3.78.78,0,0,1,.71-.44,1.27,1.27,0,0,1,.28,0,.82.82,0,0,1,.26.1v.59a.44.44,0,0,0-.17-.12.33.33,0,0,0-.17,0,.42.42,0,0,0-.39.3,2.34,2.34,0,0,0-.14.91,2.14,2.14,0,0,0,.13.83.42.42,0,0,0,.39.27l.18,0a.59.59,0,0,0,.17-.12Z"/><path class="cls-11" d="M175.73,37.81a2.42,2.42,0,0,1,.29-1.29.94.94,0,0,1,.84-.44,1,1,0,0,1,.84.44,3,3,0,0,1,0,2.59,1,1,0,0,1-.84.44.92.92,0,0,1-.84-.44A2.43,2.43,0,0,1,175.73,37.81Zm.62,0a2.44,2.44,0,0,0,.13.9.4.4,0,0,0,.38.29.43.43,0,0,0,.39-.29,2.48,2.48,0,0,0,.12-.9,2.46,2.46,0,0,0-.12-.89.43.43,0,0,0-.39-.29.4.4,0,0,0-.38.29A2.42,2.42,0,0,0,176.35,37.8Z"/><path class="cls-11" d="M178.55,40.84v-4.7h.62v.32a.87.87,0,0,1,.28-.29.79.79,0,0,1,.38-.09.69.69,0,0,1,.65.42,3.09,3.09,0,0,1,.21,1.31,3.14,3.14,0,0,1-.21,1.32.69.69,0,0,1-.65.42.73.73,0,0,1-.37-.1.8.8,0,0,1-.29-.29v1.68Zm.59-3a2.62,2.62,0,0,0,.11.9.36.36,0,0,0,.36.26.35.35,0,0,0,.35-.26,3.74,3.74,0,0,0,0-1.8.36.36,0,0,0-.35-.26.37.37,0,0,0-.36.26A2.62,2.62,0,0,0,179.14,37.81Z"/><path class="cls-11" d="M181.15,37.81a2.33,2.33,0,0,1,.29-1.29,1,1,0,0,1,1.67,0,3,3,0,0,1,0,2.59,1,1,0,0,1-1.67,0A2.34,2.34,0,0,1,181.15,37.81Zm.62,0a2.48,2.48,0,0,0,.12.9.4.4,0,0,0,.77,0,2.25,2.25,0,0,0,.13-.9,2.22,2.22,0,0,0-.13-.89.4.4,0,0,0-.77,0A2.46,2.46,0,0,0,181.77,37.8Z"/><path class="cls-11" d="M183.81,38.79a1.08,1.08,0,0,0,.26.16.62.62,0,0,0,.26.06.44.44,0,0,0,.32-.12.37.37,0,0,0,.12-.29.85.85,0,0,0-.33-.54l-.07-.06a2.18,2.18,0,0,1-.44-.52.89.89,0,0,1-.12-.45,1,1,0,0,1,.26-.69.91.91,0,0,1,.68-.27.75.75,0,0,1,.26,0,1,1,0,0,1,.27.1v.63a.69.69,0,0,0-.22-.17.6.6,0,0,0-.27-.06.42.42,0,0,0-.29.11.41.41,0,0,0-.11.28.8.8,0,0,0,.33.52l.09.09a1.84,1.84,0,0,1,.43.51,1,1,0,0,1,.11.5.89.89,0,0,1-.26.68.93.93,0,0,1-.69.25l-.29,0-.3-.09Z"/><path class="cls-11" d="M98.27,47.89v-.33a.84.84,0,0,1-.29.3.79.79,0,0,1-.38.09.69.69,0,0,1-.65-.42,4.19,4.19,0,0,1,0-2.62.7.7,0,0,1,.65-.43.77.77,0,0,1,.38.1.89.89,0,0,1,.29.29V42.59h.61v5.3Zm-.91-1.67a2.62,2.62,0,0,0,.11.9.37.37,0,0,0,.71,0,3.74,3.74,0,0,0,0-1.8.37.37,0,0,0-.71,0A2.62,2.62,0,0,0,97.36,46.22Z"/><path class="cls-11" d="M101.52,46.77v0a1.2,1.2,0,0,1-.26.83,1,1,0,0,1-1.56-.11,2.68,2.68,0,0,1-.26-1.34,2.54,2.54,0,0,1,.26-1.29.87.87,0,0,1,.8-.43.9.9,0,0,1,.81.39,2.4,2.4,0,0,1,.25,1.27v.19H100v.1a1.75,1.75,0,0,0,.12.76.4.4,0,0,0,.38.24.35.35,0,0,0,.32-.16,1,1,0,0,0,.12-.49Zm-1.5-.92H101v-.09a1.12,1.12,0,0,0-.11-.59.4.4,0,0,0-.7,0A1.27,1.27,0,0,0,100,45.85Z"/><path class="cls-11" d="M104.89,47.89v-.33a.84.84,0,0,1-.29.3.76.76,0,0,1-.38.09.68.68,0,0,1-.64-.44,3.92,3.92,0,0,1,0-2.59.68.68,0,0,1,.64-.44.76.76,0,0,1,.38.09.8.8,0,0,1,.29.29v-.32h.61v3.35ZM104,46.21a2.73,2.73,0,0,0,.11.91.37.37,0,0,0,.71,0,2.73,2.73,0,0,0,.11-.91,2.62,2.62,0,0,0-.11-.9.37.37,0,0,0-.71,0A2.62,2.62,0,0,0,104,46.21Z"/><path class="cls-11" d="M105.92,44.54h.64l.34,1.75c0,.1,0,.22.06.35s0,.27,0,.42c0-.19,0-.34.06-.47a2.77,2.77,0,0,1,0-.29l.34-1.76h.64l-.84,3.35h-.49Z"/><path class="cls-11" d="M110.44,46.77v0a1.2,1.2,0,0,1-.27.83.91.91,0,0,1-.72.3.92.92,0,0,1-.83-.41,2.68,2.68,0,0,1-.26-1.34,2.54,2.54,0,0,1,.26-1.29.87.87,0,0,1,.79-.43.9.9,0,0,1,.82.39,2.5,2.5,0,0,1,.25,1.27v.19h-1.54v.1a1.75,1.75,0,0,0,.12.76.4.4,0,0,0,.38.24.36.36,0,0,0,.32-.16.94.94,0,0,0,.11-.49Zm-1.5-.92h.94v-.09a1.23,1.23,0,0,0-.11-.59.37.37,0,0,0-.35-.19.38.38,0,0,0-.36.22A1.39,1.39,0,0,0,108.94,45.85Z"/><path class="cls-11" d="M111.07,47.89V44.54h.61v.34a.73.73,0,0,1,.3-.28.88.88,0,0,1,.41-.09.7.7,0,0,1,.55.2,1,1,0,0,1,.17.63v2.55h-.61V45.64a.81.81,0,0,0-.09-.46.34.34,0,0,0-.31-.13.36.36,0,0,0-.31.13.59.59,0,0,0-.1.38v2.33Z"/><path class="cls-11" d="M115.25,47.89v-.33a.84.84,0,0,1-.29.3.76.76,0,0,1-.38.09.68.68,0,0,1-.64-.44,3.08,3.08,0,0,1-.22-1.3,2.91,2.91,0,0,1,.22-1.29.68.68,0,0,1,.64-.44.76.76,0,0,1,.38.09.8.8,0,0,1,.29.29v-.32h.61v3.35Zm-.91-1.68a2.73,2.73,0,0,0,.11.91.37.37,0,0,0,.71,0,2.73,2.73,0,0,0,.11-.91,2.62,2.62,0,0,0-.11-.9.37.37,0,0,0-.71,0A2.62,2.62,0,0,0,114.34,46.21Z"/><path class="cls-11" d="M117.38,47.22,116.74,49l-.34-.11.45-1.81Z"/><path class="cls-11" d="M119.31,47.89v-5.3h.61v5.3Z"/><path class="cls-11" d="M120.69,46.9V44.54h.61v2.4a.52.52,0,0,0,.11.35.36.36,0,0,0,.3.12.38.38,0,0,0,.3-.12.52.52,0,0,0,.1-.35v-2.4h.63V46.9a1.11,1.11,0,0,1-.25.81,1.39,1.39,0,0,1-1.56,0A1.15,1.15,0,0,1,120.69,46.9Zm.62-2.81.56-1.19h.61l-.81,1.19Z"/><path class="cls-11" d="M123.46,49.24v-4.7h.62v.32a.71.71,0,0,1,.66-.38.69.69,0,0,1,.65.42,3.09,3.09,0,0,1,.21,1.31,3.14,3.14,0,0,1-.21,1.32.69.69,0,0,1-.65.42.7.7,0,0,1-.38-.1.87.87,0,0,1-.28-.29v1.68Zm.59-3a2.73,2.73,0,0,0,.11.91.38.38,0,0,0,.71,0,2.73,2.73,0,0,0,.11-.91,2.62,2.62,0,0,0-.11-.9.37.37,0,0,0-.71,0A2.62,2.62,0,0,0,124.05,46.21Z"/><path class="cls-11" d="M126.22,46.9V44.54h.61v2.4a.52.52,0,0,0,.11.35.36.36,0,0,0,.3.12.38.38,0,0,0,.3-.12.52.52,0,0,0,.1-.35v-2.4h.63V46.9a1.11,1.11,0,0,1-.25.81,1.39,1.39,0,0,1-1.56,0A1.15,1.15,0,0,1,126.22,46.9Z"/><path class="cls-11" d="M129,47.89v-5.3h.62v5.3Z"/><path class="cls-11" d="M130.25,46.21a2.33,2.33,0,0,1,.29-1.29.94.94,0,0,1,.84-.44,1,1,0,0,1,.84.44,3.13,3.13,0,0,1,0,2.59,1,1,0,0,1-.84.44.92.92,0,0,1-.84-.44A2.34,2.34,0,0,1,130.25,46.21Zm.62,0a2.25,2.25,0,0,0,.13.9.39.39,0,0,0,.38.29.39.39,0,0,0,.38-.29,2.25,2.25,0,0,0,.13-.9,2.22,2.22,0,0,0-.13-.89.41.41,0,0,0-.38-.29.4.4,0,0,0-.38.29A2.22,2.22,0,0,0,130.87,46.2Z"/><path class="cls-11" d="M134.16,44.54h.64l.39,2.2.53-2.2h.61L135,49.24h-.64l.52-1.64Z"/><path class="cls-11" d="M138.11,47.89v-5.3h.62v5.3Z"/><path class="cls-11" d="M141.41,46.77v0a1.2,1.2,0,0,1-.27.83.93.93,0,0,1-.73.3.91.91,0,0,1-.82-.41,2.57,2.57,0,0,1-.26-1.34,2.44,2.44,0,0,1,.26-1.29.86.86,0,0,1,.79-.43.88.88,0,0,1,.81.39,2.4,2.4,0,0,1,.25,1.27v.19h-1.53v.1a1.75,1.75,0,0,0,.12.76.39.39,0,0,0,.38.24.34.34,0,0,0,.31-.16,1,1,0,0,0,.12-.49Zm-1.5-.92h.94v-.09a1.23,1.23,0,0,0-.11-.59.37.37,0,0,0-.35-.19.38.38,0,0,0-.36.22A1.39,1.39,0,0,0,139.91,45.85Z"/><path class="cls-11" d="M141.71,44.54h.64l.35,1.75a2.94,2.94,0,0,1,.05.35c0,.13,0,.27.05.42,0-.19,0-.34.06-.47a1.41,1.41,0,0,1,0-.29l.34-1.76h.63l-.83,3.35h-.5Z"/><path class="cls-11" d="M145.72,47.89v-.33a.84.84,0,0,1-.29.3.75.75,0,0,1-.37.09.69.69,0,0,1-.65-.44,3.92,3.92,0,0,1,0-2.59.69.69,0,0,1,.65-.44.75.75,0,0,1,.37.09.8.8,0,0,1,.29.29v-.32h.61v3.35Zm-.9-1.68a2.79,2.79,0,0,0,.1.91.38.38,0,0,0,.36.26.37.37,0,0,0,.35-.26,2.73,2.73,0,0,0,.11-.91,2.62,2.62,0,0,0-.11-.9.37.37,0,0,0-.71,0A2.68,2.68,0,0,0,144.82,46.21Z"/><path class="cls-11" d="M148.46,47.89v-.33a.84.84,0,0,1-.29.3.79.79,0,0,1-.38.09.69.69,0,0,1-.65-.42,4.19,4.19,0,0,1,0-2.62.7.7,0,0,1,.65-.43.77.77,0,0,1,.38.1.89.89,0,0,1,.29.29V42.59h.61v5.3Zm-.91-1.67a2.62,2.62,0,0,0,.11.9.37.37,0,0,0,.71,0,3.74,3.74,0,0,0,0-1.8.37.37,0,0,0-.71,0A2.62,2.62,0,0,0,147.55,46.22Z"/><path class="cls-11" d="M149.8,46.9V44.54h.61v2.4a.58.58,0,0,0,.1.35.39.39,0,0,0,.31.12.38.38,0,0,0,.3-.12.52.52,0,0,0,.1-.35v-2.4h.63V46.9a1.11,1.11,0,0,1-.25.81,1.39,1.39,0,0,1-1.56,0A1.15,1.15,0,0,1,149.8,46.9Z"/><path class="cls-11" d="M152.61,47.89V44.54h.59V45a1,1,0,0,1,.33-.4.91.91,0,0,1,.48-.15v.65h-.1a.71.71,0,0,0-.53.18.8.8,0,0,0-.16.56v2Z"/><path class="cls-11" d="M155.88,47.89v-.33a.76.76,0,0,1-.29.3.72.72,0,0,1-.37.09.68.68,0,0,1-.64-.44,3.92,3.92,0,0,1,0-2.59.68.68,0,0,1,.64-.44.71.71,0,0,1,.66.38v-.32h.62v3.35Zm-.9-1.68a2.73,2.73,0,0,0,.11.91.37.37,0,0,0,.35.26.38.38,0,0,0,.36-.26,2.79,2.79,0,0,0,.1-.91,2.68,2.68,0,0,0-.1-.9.37.37,0,0,0-.71,0A2.62,2.62,0,0,0,155,46.21Z"/><path class="cls-11" d="M157.14,47.58a.37.37,0,0,1,.11-.28.33.33,0,0,1,.27-.11.38.38,0,0,1,.39.39.33.33,0,0,1-.11.27.39.39,0,0,1-.28.11.37.37,0,0,1-.27-.11A.33.33,0,0,1,157.14,47.58Z"/><path class="cls-11" d="M97.49,64.69V60.32h-.93V59.7h2.53v.62h-.92v4.37Z"/><path class="cls-11" d="M100.88,63.57v0a1.2,1.2,0,0,1-.27.83.91.91,0,0,1-.72.3.92.92,0,0,1-.83-.41A2.68,2.68,0,0,1,98.8,63a2.54,2.54,0,0,1,.26-1.29.87.87,0,0,1,.79-.43.9.9,0,0,1,.82.39,2.48,2.48,0,0,1,.25,1.27v.19H99.38v.1a1.75,1.75,0,0,0,.12.76.4.4,0,0,0,.38.24.36.36,0,0,0,.32-.16.94.94,0,0,0,.11-.49Zm-1.5-.92h.94v-.09a1.31,1.31,0,0,0-.11-.6.38.38,0,0,0-.35-.18.38.38,0,0,0-.36.22A1.39,1.39,0,0,0,99.38,62.65Z"/><path class="cls-11" d="M101.51,64.69V61.34h.61v.33a.75.75,0,0,1,.29-.27.82.82,0,0,1,.4-.09.74.74,0,0,1,.38.09.87.87,0,0,1,.29.31.91.91,0,0,1,.32-.3.87.87,0,0,1,.42-.1.68.68,0,0,1,.55.2,1,1,0,0,1,.18.63v2.55h-.61V62.44a.81.81,0,0,0-.09-.46.35.35,0,0,0-.31-.13.36.36,0,0,0-.31.13.59.59,0,0,0-.11.38v2.33h-.6V62.44a.84.84,0,0,0-.09-.46.41.41,0,0,0-.6,0,.59.59,0,0,0-.1.38v2.33Z"/><path class="cls-11" d="M105.67,66v-4.7h.62v.32a.8.8,0,0,1,.29-.29.76.76,0,0,1,.38-.09.69.69,0,0,1,.65.42,3.09,3.09,0,0,1,.21,1.31,3.14,3.14,0,0,1-.21,1.32.69.69,0,0,1-.65.42.77.77,0,0,1-.38-.1.89.89,0,0,1-.29-.29V66Zm.6-3a2.48,2.48,0,0,0,.11.91.38.38,0,0,0,.71,0,2.79,2.79,0,0,0,.1-.91,2.68,2.68,0,0,0-.1-.9.37.37,0,0,0-.71,0A2.39,2.39,0,0,0,106.27,63Z"/><path class="cls-11" d="M110.35,63.57v0a1.25,1.25,0,0,1-.26.83,1,1,0,0,1-1.56-.11,2.68,2.68,0,0,1-.26-1.34,2.54,2.54,0,0,1,.26-1.29.87.87,0,0,1,.79-.43.9.9,0,0,1,.82.39,2.48,2.48,0,0,1,.25,1.27v.19h-1.54v.1A1.75,1.75,0,0,0,109,64a.4.4,0,0,0,.38.24.35.35,0,0,0,.32-.16,1,1,0,0,0,.12-.49Zm-1.5-.92h.94v-.09a1.19,1.19,0,0,0-.11-.6.38.38,0,0,0-.35-.18A.38.38,0,0,0,109,62,1.39,1.39,0,0,0,108.85,62.65Z"/><path class="cls-11" d="M111,64.69V61.34h.59v.49a1,1,0,0,1,.33-.4.91.91,0,0,1,.48-.15v.65h-.1a.71.71,0,0,0-.53.18.8.8,0,0,0-.16.56v2Z"/><path class="cls-11" d="M114.26,64.69v-.33a.76.76,0,0,1-.29.3.72.72,0,0,1-.37.09.68.68,0,0,1-.64-.44,3.92,3.92,0,0,1,0-2.59.67.67,0,0,1,.64-.44.71.71,0,0,1,.66.38v-.32h.62v3.35Zm-.9-1.68a2.73,2.73,0,0,0,.11.91.37.37,0,0,0,.35.26.38.38,0,0,0,.36-.26,2.79,2.79,0,0,0,.1-.91,2.68,2.68,0,0,0-.1-.9.37.37,0,0,0-.71,0A2.62,2.62,0,0,0,113.36,63Z"/><path class="cls-11" d="M115.65,64.69v-2.9h-.33v-.45h.33v-.91h.62v.91h.46v.45h-.46v2.9Z"/><path class="cls-11" d="M117.14,63.7V61.34h.61v2.4a.58.58,0,0,0,.1.35.39.39,0,0,0,.31.12.38.38,0,0,0,.3-.12.52.52,0,0,0,.1-.35v-2.4h.63V63.7a1.11,1.11,0,0,1-.25.81,1.39,1.39,0,0,1-1.56,0A1.15,1.15,0,0,1,117.14,63.7Z"/><path class="cls-11" d="M120,64.69V61.34h.59v.49a1,1,0,0,1,.33-.4.91.91,0,0,1,.48-.15v.65h-.1a.67.67,0,0,0-.52.18.75.75,0,0,0-.17.56v2Z"/><path class="cls-11" d="M123.22,64.69v-.33a.82.82,0,0,1-.28.3.79.79,0,0,1-.38.09.68.68,0,0,1-.64-.44,3.92,3.92,0,0,1,0-2.59.68.68,0,0,1,.64-.44.76.76,0,0,1,.38.09.78.78,0,0,1,.28.29v-.32h.62v3.35Zm-.9-1.68a2.73,2.73,0,0,0,.11.91.37.37,0,0,0,.71,0,2.73,2.73,0,0,0,.11-.91,2.62,2.62,0,0,0-.11-.9.37.37,0,0,0-.71,0A2.62,2.62,0,0,0,122.32,63Z"/><path class="cls-11" d="M127.31,64.69v-.33a.76.76,0,0,1-.29.3.72.72,0,0,1-.37.09.68.68,0,0,1-.65-.42,4.19,4.19,0,0,1,0-2.62.69.69,0,0,1,.65-.43.8.8,0,0,1,.38.1.78.78,0,0,1,.28.29V59.39h.62v5.3Zm-.9-1.67a2.62,2.62,0,0,0,.11.9.37.37,0,0,0,.71,0,4.1,4.1,0,0,0,0-1.8.37.37,0,0,0-.71,0A2.62,2.62,0,0,0,126.41,63Z"/><path class="cls-11" d="M130.57,63.57v0a1.2,1.2,0,0,1-.27.83,1,1,0,0,1-1.55-.11,2.68,2.68,0,0,1-.26-1.34,2.54,2.54,0,0,1,.26-1.29.86.86,0,0,1,.79-.43.88.88,0,0,1,.81.39,2.38,2.38,0,0,1,.25,1.27v.19h-1.53v.1a1.75,1.75,0,0,0,.12.76.4.4,0,0,0,.38.24.34.34,0,0,0,.31-.16.84.84,0,0,0,.12-.49Zm-1.5-.92H130v-.09a1.31,1.31,0,0,0-.11-.6.38.38,0,0,0-.35-.18.38.38,0,0,0-.36.22A1.39,1.39,0,0,0,129.07,62.65Z"/><path class="cls-11" d="M133.86,64.64a1.34,1.34,0,0,1-.26.09,1,1,0,0,1-.25,0,.81.81,0,0,1-.75-.42,2.77,2.77,0,0,1-.24-1.32,2.8,2.8,0,0,1,.25-1.3.78.78,0,0,1,.71-.44,1.18,1.18,0,0,1,.27,0,1,1,0,0,1,.27.1V62a.44.44,0,0,0-.17-.12.33.33,0,0,0-.17,0,.43.43,0,0,0-.4.3,2.37,2.37,0,0,0-.13.91,2,2,0,0,0,.13.83.4.4,0,0,0,.39.27.57.57,0,0,0,.18,0,1.2,1.2,0,0,0,.17-.11Z"/><path class="cls-11" d="M134.16,63a2.42,2.42,0,0,1,.28-1.29,1,1,0,0,1,.84-.44.94.94,0,0,1,.84.44,3,3,0,0,1,0,2.59.92.92,0,0,1-.84.44,1,1,0,0,1-.84-.44A2.44,2.44,0,0,1,134.16,63Zm.62,0a2.48,2.48,0,0,0,.12.9.4.4,0,0,0,.77,0,3.15,3.15,0,0,0,0-1.79.4.4,0,0,0-.77,0A2.46,2.46,0,0,0,134.78,63Z"/><path class="cls-11" d="M137,64.69V61.34h.61v.33a.77.77,0,0,1,.3-.27.88.88,0,0,1,.41-.09.69.69,0,0,1,.55.2,1,1,0,0,1,.18.63v2.55h-.62V62.44a.81.81,0,0,0-.09-.46.34.34,0,0,0-.31-.13.36.36,0,0,0-.31.13.59.59,0,0,0-.1.38v2.33Z"/><path class="cls-11" d="M139.61,64a1.08,1.08,0,0,0,.26.16.62.62,0,0,0,.26.06.44.44,0,0,0,.32-.12.37.37,0,0,0,.12-.29.85.85,0,0,0-.33-.54l-.07-.06a2.18,2.18,0,0,1-.44-.52.89.89,0,0,1-.12-.45,1,1,0,0,1,.26-.69.91.91,0,0,1,.68-.27.84.84,0,0,1,.27,0,1.06,1.06,0,0,1,.26.1V62a.69.69,0,0,0-.22-.17.6.6,0,0,0-.27-.06.39.39,0,0,0-.4.39.8.8,0,0,0,.33.52l.1.09a2.15,2.15,0,0,1,.42.51,1,1,0,0,1,.12.5.93.93,0,0,1-.26.68,1,1,0,0,1-.7.25l-.29,0-.3-.09Z"/><path class="cls-11" d="M143.62,63.57v0a1.2,1.2,0,0,1-.27.83,1,1,0,0,1-1.55-.11,2.68,2.68,0,0,1-.26-1.34,2.54,2.54,0,0,1,.26-1.29.86.86,0,0,1,.79-.43.88.88,0,0,1,.81.39,2.38,2.38,0,0,1,.25,1.27v.19h-1.53v.1a1.75,1.75,0,0,0,.12.76.39.39,0,0,0,.38.24.34.34,0,0,0,.31-.16.84.84,0,0,0,.12-.49Zm-1.5-.92h.94v-.09A1.31,1.31,0,0,0,143,62a.38.38,0,0,0-.35-.18.38.38,0,0,0-.36.22A1.39,1.39,0,0,0,142.12,62.65Z"/><path class="cls-11" d="M144.26,64.69V61.34h.59v.49a.93.93,0,0,1,.32-.4,1,1,0,0,1,.49-.15v.65h-.1a.69.69,0,0,0-.53.18.8.8,0,0,0-.17.56v2Z"/><path class="cls-11" d="M145.82,61.34h.64l.35,1.75a2.94,2.94,0,0,1,.05.35c0,.13,0,.27,0,.42,0-.19,0-.34.05-.47s0-.22,0-.29l.35-1.76H148l-.84,3.35h-.49Z"/><path class="cls-11" d="M149.83,64.69v-.33a.84.84,0,0,1-.29.3.79.79,0,0,1-.38.09.68.68,0,0,1-.64-.44,3.92,3.92,0,0,1,0-2.59.68.68,0,0,1,.64-.44.76.76,0,0,1,.38.09.89.89,0,0,1,.29.29v-.32h.61v3.35ZM148.92,63a2.73,2.73,0,0,0,.11.91.37.37,0,0,0,.71,0,2.73,2.73,0,0,0,.11-.91,2.62,2.62,0,0,0-.11-.9.37.37,0,0,0-.71,0A2.62,2.62,0,0,0,148.92,63Z"/><path class="cls-11" d="M152.49,64.64l-.25.09a1.15,1.15,0,0,1-.26,0,.8.8,0,0,1-.74-.42A2.77,2.77,0,0,1,151,63a2.81,2.81,0,0,1,.24-1.3.78.78,0,0,1,.71-.44,1.33,1.33,0,0,1,.28,0,1.06,1.06,0,0,1,.26.1V62a.44.44,0,0,0-.17-.12.33.33,0,0,0-.17,0,.43.43,0,0,0-.4.3,2.58,2.58,0,0,0-.13.91,2,2,0,0,0,.13.83.4.4,0,0,0,.39.27.57.57,0,0,0,.18,0,1.2,1.2,0,0,0,.17-.11Z"/><path class="cls-11" d="M152.89,60.34a.38.38,0,0,1,.39-.4.41.41,0,0,1,.28.11.44.44,0,0,1,.11.29.38.38,0,0,1-.12.28.37.37,0,0,1-.27.11.39.39,0,0,1-.28-.11A.37.37,0,0,1,152.89,60.34Zm.08,4.35V61.34h.62v3.35Z"/><path class="cls-11" d="M154.19,63a2.33,2.33,0,0,1,.29-1.29.94.94,0,0,1,.84-.44,1,1,0,0,1,.84.44,3.13,3.13,0,0,1,0,2.59,1,1,0,0,1-.84.44.92.92,0,0,1-.84-.44A2.34,2.34,0,0,1,154.19,63Zm.62,0a2.48,2.48,0,0,0,.12.9.42.42,0,0,0,.39.29.41.41,0,0,0,.38-.29,2.25,2.25,0,0,0,.13-.9,2.22,2.22,0,0,0-.13-.89.41.41,0,0,0-.38-.29.42.42,0,0,0-.39.29A2.46,2.46,0,0,0,154.81,63Zm.11-2.12.56-1.18h.6l-.81,1.18Z"/><path class="cls-11" d="M157.05,64.69V61.34h.6v.33a1,1,0,0,1,.3-.27.91.91,0,0,1,.41-.09.68.68,0,0,1,.55.2,1,1,0,0,1,.18.63v2.55h-.62V62.44a.81.81,0,0,0-.09-.46.34.34,0,0,0-.31-.13.37.37,0,0,0-.31.13.66.66,0,0,0-.1.38v2.33Z"/><path class="cls-11" d="M165.73,61.21l-3.42,1.4L165.73,64v.44l-4-1.65v-.35l4-1.65Z"/><path class="cls-11" d="M167.74,64.69V60.3h-.62v-.6h1.24v5Z"/><path class="cls-11" d="M171.16,62a.81.81,0,0,1,.47.39,2.08,2.08,0,0,1,.13.87,4.74,4.74,0,0,1,0,.63,1.2,1.2,0,0,1-.11.35,1.15,1.15,0,0,1-.39.4,1.13,1.13,0,0,1-.56.13,1.34,1.34,0,0,1-.46-.08,1.1,1.1,0,0,1-.35-.26,1,1,0,0,1-.22-.4,3.47,3.47,0,0,1-.06-.77,2,2,0,0,1,.14-.87.81.81,0,0,1,.47-.39.8.8,0,0,1-.43-.37,1.67,1.67,0,0,1-.13-.77,1.39,1.39,0,0,1,.25-.91,1,1,0,0,1,.79-.29,1,1,0,0,1,.79.29,1.36,1.36,0,0,1,.25.91,1.84,1.84,0,0,1-.12.77A.84.84,0,0,1,171.16,62Zm-.95,1.22a1.86,1.86,0,0,0,.11.76.36.36,0,0,0,.35.21A.36.36,0,0,0,171,64a1.68,1.68,0,0,0,.1-.71,1.93,1.93,0,0,0-.1-.76.36.36,0,0,0-.35-.21.36.36,0,0,0-.35.21A1.69,1.69,0,0,0,170.21,63.2Zm.46-1.47a.35.35,0,0,0,.33-.18,1.41,1.41,0,0,0,.1-.6,1.33,1.33,0,0,0-.1-.59.35.35,0,0,0-.33-.18.37.37,0,0,0-.33.17,2,2,0,0,0,0,1.2A.35.35,0,0,0,170.67,61.73Z"/><path class="cls-11" d="M172.18,60.87a1.55,1.55,0,0,1,.22-.91.79.79,0,0,1,1.25,0,2,2,0,0,1,0,1.82.73.73,0,0,1-.63.31.75.75,0,0,1-.63-.31A1.63,1.63,0,0,1,172.18,60.87Zm.46,0a1.7,1.7,0,0,0,.09.64.31.31,0,0,0,.29.19.3.3,0,0,0,.29-.19,1.49,1.49,0,0,0,.1-.64,1.39,1.39,0,0,0-.1-.62A.3.3,0,0,0,173,60a.3.3,0,0,0-.29.2A1.59,1.59,0,0,0,172.64,60.86Z"/><path class="cls-11" d="M176.54,64.58a1.4,1.4,0,0,1-.34.13,1.37,1.37,0,0,1-.36,0,1.23,1.23,0,0,1-1.14-.62,3.66,3.66,0,0,1-.38-1.89,3.74,3.74,0,0,1,.4-1.94,1.32,1.32,0,0,1,1.2-.66,1.69,1.69,0,0,1,.33,0,1.42,1.42,0,0,1,.29.1v.64a1.92,1.92,0,0,0-.27-.11l-.25,0a.82.82,0,0,0-.78.47,3.3,3.3,0,0,0-.25,1.5,3.37,3.37,0,0,0,.23,1.41.77.77,0,0,0,.73.46,1,1,0,0,0,.28,0,1.75,1.75,0,0,0,.31-.15Z"/><path class="cls-11" d="M177,64.38a.41.41,0,0,1,.11-.28.37.37,0,0,1,.28-.11.33.33,0,0,1,.27.11.38.38,0,0,1,.12.28.37.37,0,0,1-.11.27.41.41,0,0,1-.56,0A.37.37,0,0,1,177,64.38Z"/><path class="cls-11" d="M97.49,81.49V77.12h-.93V76.5h2.53v.62h-.92v4.37Z"/><path class="cls-11" d="M100.88,80.37v0a1.2,1.2,0,0,1-.27.83,1,1,0,0,1-1.55-.12,2.61,2.61,0,0,1-.26-1.33,2.54,2.54,0,0,1,.26-1.29.87.87,0,0,1,.79-.43.9.9,0,0,1,.82.39,2.48,2.48,0,0,1,.25,1.27v.19H99.38V80a1.78,1.78,0,0,0,.12.76.4.4,0,0,0,.38.24.36.36,0,0,0,.32-.16.94.94,0,0,0,.11-.49Zm-1.5-.92h.94v-.09a1.31,1.31,0,0,0-.11-.6.38.38,0,0,0-.35-.18.38.38,0,0,0-.36.22A1.39,1.39,0,0,0,99.38,79.45Z"/><path class="cls-11" d="M101.51,81.49V78.14h.61v.33a.75.75,0,0,1,.29-.27.82.82,0,0,1,.4-.09.74.74,0,0,1,.38.09.87.87,0,0,1,.29.31.91.91,0,0,1,.32-.3.87.87,0,0,1,.42-.1.68.68,0,0,1,.55.2,1,1,0,0,1,.18.63v2.55h-.61V79.24a.81.81,0,0,0-.09-.46.35.35,0,0,0-.31-.13.36.36,0,0,0-.31.13.59.59,0,0,0-.11.38v2.33h-.6V79.24a.84.84,0,0,0-.09-.46.41.41,0,0,0-.6,0,.59.59,0,0,0-.1.38v2.33Z"/><path class="cls-11" d="M105.67,82.84v-4.7h.62v.32a.8.8,0,0,1,.29-.29.76.76,0,0,1,.38-.09.69.69,0,0,1,.65.42,3.09,3.09,0,0,1,.21,1.31,3.14,3.14,0,0,1-.21,1.32.69.69,0,0,1-.65.42.77.77,0,0,1-.38-.1.89.89,0,0,1-.29-.29v1.68Zm.6-3a2.39,2.39,0,0,0,.11.9.37.37,0,0,0,.71,0,4.1,4.1,0,0,0,0-1.8.37.37,0,0,0-.71,0A2.39,2.39,0,0,0,106.27,79.81Z"/><path class="cls-11" d="M110.35,80.37v0a1.25,1.25,0,0,1-.26.83.93.93,0,0,1-.73.3.91.91,0,0,1-.83-.42,2.61,2.61,0,0,1-.26-1.33,2.54,2.54,0,0,1,.26-1.29.87.87,0,0,1,.79-.43.9.9,0,0,1,.82.39,2.48,2.48,0,0,1,.25,1.27v.19h-1.54V80a1.78,1.78,0,0,0,.12.76.4.4,0,0,0,.38.24.35.35,0,0,0,.32-.16,1,1,0,0,0,.12-.49Zm-1.5-.92h.94v-.09a1.19,1.19,0,0,0-.11-.6.38.38,0,0,0-.35-.18.38.38,0,0,0-.36.22A1.39,1.39,0,0,0,108.85,79.45Z"/><path class="cls-11" d="M111,81.49V78.14h.59v.49a1,1,0,0,1,.33-.4.91.91,0,0,1,.48-.15v.65h-.1a.71.71,0,0,0-.53.18.8.8,0,0,0-.16.56v2Z"/><path class="cls-11" d="M114.26,81.49v-.33a.76.76,0,0,1-.29.3.72.72,0,0,1-.37.09.68.68,0,0,1-.64-.44,3,3,0,0,1-.22-1.3,2.91,2.91,0,0,1,.22-1.29.67.67,0,0,1,.64-.44.71.71,0,0,1,.66.38v-.32h.62v3.35Zm-.9-1.68a2.73,2.73,0,0,0,.11.91.37.37,0,0,0,.35.26.38.38,0,0,0,.36-.27,4.1,4.1,0,0,0,0-1.8.37.37,0,0,0-.71,0A2.62,2.62,0,0,0,113.36,79.81Z"/><path class="cls-11" d="M115.65,81.49v-2.9h-.33v-.45h.33v-.91h.62v.91h.46v.45h-.46v2.9Z"/><path class="cls-11" d="M117.14,80.5V78.14h.61v2.4a.58.58,0,0,0,.1.35.39.39,0,0,0,.31.12.38.38,0,0,0,.3-.12.52.52,0,0,0,.1-.35v-2.4h.63V80.5a1.11,1.11,0,0,1-.25.81,1.39,1.39,0,0,1-1.56,0A1.15,1.15,0,0,1,117.14,80.5Z"/><path class="cls-11" d="M120,81.49V78.14h.59v.49a1,1,0,0,1,.33-.4.91.91,0,0,1,.48-.15v.65h-.1a.67.67,0,0,0-.52.18.75.75,0,0,0-.17.56v2Z"/><path class="cls-11" d="M123.22,81.49v-.33a.82.82,0,0,1-.28.3.79.79,0,0,1-.38.09.68.68,0,0,1-.64-.44,3,3,0,0,1-.22-1.3,2.91,2.91,0,0,1,.22-1.29.68.68,0,0,1,.64-.44.76.76,0,0,1,.38.09.78.78,0,0,1,.28.29v-.32h.62v3.35Zm-.9-1.68a2.73,2.73,0,0,0,.11.91.37.37,0,0,0,.71,0,3.74,3.74,0,0,0,0-1.8.37.37,0,0,0-.71,0A2.62,2.62,0,0,0,122.32,79.81Z"/><path class="cls-11" d="M127.25,81.49v-.33a.84.84,0,0,1-.29.3.76.76,0,0,1-.38.09.68.68,0,0,1-.64-.44,3.11,3.11,0,0,1-.22-1.3,2.91,2.91,0,0,1,.22-1.29.68.68,0,0,1,.64-.44.76.76,0,0,1,.38.09.8.8,0,0,1,.29.29v-.32h.61v3.35Zm-.91-1.68a2.73,2.73,0,0,0,.11.91.37.37,0,0,0,.36.26.37.37,0,0,0,.35-.27,3.74,3.74,0,0,0,0-1.8.37.37,0,0,0-.71,0A2.62,2.62,0,0,0,126.34,79.81Z"/><path class="cls-11" d="M130,81.49v-.33a.82.82,0,0,1-.28.3.79.79,0,0,1-.38.09.69.69,0,0,1-.65-.42,4.19,4.19,0,0,1,0-2.62.7.7,0,0,1,.65-.43.77.77,0,0,1,.38.1.78.78,0,0,1,.28.29V76.19h.62v5.3Zm-.9-1.67a2.62,2.62,0,0,0,.11.9.37.37,0,0,0,.71,0,3.74,3.74,0,0,0,0-1.8.37.37,0,0,0-.71,0A2.62,2.62,0,0,0,129.08,79.82Z"/><path class="cls-11" d="M133.24,80.37v0a1.25,1.25,0,0,1-.26.83.93.93,0,0,1-.73.3.91.91,0,0,1-.83-.42,2.61,2.61,0,0,1-.26-1.33,2.54,2.54,0,0,1,.26-1.29.87.87,0,0,1,.79-.43.9.9,0,0,1,.82.39,2.48,2.48,0,0,1,.25,1.27v.19h-1.54V80a1.78,1.78,0,0,0,.12.76.4.4,0,0,0,.38.24.35.35,0,0,0,.32-.16.94.94,0,0,0,.11-.49Zm-1.5-.92h.94v-.09a1.19,1.19,0,0,0-.11-.6.38.38,0,0,0-.35-.18.38.38,0,0,0-.36.22A1.39,1.39,0,0,0,131.74,79.45Z"/><path class="cls-11" d="M135.18,81.44l-.25.09a1.09,1.09,0,0,1-.26,0,.8.8,0,0,1-.74-.42,2.77,2.77,0,0,1-.24-1.32,2.81,2.81,0,0,1,.24-1.3.78.78,0,0,1,.71-.44,1.27,1.27,0,0,1,.28,0,.93.93,0,0,1,.26.1v.59a.44.44,0,0,0-.17-.12.33.33,0,0,0-.17,0,.43.43,0,0,0-.4.3,2.58,2.58,0,0,0-.13.91,2,2,0,0,0,.13.83.41.41,0,0,0,.39.27l.18,0a.59.59,0,0,0,.17-.12Z"/><path class="cls-11" d="M135.64,80.5V78.14h.62v2.4a.52.52,0,0,0,.1.35.38.38,0,0,0,.3.12.35.35,0,0,0,.3-.12.52.52,0,0,0,.11-.35v-2.4h.62V80.5a1.15,1.15,0,0,1-.24.81,1.1,1.1,0,0,1-.79.24,1.07,1.07,0,0,1-.78-.24A1.15,1.15,0,0,1,135.64,80.5Z"/><path class="cls-11" d="M139.83,81.49v-.33a.76.76,0,0,1-.29.3.72.72,0,0,1-.37.09.68.68,0,0,1-.64-.44,3,3,0,0,1-.22-1.3,3.08,3.08,0,0,1,.21-1.29.69.69,0,0,1,.65-.44.79.79,0,0,1,.38.09.87.87,0,0,1,.28.29v-.32h.62v3.35Zm-.9-1.68a2.73,2.73,0,0,0,.11.91.37.37,0,0,0,.35.26.38.38,0,0,0,.36-.27,4.1,4.1,0,0,0,0-1.8.37.37,0,0,0-.36-.26.36.36,0,0,0-.35.26A2.39,2.39,0,0,0,138.93,79.81Z"/><path class="cls-11" d="M142.57,81.49v-.33a.76.76,0,0,1-.29.3.75.75,0,0,1-.37.09.69.69,0,0,1-.66-.42,4.39,4.39,0,0,1,0-2.62.7.7,0,0,1,.66-.43.73.73,0,0,1,.37.1.8.8,0,0,1,.29.29V76.19h.62v5.3Zm-.9-1.67a2.68,2.68,0,0,0,.1.9.37.37,0,0,0,.36.26.36.36,0,0,0,.35-.26,3.74,3.74,0,0,0,0-1.8.36.36,0,0,0-.35-.26.37.37,0,0,0-.36.26A2.68,2.68,0,0,0,141.67,79.82Z"/><path class="cls-11" d="M145.31,81.49v-.33a.84.84,0,0,1-.29.3.76.76,0,0,1-.38.09.68.68,0,0,1-.64-.44,3.11,3.11,0,0,1-.22-1.3,3.06,3.06,0,0,1,.22-1.29.68.68,0,0,1,.64-.44.76.76,0,0,1,.38.09.8.8,0,0,1,.29.29v-.32h.61v3.35Zm-.9-1.68a2.79,2.79,0,0,0,.1.91.37.37,0,0,0,.36.26.37.37,0,0,0,.35-.27,3.74,3.74,0,0,0,0-1.8.37.37,0,0,0-.71,0A2.68,2.68,0,0,0,144.41,79.81Z"/><path class="cls-11" d="M149.33,81.49v-.33a.76.76,0,0,1-.29.3.75.75,0,0,1-.37.09.69.69,0,0,1-.66-.42,4.39,4.39,0,0,1,0-2.62.7.7,0,0,1,.66-.43.73.73,0,0,1,.37.1.8.8,0,0,1,.29.29V76.19H150v5.3Zm-.9-1.67a2.68,2.68,0,0,0,.1.9.37.37,0,0,0,.36.26.36.36,0,0,0,.35-.26,3.74,3.74,0,0,0,0-1.8.36.36,0,0,0-.35-.26.37.37,0,0,0-.36.26A2.68,2.68,0,0,0,148.43,79.82Z"/><path class="cls-11" d="M152.59,80.37v0a1.2,1.2,0,0,1-.27.83.93.93,0,0,1-.73.3.89.89,0,0,1-.82-.42,2.51,2.51,0,0,1-.26-1.33,2.44,2.44,0,0,1,.26-1.29.86.86,0,0,1,.79-.43.89.89,0,0,1,.81.39,2.38,2.38,0,0,1,.25,1.27v.19h-1.53V80a1.78,1.78,0,0,0,.12.76.39.39,0,0,0,.38.24.34.34,0,0,0,.31-.16,1,1,0,0,0,.12-.49Zm-1.5-.92H152v-.09a1.31,1.31,0,0,0-.11-.6.39.39,0,0,0-.35-.18.38.38,0,0,0-.36.22A1.39,1.39,0,0,0,151.09,79.45Z"/><path class="cls-11" d="M155.81,81.44l-.25.09a1.09,1.09,0,0,1-.26,0,.8.8,0,0,1-.74-.42,2.77,2.77,0,0,1-.24-1.32,2.81,2.81,0,0,1,.24-1.3.78.78,0,0,1,.71-.44,1.27,1.27,0,0,1,.28,0,.93.93,0,0,1,.26.1v.59a.44.44,0,0,0-.17-.12.33.33,0,0,0-.17,0,.43.43,0,0,0-.4.3,2.58,2.58,0,0,0-.13.91,2,2,0,0,0,.13.83.41.41,0,0,0,.39.27.57.57,0,0,0,.18,0,.59.59,0,0,0,.17-.12Z"/><path class="cls-11" d="M156.11,79.81a2.33,2.33,0,0,1,.29-1.29,1,1,0,0,1,1.67,0,3,3,0,0,1,0,2.59,1,1,0,0,1-1.67,0A2.34,2.34,0,0,1,156.11,79.81Zm.62,0a2.48,2.48,0,0,0,.12.9.42.42,0,0,0,.39.29.41.41,0,0,0,.38-.29,2.25,2.25,0,0,0,.13-.9,2.22,2.22,0,0,0-.13-.89.41.41,0,0,0-.38-.29.42.42,0,0,0-.39.29A2.46,2.46,0,0,0,156.73,79.8Z"/><path class="cls-11" d="M159,81.49V78.14h.61v.33a.85.85,0,0,1,.3-.27.91.91,0,0,1,.41-.09.68.68,0,0,1,.55.2,1,1,0,0,1,.18.63v2.55h-.62V79.24a.81.81,0,0,0-.09-.46.34.34,0,0,0-.31-.13.37.37,0,0,0-.31.13.59.59,0,0,0-.1.38v2.33Z"/><path class="cls-11" d="M161.57,80.79a.88.88,0,0,0,.25.16.66.66,0,0,0,.27.06.41.41,0,0,0,.31-.12.35.35,0,0,0,.13-.29.88.88,0,0,0-.34-.54l-.07-.06a2.18,2.18,0,0,1-.44-.52.88.88,0,0,1-.11-.45.93.93,0,0,1,.26-.69.87.87,0,0,1,.67-.27.84.84,0,0,1,.27,0,1.06,1.06,0,0,1,.26.1v.63a.69.69,0,0,0-.22-.17.6.6,0,0,0-.27-.06.39.39,0,0,0-.28.11.37.37,0,0,0-.11.28.82.82,0,0,0,.32.52l.1.09a2,2,0,0,1,.42.51,1,1,0,0,1,.12.5.93.93,0,0,1-.26.68,1,1,0,0,1-.7.25,1.33,1.33,0,0,1-.28,0,1.71,1.71,0,0,1-.3-.09Z"/><path class="cls-11" d="M163.65,80.5V78.14h.62v2.4a.52.52,0,0,0,.1.35.39.39,0,0,0,.31.12.38.38,0,0,0,.3-.12.52.52,0,0,0,.1-.35v-2.4h.63V80.5a1.15,1.15,0,0,1-.25.81,1.39,1.39,0,0,1-1.56,0A1.11,1.11,0,0,1,163.65,80.5Z"/><path class="cls-11" d="M166.46,81.49V78.14h.61v.33a.75.75,0,0,1,.29-.27.82.82,0,0,1,.4-.09.74.74,0,0,1,.38.09.87.87,0,0,1,.29.31.91.91,0,0,1,.32-.3.87.87,0,0,1,.42-.1.68.68,0,0,1,.55.2,1,1,0,0,1,.18.63v2.55h-.61V79.24a.81.81,0,0,0-.09-.46.34.34,0,0,0-.31-.13.36.36,0,0,0-.31.13.59.59,0,0,0-.11.38v2.33h-.6V79.24a.84.84,0,0,0-.09-.46.41.41,0,0,0-.6,0,.59.59,0,0,0-.1.38v2.33Z"/><path class="cls-11" d="M170.48,79.81a2.42,2.42,0,0,1,.29-1.29,1,1,0,0,1,1.68,0,3,3,0,0,1,0,2.59,1,1,0,0,1-1.68,0A2.43,2.43,0,0,1,170.48,79.81Zm.63,0a2.48,2.48,0,0,0,.12.9.4.4,0,0,0,.77,0,2.48,2.48,0,0,0,.12-.9,2.46,2.46,0,0,0-.12-.89.4.4,0,0,0-.77,0A2.46,2.46,0,0,0,171.11,79.8Z"/><path class="cls-11" d="M176.53,80.37v0a1.2,1.2,0,0,1-.27.83.93.93,0,0,1-.73.3.89.89,0,0,1-.82-.42,2.61,2.61,0,0,1-.26-1.33,2.54,2.54,0,0,1,.26-1.29.86.86,0,0,1,.79-.43.88.88,0,0,1,.81.39,2.38,2.38,0,0,1,.25,1.27v.19H175V80a1.78,1.78,0,0,0,.12.76.39.39,0,0,0,.38.24.34.34,0,0,0,.31-.16.84.84,0,0,0,.12-.49Zm-1.5-.92H176v-.09a1.31,1.31,0,0,0-.11-.6.38.38,0,0,0-.35-.18.38.38,0,0,0-.36.22A1.39,1.39,0,0,0,175,79.45Z"/><path class="cls-11" d="M177.16,81.49V78.14h.61v.33a.77.77,0,0,1,.3-.27.84.84,0,0,1,.4-.09.68.68,0,0,1,.55.2,1,1,0,0,1,.18.63v2.55h-.62V79.24a.81.81,0,0,0-.09-.46.32.32,0,0,0-.3-.13.36.36,0,0,0-.31.13.59.59,0,0,0-.11.38v2.33Z"/><path class="cls-11" d="M180,81.49v-2.9h-.33v-.45H180v-.91h.62v.91h.46v.45h-.46v2.9Z"/><path class="cls-11" d="M181.49,81.49V78.14h.6v.49a.93.93,0,0,1,.32-.4,1,1,0,0,1,.49-.15v.65h-.11a.68.68,0,0,0-.52.18.8.8,0,0,0-.17.56v2Z"/><path class="cls-11" d="M185.29,80.37v0a1.2,1.2,0,0,1-.27.83.93.93,0,0,1-.73.3.89.89,0,0,1-.82-.42,2.5,2.5,0,0,1-.27-1.33,2.43,2.43,0,0,1,.27-1.29.84.84,0,0,1,.79-.43.9.9,0,0,1,.81.39,2.38,2.38,0,0,1,.25,1.27v.19h-1.53V80a1.78,1.78,0,0,0,.12.76.38.38,0,0,0,.37.24.35.35,0,0,0,.32-.16,1,1,0,0,0,.12-.49Zm-1.5-.92h.94v-.09a1.31,1.31,0,0,0-.11-.6.39.39,0,0,0-.36-.18.38.38,0,0,0-.35.22A1.39,1.39,0,0,0,183.79,79.45Z"/><path class="cls-11" d="M97.46,87.05a.91.91,0,0,1,.26-.19.88.88,0,0,1,1,.29A2.3,2.3,0,0,1,99,88.32a2.24,2.24,0,0,1-.27,1.24,1,1,0,0,1-.85.4,1,1,0,0,1-.84-.42,2.36,2.36,0,0,1-.27-1.26A4.72,4.72,0,0,1,97,86.87a12.28,12.28,0,0,1,.89-2h.73q-.42.73-.69,1.26C97.71,86.5,97.57,86.8,97.46,87.05Zm-.12,1.31a1.78,1.78,0,0,0,.12.76.43.43,0,0,0,.39.24.39.39,0,0,0,.38-.24,1.84,1.84,0,0,0,.12-.77,1.78,1.78,0,0,0-.12-.77.4.4,0,0,0-.39-.22.41.41,0,0,0-.38.23A1.84,1.84,0,0,0,97.34,88.36Z"/><path class="cls-11" d="M100.63,86.54h.64l.39,2.2.53-2.2h.61l-1.35,4.7h-.64l.52-1.64Z"/><path class="cls-11" d="M106,87.18a.81.81,0,0,1,.47.39,2.11,2.11,0,0,1,.13.87,4.74,4.74,0,0,1,0,.63,1.2,1.2,0,0,1-.11.35,1.15,1.15,0,0,1-.39.4,1.13,1.13,0,0,1-.56.13,1.34,1.34,0,0,1-.46-.08,1.1,1.1,0,0,1-.35-.26,1,1,0,0,1-.22-.4,3.47,3.47,0,0,1-.06-.77,2.12,2.12,0,0,1,.14-.87.81.81,0,0,1,.47-.39.8.8,0,0,1-.43-.37,1.81,1.81,0,0,1-.13-.77,1.41,1.41,0,0,1,.25-.91,1,1,0,0,1,.79-.29,1,1,0,0,1,.79.29,1.36,1.36,0,0,1,.25.91,1.84,1.84,0,0,1-.12.77A.84.84,0,0,1,106,87.18Zm-.94,1.22a1.9,1.9,0,0,0,.1.76.36.36,0,0,0,.35.21.36.36,0,0,0,.35-.2,1.68,1.68,0,0,0,.1-.71,1.93,1.93,0,0,0-.1-.76.36.36,0,0,0-.35-.21.36.36,0,0,0-.35.21A1.72,1.72,0,0,0,105.08,88.4Zm.45-1.47a.35.35,0,0,0,.33-.18,1.41,1.41,0,0,0,.1-.6,1.33,1.33,0,0,0-.1-.59.35.35,0,0,0-.33-.18.34.34,0,0,0-.32.17,1.85,1.85,0,0,0,0,1.2A.33.33,0,0,0,105.53,86.93Z"/><path class="cls-11" d="M107,86.07a1.55,1.55,0,0,1,.22-.91.79.79,0,0,1,1.25,0,2,2,0,0,1,0,1.82.73.73,0,0,1-.63.31.75.75,0,0,1-.63-.31A1.63,1.63,0,0,1,107,86.07Zm.46,0a1.7,1.7,0,0,0,.09.64.31.31,0,0,0,.29.19.3.3,0,0,0,.29-.19,1.49,1.49,0,0,0,.1-.64,1.39,1.39,0,0,0-.1-.62.3.3,0,0,0-.29-.2.3.3,0,0,0-.29.2A1.59,1.59,0,0,0,107.5,86.06Z"/><path class="cls-11" d="M111.4,89.78a1.4,1.4,0,0,1-.34.13,1.37,1.37,0,0,1-.36,0,1.23,1.23,0,0,1-1.14-.62,3.66,3.66,0,0,1-.38-1.89,3.77,3.77,0,0,1,.4-1.94,1.32,1.32,0,0,1,1.2-.66,1.69,1.69,0,0,1,.33,0,1.42,1.42,0,0,1,.29.1v.64a1.92,1.92,0,0,0-.27-.11l-.25,0a.82.82,0,0,0-.78.47,3.3,3.3,0,0,0-.25,1.5,3.34,3.34,0,0,0,.23,1.41.77.77,0,0,0,.73.46.9.9,0,0,0,.28,0,1.75,1.75,0,0,0,.31-.15Z"/><path class="cls-11" d="M24.22,29.27a2.3,2.3,0,0,0-.63-.38,2,2,0,0,0-.69-.12,1.51,1.51,0,0,0-1.14.45,1.75,1.75,0,0,0,0,2.31,1.41,1.41,0,0,0,1.08.45,2,2,0,0,0,.72-.13,2.33,2.33,0,0,0,.66-.41v.79a2.17,2.17,0,0,1-.61.3,2.37,2.37,0,0,1-.72.1,2.45,2.45,0,0,1-.91-.16,2.11,2.11,0,0,1-.73-.48,2,2,0,0,1-.48-.72,2.41,2.41,0,0,1,0-1.78,2,2,0,0,1,.49-.72,1.86,1.86,0,0,1,.73-.48,2.35,2.35,0,0,1,.89-.17,2.46,2.46,0,0,1,.72.11,2.82,2.82,0,0,1,.67.34Z"/><path class="cls-11" d="M27.71,31.22H25.48a1,1,0,0,0,.24.61.73.73,0,0,0,.55.22,1,1,0,0,0,.51-.13,1.08,1.08,0,0,0,.36-.42l.54.3a1.59,1.59,0,0,1-.58.62,1.56,1.56,0,0,1-.82.21,1.42,1.42,0,0,1-1.06-.41,1.67,1.67,0,0,1,0-2.16,1.42,1.42,0,0,1,1.05-.42,1.39,1.39,0,0,1,1,.39,1.46,1.46,0,0,1,.38,1.07Zm-.66-.43a.7.7,0,0,0-.23-.45.77.77,0,0,0-.52-.16.81.81,0,0,0-.51.15.86.86,0,0,0-.26.46Z"/><path class="cls-11" d="M29,30.18a1,1,0,0,1,.27-.41.75.75,0,0,1,.42-.13,1.24,1.24,0,0,1,.27,0l.25.1-.23.54a.56.56,0,0,0-.17-.09.78.78,0,0,0-.22,0,.47.47,0,0,0-.45.26,1.92,1.92,0,0,0-.14.85v1.22h-.63V29.73H29Z"/><path class="cls-11" d="M31.55,32.68,30.1,29.74h.69l.61,1.4a1.67,1.67,0,0,1,.07.19c0,.09.05.19.08.31a1.82,1.82,0,0,1,.07-.25,1.86,1.86,0,0,1,.1-.25l.6-1.4H33Z"/><path class="cls-11" d="M36.08,31.22H33.86a1,1,0,0,0,.23.61.77.77,0,0,0,.56.22,1,1,0,0,0,.51-.13,1.08,1.08,0,0,0,.36-.42l.53.3a1.46,1.46,0,0,1-.58.62,1.53,1.53,0,0,1-.81.21,1.42,1.42,0,0,1-1.06-.41,1.64,1.64,0,0,1,0-2.16,1.42,1.42,0,0,1,1-.42,1.39,1.39,0,0,1,1.05.39,1.45,1.45,0,0,1,.37,1.07Zm-.66-.43a.65.65,0,0,0-.22-.45.78.78,0,0,0-.53-.16.8.8,0,0,0-.5.15.87.87,0,0,0-.27.46Z"/><path class="cls-11" d="M38.88,32.52H36.3l1.55-2.22H36.46v-.56h2.42L37.37,32h1.51Z"/><path class="cls-11" d="M42.05,32.52h-.63v-.36a1.1,1.1,0,0,1-.4.35,1.08,1.08,0,0,1-.52.12,1.16,1.16,0,0,1-.93-.4,1.71,1.71,0,0,1-.33-1.11,1.6,1.6,0,0,1,.34-1.07,1.13,1.13,0,0,1,.9-.41,1.22,1.22,0,0,1,.59.14.88.88,0,0,1,.35.41v-.45h.63Zm-.61-1.4a1,1,0,0,0-.2-.67.7.7,0,0,0-.57-.24.68.68,0,0,0-.56.25,1,1,0,0,0-.21.68,1,1,0,0,0,.2.68.68.68,0,0,0,.56.24.67.67,0,0,0,.56-.26A1,1,0,0,0,41.44,31.12Z"/><path class="cls-11" d="M45.45,30.59v1.93H44.8V28.23h1.05a3,3,0,0,1,.69.05,1,1,0,0,1,.39.17,1,1,0,0,1,.31.4,1.28,1.28,0,0,1,.12.56,1.31,1.31,0,0,1-.12.56.9.9,0,0,1-.31.4,1,1,0,0,1-.39.17,3.74,3.74,0,0,1-.69.05h-.4Zm0-.57h.18a1.53,1.53,0,0,0,.78-.13.48.48,0,0,0,.19-.44.56.56,0,0,0-.21-.49,1.49,1.49,0,0,0-.76-.14h-.18Z"/><path class="cls-11" d="M48.47,30.18a1,1,0,0,1,.27-.41.7.7,0,0,1,.42-.13,1.15,1.15,0,0,1,.26,0l.26.1-.23.54-.18-.09a.66.66,0,0,0-.21,0,.47.47,0,0,0-.45.26,1.78,1.78,0,0,0-.14.85v1.22h-.64V29.73h.64Z"/><path class="cls-11" d="M52.72,31.22H50.5a.91.91,0,0,0,.23.61.75.75,0,0,0,.55.22,1,1,0,0,0,.51-.13,1.08,1.08,0,0,0,.36-.42l.54.3a1.59,1.59,0,0,1-.58.62,1.54,1.54,0,0,1-.82.21,1.43,1.43,0,0,1-1.06-.41,1.67,1.67,0,0,1,0-2.16,1.42,1.42,0,0,1,1-.42,1.39,1.39,0,0,1,1.05.39,1.46,1.46,0,0,1,.38,1.07Zm-.66-.43a.66.66,0,0,0-.23-.45.77.77,0,0,0-.52-.16.81.81,0,0,0-.51.15.86.86,0,0,0-.26.46Z"/><path class="cls-11" d="M54,32.52h-.63V29.74H54v.45a1.23,1.23,0,0,1,.43-.42,1.14,1.14,0,0,1,.57-.13,1,1,0,0,1,.54.13.82.82,0,0,1,.32.42,1.52,1.52,0,0,1,.47-.42,1.13,1.13,0,0,1,.56-.13,1,1,0,0,1,.48.1.65.65,0,0,1,.32.29.63.63,0,0,1,.08.22,1.6,1.6,0,0,1,0,.36v1.91h-.64V31.09a1.51,1.51,0,0,0-.12-.74.47.47,0,0,0-.42-.18.63.63,0,0,0-.54.24,1.67,1.67,0,0,0-.16.84v1.27h-.64V31.09a1.55,1.55,0,0,0-.12-.72.49.49,0,0,0-.43-.2.64.64,0,0,0-.34.09.59.59,0,0,0-.33.47,3,3,0,0,0,0,.52Z"/><path class="cls-11" d="M58.57,28.54a.41.41,0,0,1,.4-.4.38.38,0,0,1,.4.4.41.41,0,0,1-.4.4.41.41,0,0,1-.4-.4Zm.09,4V29.74h.63v2.78Z"/><path class="cls-11" d="M60.82,29.74V31.3a.82.82,0,0,0,.16.58.73.73,0,0,0,.55.18.7.7,0,0,0,.54-.18.82.82,0,0,0,.16-.58V29.74h.64v1.37a1.75,1.75,0,0,1-.32,1.16,1.29,1.29,0,0,1-1,.36,1.31,1.31,0,0,1-1-.36,1.73,1.73,0,0,1-.32-1.16V29.74Z"/><path class="cls-11" d="M64.36,32.52h-.63V29.74h.6v.45a1.23,1.23,0,0,1,.43-.42,1.14,1.14,0,0,1,.57-.13,1,1,0,0,1,.54.13.82.82,0,0,1,.32.42,1.52,1.52,0,0,1,.47-.42,1.13,1.13,0,0,1,.56-.13,1,1,0,0,1,.48.1A.65.65,0,0,1,68,30a.63.63,0,0,1,.08.22,1.6,1.6,0,0,1,0,.36v1.91h-.64V31.09a1.51,1.51,0,0,0-.12-.74.47.47,0,0,0-.42-.18.63.63,0,0,0-.54.24,1.67,1.67,0,0,0-.16.84v1.27h-.64V31.09a1.55,1.55,0,0,0-.12-.72.49.49,0,0,0-.43-.2.64.64,0,0,0-.34.09.59.59,0,0,0-.33.47,3,3,0,0,0,0,.52Z"/><path class="cls-11" d="M18.73,32h-2.2V17.32h2.2v1a4,4,0,0,1,2.95-1.3,4.12,4.12,0,0,1,3.23,1.44,5.23,5.23,0,0,1,1.29,3.62,5.16,5.16,0,0,1-1.28,3.57,4.15,4.15,0,0,1-3.2,1.42,4.1,4.1,0,0,1-3-1.34ZM24,22.13a3.24,3.24,0,0,0-.74-2.22A2.39,2.39,0,0,0,21.32,19a2.52,2.52,0,0,0-2,.84,3.18,3.18,0,0,0-.75,2.21,3.24,3.24,0,0,0,.75,2.2,2.47,2.47,0,0,0,2,.85,2.35,2.35,0,0,0,1.88-.86A3.11,3.11,0,0,0,24,22.13Z"/><path class="cls-11" d="M30.72,17.32v9.51h-2.2V17.32Z"/><path class="cls-11" d="M34.69,17.32l2.49,5.43,2.69-6.3,2.71,6.3L45,17.32H47.5l-5,10.22-2.65-6.12-2.68,6.12-5-10.22Z"/><path class="cls-11" d="M48.17,22a4.71,4.71,0,0,1,1.48-3.51,5.21,5.21,0,0,1,7.2,0,4.84,4.84,0,0,1,1.47,3.58,4.79,4.79,0,0,1-1.48,3.58,5,5,0,0,1-3.64,1.44,4.8,4.8,0,0,1-3.58-1.47A4.89,4.89,0,0,1,48.17,22Zm2.25,0a3.18,3.18,0,0,0,.76,2.25,2.68,2.68,0,0,0,2.06.84,2.65,2.65,0,0,0,2.06-.83,3.13,3.13,0,0,0,.77-2.21,3.14,3.14,0,0,0-.77-2.22A2.68,2.68,0,0,0,53.24,19a2.65,2.65,0,0,0-2,.84A3.06,3.06,0,0,0,50.42,22.05Z"/></g></g></svg>